<?xml version="1.0" standalone="no"?>
<!DOCTYPE svg PUBLIC "-//W3C//DTD SVG 1.1//EN" "http://www.w3.org/Graphics/SVG/1.1/DTD/svg11.dtd" >
<svg xmlns="http://www.w3.org/2000/svg" xmlns:xlink="http://www.w3.org/1999/xlink" version="1.1">
<metadata>
Created by FontForge 20201107 at Wed Feb 14 14:10:40 2024
 By 
Copyright 2022 The Noto Project Authors (https://github.com/notofonts/georgian)
</metadata>
<defs>
<font id="NotoSansGeorgian-SemiBold" horiz-adv-x="638" >
  <font-face 
    font-family="Noto Sans Georgian SemiBold"
    font-weight="600"
    font-stretch="normal"
    units-per-em="1000"
    panose-1="2 11 5 2 4 5 4 2 2 4"
    ascent="800"
    descent="-200"
    x-height="542"
    cap-height="714"
    bbox="-523 -250 1119 1002"
    underline-thickness="50"
    underline-position="-125"
    unicode-range="U+000D-2D2D"
  />
<missing-glyph horiz-adv-x="600" 
d="M94 0v714h411v-714h-411zM145 51h309v612h-309v-612z" />
    <glyph glyph-name=".notdef" horiz-adv-x="600" 
d="M94 0v714h411v-714h-411zM145 51h309v612h-309v-612z" />
    <glyph glyph-name=".null" horiz-adv-x="0" 
 />
    <glyph glyph-name="nonmarkingreturn" horiz-adv-x="333" 
 />
    <glyph glyph-name="NULL" horiz-adv-x="0" 
 />
    <glyph glyph-name="NULL" horiz-adv-x="0" 
 />
    <glyph glyph-name="CR" unicode="&#xd;" horiz-adv-x="260" 
 />
    <glyph glyph-name="space" unicode=" " horiz-adv-x="260" 
 />
    <glyph glyph-name="exclam" unicode="!" horiz-adv-x="277" 
d="M187 220h-97l-25 494h147zM61 64q0 43 22.5 60.5t54.5 17.5q31 0 54 -17.5t23 -60.5q0 -41 -23 -59t-54 -18q-32 0 -54.5 18t-22.5 59z" />
    <glyph glyph-name="quotedbl" unicode="&#x22;" horiz-adv-x="452" 
d="M188 714l-20 -258h-85l-20 258h125zM389 714l-20 -258h-85l-20 258h125z" />
    <glyph glyph-name="numbersign" unicode="#" horiz-adv-x="652" 
d="M491 421l-25 -130h130v-89h-147l-39 -202h-94l39 202h-119l-38 -202h-93l37 202h-120v89h137l26 130h-127v89h144l38 204h94l-38 -204h120l38 204h92l-38 -204h121v-89h-138zM253 291h119l25 130h-119z" />
    <glyph glyph-name="dollar" unicode="$" horiz-adv-x="574" 
d="M249 39q-59 1 -109 10.5t-86 25.5v111q39 -18 92.5 -30.5t102.5 -14.5v172q-65 18 -109.5 42t-68 60.5t-23.5 90.5q0 53 25 90t70 58t106 25v80h74v-79q57 -2 102.5 -13.5t83.5 -27.5l-33 -97q-34 15 -73.5 24.5t-79.5 12.5v-171q68 -19 114 -41.5t69.5 -56t23.5 -86.5
q0 -74 -52 -122.5t-155 -59.5v-100h-74v97zM323 145q48 6 70 23.5t22 45.5q0 20 -8 34t-28 24t-56 19v-146zM249 577q-29 -1 -48 -10t-28.5 -22.5t-9.5 -31.5q0 -21 8 -36t26.5 -25.5t51.5 -19.5v145z" />
    <glyph glyph-name="percent" unicode="%" horiz-adv-x="875" 
d="M197 724q78 0 121 -58.5t43 -164.5t-41 -165.5t-123 -59.5q-75 0 -117.5 59.5t-42.5 165.5t39.5 164.5t120.5 58.5zM198 640q-32 0 -46 -36t-14 -104t14 -104t46 -36t46.5 35.5t14.5 104.5q0 68 -14.5 104t-46.5 36zM686 714l-396 -714h-103l396 714h103zM674 439
q77 0 120.5 -58.5t43.5 -164.5t-40.5 -165.5t-123.5 -59.5q-75 0 -117 59.5t-42 165.5t39.5 164.5t119.5 58.5zM675 354q-32 0 -45.5 -35.5t-13.5 -103.5t13.5 -104.5t45.5 -36.5t47 36t15 105t-15 104t-47 35z" />
    <glyph glyph-name="ampersand" unicode="&#x26;" horiz-adv-x="757" 
d="M314 724q88 0 139 -42t51 -118q0 -62 -39 -106.5t-99 -80.5l157 -150q22 29 37.5 66.5t25.5 80.5h130q-16 -68 -43 -127.5t-65 -101.5l150 -145h-168l-72 71q-29 -24 -61.5 -42t-73.5 -28.5t-99 -10.5q-74 0 -127.5 24.5t-82 70t-28.5 106.5q0 48 17.5 84.5t50.5 65.5
t78 54q-20 24 -38 49.5t-29 54.5t-11 64q0 74 52.5 117.5t147.5 43.5zM265 321q-28 -17 -47.5 -35t-29.5 -39t-10 -49q0 -46 31.5 -74t83.5 -28q50 0 86.5 16t59.5 37zM311 632q-34 0 -56 -18t-22 -53q0 -30 16.5 -56.5t45.5 -55.5q47 27 68.5 54.5t21.5 60.5q0 32 -20.5 50
t-53.5 18z" />
    <glyph glyph-name="quotesingle" unicode="'" horiz-adv-x="250" 
d="M188 714l-20 -258h-85l-20 258h125z" />
    <glyph glyph-name="parenleft" unicode="(" horiz-adv-x="322" 
d="M38 278q0 82 15 161t47 151t82 132h112q-69 -94 -102.5 -209t-33.5 -234q0 -77 14.5 -154t44.5 -149t76 -134h-111q-50 59 -82 129.5t-47 148.5t-15 158z" />
    <glyph glyph-name="parenright" unicode=")" horiz-adv-x="322" 
d="M284 278q0 -80 -14.5 -158t-46 -148.5t-82.5 -129.5h-111q45 62 75 134t45 149t15 154q0 79 -15 157t-45 151t-76 135h112q51 -60 82.5 -132t46 -151t14.5 -161z" />
    <glyph glyph-name="asterisk" unicode="*" horiz-adv-x="546" 
d="M330 760l-20 -184l186 52l15 -112l-172 -13l112 -150l-102 -54l-79 161l-70 -161l-106 54l111 150l-171 14l17 111l182 -52l-20 184h117z" />
    <glyph glyph-name="plus" unicode="+" horiz-adv-x="577" 
d="M335 399h193v-93h-193v-195h-94v195h-193v93h193v197h94v-197z" />
    <glyph glyph-name="comma" unicode="," horiz-adv-x="284" 
d="M214 116q-9 -35 -23 -79.5t-30.5 -88.5t-32.5 -81h-92q10 41 19.5 87.5t17.5 91.5t12 81h122z" />
    <glyph glyph-name="hyphen" unicode="-" horiz-adv-x="320" 
d="M33 215v106h255v-106h-255z" />
    <glyph glyph-name="period" unicode="." horiz-adv-x="276" 
d="M61 64q0 43 22.5 60.5t54.5 17.5t54.5 -17.5t22.5 -60.5q0 -41 -22.5 -59t-54.5 -18t-54.5 18t-22.5 59z" />
    <glyph glyph-name="slash" unicode="/" horiz-adv-x="399" 
d="M392 718l-266 -722h-118l266 722h118z" />
    <glyph glyph-name="zero" unicode="0" horiz-adv-x="577" 
d="M534 357q0 -86 -13.5 -154t-42.5 -115.5t-76 -72.5t-114 -25q-83 0 -137.5 44t-80.5 126.5t-26 196.5q0 116 23.5 198t77.5 126t143 44q83 0 138 -43.5t81.5 -126t26.5 -198.5zM171 357q0 -87 11 -145t36.5 -87.5t69.5 -29.5t69.5 29t36.5 87.5t11 145.5q0 88 -11 146
t-36.5 87.5t-69.5 29.5t-69.5 -29.5t-36.5 -87.5t-11 -146z" />
    <glyph glyph-name="one" unicode="1" horiz-adv-x="577" 
d="M395 0h-128v444q0 21 0.5 43.5t1.5 45.5t2 44q-15 -15 -27 -26t-29 -25l-78 -64l-66 83l213 169h111v-714z" />
    <glyph glyph-name="two" unicode="2" horiz-adv-x="577" 
d="M531 0h-490v94l182 184q54 55 88.5 94t51 73t16.5 74q0 48 -29.5 72.5t-74.5 24.5q-46 0 -83 -18.5t-79 -52.5l-70 84q30 25 64.5 47t77.5 35t98 13q69 0 119 -24t77.5 -67t27.5 -101t-22.5 -107t-65.5 -97t-103 -105l-112 -109v-4h327v-110z" />
    <glyph glyph-name="three" unicode="3" horiz-adv-x="577" 
d="M505 552q0 -50 -19.5 -85.5t-54 -58t-78.5 -32.5v-4q86 -10 129.5 -53t43.5 -116q0 -60 -29.5 -108.5t-92 -76.5t-161.5 -28q-61 0 -109 9.5t-93 29.5v112q46 -23 96.5 -35t95.5 -12q87 0 123 30.5t36 84.5q0 37 -19.5 61t-59.5 35.5t-103 11.5h-59v101h60q58 0 94.5 14
t54.5 39.5t18 58.5q0 44 -30 66.5t-81 22.5q-36 0 -66 -8t-54.5 -20.5t-45.5 -25.5l-57 86q40 30 97 51.5t137 21.5q111 0 169 -47.5t58 -124.5z" />
    <glyph glyph-name="four" unicode="4" horiz-adv-x="577" 
d="M559 153h-94v-153h-125v153h-321v100l322 463h124v-459h94v-104zM340 428q0 20 0.5 40t1 38t1.5 33.5t1 25.5h-4q-9 -20 -19 -39t-22 -35l-163 -234h204v171z" />
    <glyph glyph-name="five" unicode="5" horiz-adv-x="577" 
d="M294 449q68 0 120 -25.5t81.5 -74t29.5 -117.5q0 -76 -32 -130.5t-93.5 -83t-150.5 -28.5q-58 0 -107.5 10t-84.5 29v112q36 -21 88 -34t98 -13q47 0 80.5 14t52.5 43.5t19 72.5q0 59 -38 91t-118 32q-28 0 -60 -5t-53 -11l-54 31l27 352h376v-111h-268l-13 -164
q16 3 40.5 6.5t59.5 3.5z" />
    <glyph glyph-name="six" unicode="6" horiz-adv-x="577" 
d="M47 304q0 61 8.5 121.5t30.5 114.5t61 95.5t99 65t146 23.5q21 0 48.5 -2t44.5 -7v-104q-19 6 -42 8.5t-51 2.5q-64 0 -106.5 -19t-67 -52.5t-36.5 -78.5t-14 -98h6q14 24 35 43t51.5 30t71.5 11q62 0 108 -26t71 -76t25 -121q0 -76 -28.5 -131t-81.5 -84.5t-126 -29.5
q-53 0 -99 19t-80.5 57.5t-54 98t-19.5 139.5zM298 94q51 0 82 34t31 106q0 58 -27.5 91.5t-83.5 33.5q-38 0 -66 -16.5t-43.5 -42t-15.5 -52.5q0 -28 7.5 -55t23 -49.5t38.5 -36t54 -13.5z" />
    <glyph glyph-name="seven" unicode="7" horiz-adv-x="577" 
d="M123 0l275 604h-356v110h492v-85l-275 -629h-136z" />
    <glyph glyph-name="eight" unicode="8" horiz-adv-x="577" 
d="M289 724q98 0 160.5 -43.5t62.5 -128.5q0 -43 -17.5 -75.5t-47.5 -56.5t-66 -43q40 -20 75 -46t56.5 -61t21.5 -83q0 -59 -28.5 -103t-83 -69t-132.5 -25q-82 0 -137 24t-82.5 67t-27.5 103q0 50 19 85t51.5 60.5t70.5 43.5q-33 20 -60 45.5t-43 58.5t-16 76
q0 56 29 93.5t79.5 57.5t115.5 20zM164 187q0 -44 31 -72.5t93 -28.5t94 28t32 73q0 30 -16.5 53.5t-44 41.5t-60.5 31l-15 7q-36 -16 -61.5 -35t-39 -43t-13.5 -55zM288 627q-43 0 -72 -21.5t-29 -61.5q0 -29 14 -49.5t37.5 -36t51.5 -28.5q27 12 49.5 27t36 36t13.5 51
q0 40 -28.5 61.5t-72.5 21.5z" />
    <glyph glyph-name="nine" unicode="9" horiz-adv-x="577" 
d="M532 406q0 -84 -16.5 -159t-55.5 -133t-106 -91t-167 -33q-21 0 -48.5 2t-45.5 6v105q19 -5 42 -8t47 -3q67 0 110 19t68.5 52.5t37 79t13.5 96.5h-6q-14 -23 -35.5 -42t-51.5 -30t-73 -11q-61 0 -106.5 26t-70.5 76t-25 120q0 77 29 132t82.5 84.5t125.5 29.5
q53 0 99 -19.5t80.5 -58.5t53.5 -99t19 -141zM282 620q-51 0 -82.5 -34.5t-31.5 -105.5q0 -58 27.5 -91.5t83.5 -33.5q38 0 66 16.5t43.5 42t15.5 52.5t-7.5 54.5t-22.5 50t-38 36t-54 13.5z" />
    <glyph glyph-name="colon" unicode=":" horiz-adv-x="276" 
d="M61 64q0 43 22.5 60.5t54.5 17.5t54.5 -17.5t22.5 -60.5q0 -41 -22.5 -59t-54.5 -18t-54.5 18t-22.5 59zM61 476q0 43 22.5 60.5t54.5 17.5t54.5 -17.5t22.5 -60.5q0 -41 -22.5 -59.5t-54.5 -18.5t-54.5 18.5t-22.5 59.5z" />
    <glyph glyph-name="semicolon" unicode=";" horiz-adv-x="279" 
d="M208 116q-9 -35 -23 -79.5t-30 -88.5t-33 -81h-92q7 30 14 64.5t14 68.5t12.5 67t9.5 60h121zM60 476q0 43 23 60.5t54 17.5q32 0 55 -17.5t23 -60.5q0 -41 -23 -59.5t-55 -18.5q-31 0 -54 18.5t-23 59.5z" />
    <glyph glyph-name="less" unicode="&#x3c;" horiz-adv-x="577" 
d="M528 105l-480 212v62l480 240v-103l-349 -163l349 -145v-103z" />
    <glyph glyph-name="equal" unicode="=" horiz-adv-x="577" 
d="M52 409v94h472v-94h-472zM52 201v94h472v-94h-472z" />
    <glyph glyph-name="greater" unicode="&#x3e;" horiz-adv-x="577" 
d="M48 208l349 144l-349 164v103l480 -240v-62l-480 -212v103z" />
    <glyph glyph-name="question" unicode="?" horiz-adv-x="461" 
d="M142 253q0 35 7.5 61.5t26 50t51.5 49.5q37 28 56.5 47.5t27 37.5t7.5 42q0 37 -26.5 57.5t-74.5 20.5q-44 0 -84 -12.5t-80 -33.5l-46 94q46 26 100 41.5t119 15.5q101 0 156.5 -48t55.5 -128q0 -42 -13.5 -74t-39.5 -59t-64 -55q-32 -25 -49 -43t-23.5 -35.5
t-6.5 -41.5v-20h-100v33zM119 64q0 43 22.5 60.5t55.5 17.5q31 0 53.5 -17.5t22.5 -60.5q0 -41 -22.5 -59t-53.5 -18q-33 0 -55.5 18t-22.5 59z" />
    <glyph glyph-name="at" unicode="@" horiz-adv-x="898" 
d="M847 362q0 -47 -11 -91.5t-33.5 -80.5t-55.5 -57.5t-77 -21.5q-43 0 -71.5 22t-39.5 54h-6q-19 -33 -53 -54.5t-82 -21.5q-83 0 -126 52.5t-43 137.5q0 66 27 117.5t77.5 81t121.5 29.5q46 0 90.5 -8t70.5 -18l-10 -204q0 -13 -0.5 -23t-0.5 -17q0 -41 14.5 -55t33.5 -14
q26 0 44 23.5t28 63t10 86.5q0 86 -34 146.5t-96 93t-146 32.5q-80 0 -142.5 -25.5t-104.5 -72t-64 -110t-22 -139.5q0 -91 33 -155.5t97.5 -99t158.5 -34.5q59 0 119.5 13.5t109.5 31.5v-85q-46 -19 -103 -31t-123 -12q-122 0 -208.5 44.5t-132.5 127.5t-46 199
q0 92 29.5 170.5t85 136.5t135 90.5t178.5 32.5q81 0 148.5 -24.5t116.5 -70.5t76 -112t27 -148zM349 301q0 -59 23 -85t60 -26q50 0 71.5 38t25.5 108l6 106q-12 3 -27 5t-31 2q-46 0 -74 -21t-41 -55t-13 -72z" />
    <glyph glyph-name="A" unicode="A" horiz-adv-x="672" 
d="M534 0l-67 188h-264l-66 -188h-137l262 717h147l262 -717h-137zM374 476q-4 12 -12 38.5t-15.5 55t-11.5 44.5q-5 -21 -11.5 -47.5t-13 -50t-11.5 -40.5l-62 -178h198z" />
    <glyph glyph-name="B" unicode="B" horiz-adv-x="659" 
d="M311 714q141 0 209 -42t68 -135q0 -44 -16.5 -76.5t-45 -53t-65.5 -28.5v-5q39 -7 72.5 -25t54 -52.5t20.5 -91.5q0 -65 -31 -111t-89 -70t-137 -24h-262v714h222zM322 421q76 0 104.5 26t28.5 73t-34.5 69t-108.5 22h-93v-190h103zM219 321v-217h115q78 0 108.5 31
t30.5 81q0 30 -13.5 54t-45.5 37.5t-86 13.5h-109z" />
    <glyph glyph-name="C" unicode="C" 
d="M400 615q-48 0 -87 -17.5t-66 -51.5t-41.5 -82t-14.5 -108q0 -80 23.5 -138t71 -88.5t118.5 -30.5q47 0 89.5 10t84.5 24v-110q-42 -17 -87.5 -25t-103.5 -8q-111 0 -184.5 45.5t-109.5 128t-36 193.5q0 81 22.5 148t66.5 116.5t108 76t147 26.5q54 0 107.5 -11.5
t98.5 -33.5l-44 -105q-36 17 -76 29t-87 12z" />
    <glyph glyph-name="D" unicode="D" horiz-adv-x="732" 
d="M674 367q0 -121 -45 -203t-128.5 -123t-199.5 -41h-212v714h231q110 0 189.5 -40t122 -116.5t42.5 -190.5zM539 363q0 83 -26 137t-76.5 80.5t-124.5 26.5h-93v-499h76q123 0 183.5 63.5t60.5 191.5z" />
    <glyph glyph-name="E" unicode="E" horiz-adv-x="553" 
d="M498 0h-409v714h409v-108h-279v-181h261v-107h-261v-209h279v-109z" />
    <glyph glyph-name="F" unicode="F" horiz-adv-x="527" 
d="M217 0h-128v714h408v-108h-280v-208h262v-108h-262v-290z" />
    <glyph glyph-name="G" unicode="G" horiz-adv-x="733" 
d="M391 393h270v-364q-57 -19 -121 -29t-140 -10q-108 0 -184.5 43t-117.5 125t-41 200q0 112 43.5 194t126.5 127t202 45q63 0 119 -11.5t101 -31.5l-44 -106q-38 18 -83.5 29t-95.5 11q-77 0 -129.5 -32.5t-79 -91t-26.5 -135.5q0 -78 24.5 -136t74.5 -89.5t129 -31.5
q36 0 66 4t51 9v174h-145v107z" />
    <glyph glyph-name="H" unicode="H" horiz-adv-x="751" 
d="M660 0h-129v317h-312v-317h-130v714h130v-288h312v288h129v-714z" />
    <glyph glyph-name="I" unicode="I" horiz-adv-x="377" 
d="M339 0h-301v74l86 25v516l-86 25v74h301v-74l-86 -25v-516l86 -25v-74z" />
    <glyph glyph-name="J" unicode="J" horiz-adv-x="303" 
d="M6 -203q-28 0 -48.5 3.5t-35.5 8.5v104q16 -4 33.5 -7t37.5 -3q29 0 50 11.5t33 38t12 70.5v691h129v-681q0 -83 -26.5 -135.5t-74 -76.5t-110.5 -24z" />
    <glyph glyph-name="K" unicode="K" horiz-adv-x="645" 
d="M645 0h-149l-210 315l-67 -52v-263h-130v714h130v-336q23 30 48.5 60t50.5 59l176 217h146l-261 -314z" />
    <glyph glyph-name="L" unicode="L" horiz-adv-x="546" 
d="M89 0v714h130v-605h297v-109h-427z" />
    <glyph glyph-name="M" unicode="M" horiz-adv-x="930" 
d="M403 0l-201 583h-4q2 -20 3.5 -52t3 -69.5t1.5 -75.5v-386h-117v714h181l193 -555h4l194 555h179v-714h-122v391q0 35 1 71t3 68t3 52h-4l-202 -582h-116z" />
    <glyph glyph-name="N" unicode="N" horiz-adv-x="788" 
d="M699 0h-162l-336 559h-4q2 -23 4 -55t3.5 -66.5t1.5 -67.5v-370h-117v714h161l335 -555h3q-1 19 -2.5 50.5t-3 67t-1.5 64.5v373h118v-714z" />
    <glyph glyph-name="O" unicode="O" horiz-adv-x="787" 
d="M730 358q0 -83 -21 -150.5t-62.5 -116.5t-104.5 -75t-148 -26q-87 0 -150 26.5t-104.5 75t-62 116.5t-20.5 151q0 110 36.5 192.5t111.5 128t190 45.5q112 0 186.5 -45.5t111.5 -128t37 -193.5zM193 358q0 -80 21 -138t66 -89t114 -31q70 0 114 31t64.5 89t20.5 138
q0 121 -46.5 189.5t-151.5 68.5q-70 0 -115 -31t-66 -89t-21 -138z" />
    <glyph glyph-name="P" unicode="P" horiz-adv-x="615" 
d="M300 714q139 0 204.5 -56.5t65.5 -159.5q0 -46 -14.5 -88t-47 -75.5t-86.5 -53t-132 -19.5h-71v-262h-130v714h211zM294 607h-75v-237h59q51 0 87 12t55 39.5t19 71.5q0 56 -35 85t-110 29z" />
    <glyph glyph-name="Q" unicode="Q" horiz-adv-x="787" 
d="M730 358q0 -82 -21 -150t-62 -117t-105 -74l172 -187h-171l-131 161q-4 0 -9 -0.5t-9 -0.5q-87 0 -150 26.5t-104.5 75t-62 116.5t-20.5 151q0 110 36.5 192.5t111.5 128t190 45.5q112 0 186.5 -45.5t111.5 -128t37 -193.5zM193 358q0 -80 21 -138t66 -89t114 -31
q70 0 114 31t64.5 89t20.5 138q0 121 -46.5 189.5t-151.5 68.5q-70 0 -115 -31t-66 -89t-21 -138z" />
    <glyph glyph-name="R" unicode="R" horiz-adv-x="643" 
d="M300 714q93 0 153 -23t89.5 -68.5t29.5 -114.5q0 -52 -18.5 -89t-49 -61.5t-66.5 -40.5l200 -317h-148l-165 282h-106v-282h-130v714h211zM296 610h-77v-226h80q70 0 105.5 29t35.5 89q0 38 -15 61.5t-47 35t-82 11.5z" />
    <glyph glyph-name="S" unicode="S" horiz-adv-x="560" 
d="M518 201q0 -62 -30.5 -109.5t-89.5 -74.5t-145 -27q-43 0 -79.5 4t-67 12.5t-58.5 21.5v119q45 -21 100.5 -35t108.5 -14q44 0 73.5 11.5t44 32t14.5 47.5q0 29 -14.5 49t-47.5 38t-91 40q-58 23 -98.5 51t-61 67.5t-20.5 97.5q0 61 31 104t85.5 65.5t126.5 22.5
q64 0 115.5 -12.5t92.5 -31.5l-39 -105q-41 18 -85 29.5t-87 11.5q-38 0 -62.5 -10t-36.5 -28.5t-12 -42.5q0 -29 14 -49t47 -37.5t89 -40.5q59 -23 99.5 -50t62 -64t21.5 -93z" />
    <glyph glyph-name="T" unicode="T" horiz-adv-x="569" 
d="M349 0h-129v605h-204v109h537v-109h-204v-605z" />
    <glyph glyph-name="U" unicode="U" horiz-adv-x="741" 
d="M657 264q0 -80 -31.5 -142t-96 -97t-162.5 -35q-138 0 -210.5 73.5t-72.5 200.5v450h129v-446q0 -83 39.5 -125.5t119.5 -42.5q55 0 89.5 20t50.5 58t16 91v445h129v-450z" />
    <glyph glyph-name="V" unicode="V" horiz-adv-x="636" 
d="M636 714l-247 -714h-142l-247 714h141l136 -422q9 -25 16.5 -54t14 -56.5t10.5 -49.5q4 22 10 49.5t13.5 56.5t16.5 55l137 421h141z" />
    <glyph glyph-name="W" unicode="W" horiz-adv-x="971" 
d="M958 714l-185 -714h-143l-112 408q-5 17 -10 38.5t-10 44t-9 41.5t-5 30q-2 -11 -5 -30t-8 -41.5t-10 -44.5t-10 -40l-110 -406h-143l-185 714h129l99 -406q4 -20 9 -43t10 -47t9 -46.5t6 -41.5q4 24 8.5 52t10.5 57t12.5 56t12.5 49l102 370h126l104 -372
q6 -22 13 -49.5t13 -56.5t10.5 -56.5t7.5 -49.5q3 25 9 56.5t13 63.5t13 58l99 406h129z" />
    <glyph glyph-name="X" unicode="X" 
d="M634 0h-148l-170 277l-171 -277h-142l237 369l-222 345h143l158 -258l156 258h142l-222 -349z" />
    <glyph glyph-name="Y" unicode="Y" horiz-adv-x="603" 
d="M302 396l162 318h139l-237 -436v-278h-129v273l-237 441h141z" />
    <glyph glyph-name="Z" unicode="Z" horiz-adv-x="587" 
d="M553 0h-518v87l350 518h-340v109h499v-87l-351 -518h360v-109z" />
    <glyph glyph-name="bracketleft" unicode="[" horiz-adv-x="327" 
d="M303 -162h-232v884h232v-92h-120v-700h120v-92z" />
    <glyph glyph-name="backslash" unicode="\" horiz-adv-x="399" 
d="M125 718l267 -722h-119l-266 722h118z" />
    <glyph glyph-name="bracketright" unicode="]" horiz-adv-x="327" 
d="M24 -70h120v700h-120v92h232v-884h-232v92z" />
    <glyph glyph-name="asciicircum" unicode="^" horiz-adv-x="554" 
d="M21 259l213 459h62l240 -459h-104l-165 329l-145 -329h-101z" />
    <glyph glyph-name="underscore" unicode="_" horiz-adv-x="465" 
d="M467 -166h-469v86h469v-86z" />
    <glyph glyph-name="grave" unicode="`" horiz-adv-x="333" 
d="M185 766q13 -22 32.5 -49.5t40 -53t35.5 -44.5v-13h-85q-18 14 -42 33.5t-48 41t-45 41.5t-33 34v10h145z" />
    <glyph glyph-name="a" unicode="a" horiz-adv-x="585" 
d="M306 552q101 0 152.5 -46.5t51.5 -141.5v-364h-90l-24 75h-4q-23 -29 -47.5 -48t-56.5 -28t-77 -9q-48 0 -86.5 18t-60.5 55t-22 94q0 83 62.5 126.5t188.5 47.5l91 3v23q0 55 -25 77.5t-69 22.5q-39 0 -77.5 -12.5t-74.5 -28.5l-38 88q40 22 93 35t113 13zM318 254
q-82 -4 -114 -27.5t-32 -66.5q0 -38 23 -56.5t59 -18.5q55 0 92.5 32t37.5 93v46z" />
    <glyph glyph-name="b" unicode="b" horiz-adv-x="626" 
d="M205 580q0 -32 -1.5 -60.5t-4.5 -48.5h6q22 34 60 57.5t99 23.5q94 0 152.5 -71t58.5 -209q0 -93 -26.5 -156t-75 -94.5t-112.5 -31.5q-61 0 -97.5 22t-58.5 51h-9l-23 -63h-95v760h127v-180zM328 450q-45 0 -72.5 -18.5t-39 -55.5t-11.5 -95v-12q0 -86 27 -130.5
t98 -44.5q57 0 86 46t29 133q0 88 -28.5 132.5t-88.5 44.5z" />
    <glyph glyph-name="c" unicode="c" horiz-adv-x="502" 
d="M307 -10q-76 0 -134 29.5t-90.5 91t-32.5 157.5q0 100 35 162.5t95 92t136 29.5q45 0 86 -9t70 -24l-38 -99q-27 11 -58 19.5t-61 8.5q-44 0 -74.5 -20t-45.5 -59.5t-15 -99.5q0 -57 15.5 -96t45 -58.5t71.5 -19.5q43 0 79.5 10.5t68.5 27.5v-106q-30 -17 -66.5 -27
t-86.5 -10z" />
    <glyph glyph-name="d" unicode="d" horiz-adv-x="626" 
d="M261 -10q-94 0 -152.5 71t-58.5 209q0 140 59 211t155 71q40 0 69.5 -10.5t51.5 -28.5t37 -40h5q-2 16 -4.5 45.5t-2.5 52.5v189h128v-760h-99l-24 71h-5q-15 -22 -36.5 -40.5t-52 -29.5t-70.5 -11zM299 93q70 0 99 39.5t29 120.5v16q0 87 -27.5 133.5t-101.5 46.5
q-57 0 -87.5 -47.5t-30.5 -133.5t30.5 -130.5t88.5 -44.5z" />
    <glyph glyph-name="e" unicode="e" horiz-adv-x="585" 
d="M301 552q73 0 126 -29t81.5 -84t28.5 -133v-65h-357q2 -73 41 -113t111 -40q51 0 92 10t84 29v-100q-40 -19 -83 -28t-104 -9q-79 0 -140.5 30.5t-96 92.5t-34.5 154q0 93 31.5 156.5t88 96t131.5 32.5zM303 458q-52 0 -83.5 -33t-36.5 -95h231q0 38 -12 66.5t-36.5 45
t-62.5 16.5z" />
    <glyph glyph-name="f" unicode="f" horiz-adv-x="370" 
d="M359 446h-128v-446h-127v446h-86v61l87 37v22q0 105 45.5 152t134.5 47q36 0 65.5 -6t55.5 -15l-29 -90q-16 5 -35.5 9t-40.5 4q-36 0 -53 -23.5t-17 -73.5v-28h128v-96z" />
    <glyph glyph-name="g" unicode="g" horiz-adv-x="626" 
d="M263 552q55 0 94.5 -20.5t66.5 -58.5h5l13 69h106v-548q0 -77 -28.5 -129t-86 -78.5t-146.5 -26.5q-61 0 -110.5 8t-91.5 25v111q43 -20 91.5 -31t109.5 -11q65 0 100 33t35 92v16q0 13 1.5 33.5t2.5 34.5h-4q-25 -38 -64 -59.5t-95 -21.5q-98 0 -155 73t-57 207
q0 133 57.5 207.5t155.5 74.5zM298 450q-38 0 -64.5 -21t-40 -61.5t-13.5 -98.5q0 -89 30.5 -133.5t89.5 -44.5q34 0 58 9.5t39.5 29t23 49.5t7.5 71v22q0 61 -13.5 100.5t-42 58.5t-74.5 19z" />
    <glyph glyph-name="h" unicode="h" 
d="M205 581q0 -35 -2 -63.5t-4 -46.5h7q17 28 42 45.5t55.5 26.5t63.5 9q61 0 105 -21t67.5 -64.5t23.5 -113.5v-353h-127v327q0 62 -24 92.5t-75 30.5q-50 0 -79 -22t-41 -63t-12 -101v-264h-127v760h127v-179z" />
    <glyph glyph-name="i" unicode="i" horiz-adv-x="283" 
d="M205 542v-542h-127v542h127zM143 752q28 0 49 -15t21 -52q0 -36 -21 -51.5t-49 -15.5q-30 0 -50.5 15.5t-20.5 51.5q0 37 20.5 52t50.5 15z" />
    <glyph glyph-name="j" unicode="j" horiz-adv-x="283" 
d="M33 -240q-24 0 -47 3.5t-39 8.5v101q15 -4 30 -7t33 -3q28 0 48 17t20 67v595h127v-609q0 -50 -17.5 -89t-55 -61.5t-99.5 -22.5zM72 685q0 37 20.5 52t49.5 15q28 0 49.5 -15t21.5 -52q0 -36 -21.5 -51.5t-49.5 -15.5q-29 0 -49.5 15.5t-20.5 51.5z" />
    <glyph glyph-name="k" unicode="k" horiz-adv-x="582" 
d="M205 400q0 -23 -2 -54.5t-5 -56.5h4q7 10 18 25t23 31t21 26l153 171h145l-207 -231l221 -311h-149l-161 230l-61 -50v-180h-127v760h127v-360z" />
    <glyph glyph-name="l" unicode="l" horiz-adv-x="283" 
d="M205 0h-127v760h127v-760z" />
    <glyph glyph-name="m" unicode="m" horiz-adv-x="960" 
d="M699 552q92 0 139 -47t47 -152v-353h-126v328q0 63 -23 92.5t-70 29.5q-66 0 -93.5 -43.5t-27.5 -124.5v-282h-127v328q0 42 -10 68.5t-30.5 40t-51.5 13.5q-47 0 -73 -22t-37 -63t-11 -101v-264h-127v542h99l18 -71h5q16 26 40 44.5t55 27.5t66 9q62 0 102.5 -21
t62.5 -64h5q27 43 71.5 64t96.5 21z" />
    <glyph glyph-name="n" unicode="n" 
d="M369 552q92 0 143 -47t51 -152v-353h-126v327q0 62 -24.5 92.5t-75.5 30.5q-76 0 -104 -48t-28 -138v-264h-127v542h98l18 -73h6q18 28 44 46.5t57.5 27.5t67.5 9z" />
    <glyph glyph-name="o" unicode="o" horiz-adv-x="617" 
d="M567 272q0 -67 -18 -119.5t-51.5 -89t-82 -55t-108.5 -18.5q-56 0 -103 18.5t-81 55t-53.5 89t-19.5 119.5q0 91 31.5 153t89.5 94.5t139 32.5q76 0 133.5 -32.5t90.5 -94.5t33 -153zM180 272q0 -56 13.5 -97.5t42 -63.5t73.5 -22t73.5 22t41.5 63.5t13 97.5
q0 58 -13.5 98t-41.5 61.5t-74 21.5q-67 0 -97.5 -47.5t-30.5 -133.5z" />
    <glyph glyph-name="p" unicode="p" horiz-adv-x="626" 
d="M364 552q97 0 154 -70.5t57 -209.5q0 -92 -27 -155t-75 -95t-112 -32q-40 0 -70 10.5t-51 27t-35 35.5h-6q2 -18 4 -42.5t2 -47.5v-213h-127v782h103l18 -71h6q15 22 36.5 40.5t51.5 29.5t71 11zM327 450q-44 0 -70.5 -18t-38.5 -53.5t-13 -89.5v-16q0 -58 11 -98
t38.5 -60.5t74.5 -20.5q39 0 65 22t38.5 62t12.5 96q0 85 -29 130.5t-89 45.5z" />
    <glyph glyph-name="q" unicode="q" horiz-adv-x="626" 
d="M421 -11q0 19 1 41.5t4 40.5h-6q-21 -33 -59.5 -57t-100.5 -24q-93 0 -151.5 71t-58.5 209q0 93 27 155.5t75.5 94.5t110.5 32t100 -23t61 -58h4l14 71h106v-782h-127v229zM301 92q46 0 73.5 17t39.5 53t13 89v20q0 88 -27.5 134t-101.5 46q-60 0 -89 -48.5t-29 -134.5
t29.5 -131t91.5 -45z" />
    <glyph glyph-name="r" unicode="r" horiz-adv-x="434" 
d="M360 552q15 0 32.5 -1.5t28.5 -4.5l-13 -118q-12 2 -27.5 4t-33.5 2q-26 0 -51 -9t-46 -28t-33 -47.5t-12 -68.5v-281h-127v542h98l18 -94h6q16 29 40 53t54.5 37.5t65.5 13.5z" />
    <glyph glyph-name="s" unicode="s" horiz-adv-x="493" 
d="M450 156q0 -52 -25 -89t-74 -57t-122 -20q-57 0 -100 8t-80 25v108q40 -19 88.5 -31.5t89.5 -12.5q54 0 78 16t24 43q0 17 -10.5 30.5t-38 27.5t-77.5 34t-84.5 40.5t-52.5 50t-18 73.5q0 73 58 111.5t153 38.5q51 0 95.5 -10t87.5 -30l-38 -90q-37 16 -76 26.5t-72 10.5
q-42 0 -64.5 -13t-22.5 -36q0 -18 11 -30.5t39 -25.5t78 -32q49 -19 83.5 -40t52 -50.5t17.5 -75.5z" />
    <glyph glyph-name="t" unicode="t" horiz-adv-x="399" 
d="M292 92q22 0 43 4.5t38 9.5v-94q-20 -10 -49.5 -16t-64.5 -6q-47 0 -84.5 15.5t-60 53.5t-22.5 107v280h-72v56l80 44l40 115h80v-119h148v-96h-148v-274q0 -41 19.5 -60.5t52.5 -19.5z" />
    <glyph glyph-name="u" unicode="u" 
d="M560 542v-542h-99l-18 70h-6q-17 -28 -44 -45.5t-58.5 -26t-66.5 -8.5q-60 0 -104 20.5t-67 64.5t-23 113v354h127v-328q0 -60 24 -90.5t75 -30.5t80 21t41 62.5t12 101.5v264h127z" />
    <glyph glyph-name="v" unicode="v" horiz-adv-x="547" 
d="M206 0l-206 542h134l106 -320q6 -14 12 -34.5t11.5 -40t6.5 -34.5h4q2 15 7.5 34.5t12.5 39.5t11 35l108 320h134l-207 -542h-134z" />
    <glyph glyph-name="w" unicode="w" horiz-adv-x="833" 
d="M451 280q-7 27 -14 56t-12 54.5t-8 40.5h-3q-2 -15 -7.5 -41t-12.5 -55.5t-15 -57.5l-81 -276h-138l-149 542h128l63 -258q7 -27 13.5 -57.5t11.5 -59.5t6 -51h4q2 15 6 36t8.5 43.5t9.5 42.5t9 32l78 272h140l75 -273q5 -22 12 -49t12.5 -54.5t7.5 -49.5h4q2 21 7 50
t11.5 60.5t13.5 57.5l65 258h126l-150 -542h-142z" />
    <glyph glyph-name="x" unicode="x" horiz-adv-x="567" 
d="M201 277l-179 265h145l117 -184l118 184h143l-180 -265l189 -277h-144l-126 197l-127 -197h-144z" />
    <glyph glyph-name="y" unicode="y" horiz-adv-x="548" 
d="M0 542h135l108 -309q7 -19 13 -38.5t10.5 -38.5t7.5 -36h4q4 23 13.5 53.5t19.5 59.5l104 309h133l-226 -601q-22 -57 -50.5 -97.5t-69.5 -62t-101 -21.5q-25 0 -43.5 2.5t-31.5 5.5v100q11 -2 26.5 -4t32.5 -2q31 0 52.5 12.5t36.5 33.5t25 48l18 46z" />
    <glyph glyph-name="z" unicode="z" horiz-adv-x="484" 
d="M450 0h-417v77l266 368h-250v97h393v-85l-259 -359h267v-98z" />
    <glyph glyph-name="braceleft" unicode="{" horiz-adv-x="400" 
d="M368 -162q-76 1 -124.5 18t-71 53.5t-22.5 91.5v137q0 32 -15.5 52t-42.5 29t-63 9v101q36 0 63.5 9t42.5 28.5t15 51.5v139q0 54 23 90t71.5 53.5t123.5 17.5v-97q-29 0 -52.5 -7.5t-37.5 -24t-14 -46.5v-139q0 -55 -28.5 -84t-83.5 -38v-6q56 -10 84 -39t28 -83v-142
q0 -29 14 -46t37.5 -23.5t52.5 -7.5v-97z" />
    <glyph glyph-name="bar" unicode="|" horiz-adv-x="535" 
d="M220 760h95v-992h-95v992z" />
    <glyph glyph-name="braceright" unicode="}" horiz-adv-x="400" 
d="M32 -65q29 1 52.5 8t37.5 24t14 46v141q0 53 28 82t84 39v6q-55 9 -83.5 38.5t-28.5 83.5v141q0 30 -13.5 46.5t-37 23.5t-53.5 7v97q78 0 126 -17.5t70 -53.5t22 -91v-137q0 -33 15 -52.5t42.5 -28.5t63.5 -9v-101q-35 0 -62.5 -9t-43 -28.5t-15.5 -52.5v-138
q0 -55 -23 -91t-71 -53.5t-124 -17.5v97z" />
    <glyph glyph-name="asciitilde" unicode="~" horiz-adv-x="577" 
d="M271 308q-36 16 -61.5 21.5t-47.5 5.5q-28 0 -58.5 -17t-55.5 -42v100q25 26 55.5 39.5t68.5 13.5q29 0 57.5 -6t75.5 -26q37 -16 62.5 -21.5t46.5 -5.5q29 0 59.5 17t54.5 42v-99q-24 -26 -55 -40t-68 -14q-29 0 -58.5 6.5t-75.5 25.5z" />
    <glyph glyph-name="uni00A0" unicode="&#xa0;" horiz-adv-x="260" 
 />
    <glyph glyph-name="exclamdown" unicode="&#xa1;" horiz-adv-x="277" 
d="M89 318h97l25 -493h-147zM216 475q0 -43 -22.5 -60t-55.5 -17q-30 0 -53 17t-23 60q0 41 23 59t53 18q33 0 55.5 -18t22.5 -59z" />
    <glyph glyph-name="cent" unicode="&#xa2;" horiz-adv-x="577" 
d="M362 646q40 -1 77 -10.5t65 -23.5l-37 -99q-29 12 -61 20.5t-61 8.5q-44 0 -74.5 -19.5t-45.5 -59.5t-15 -100q0 -61 15.5 -99.5t45.5 -56.5t72 -18q43 0 79 10t69 27v-106q-27 -15 -58 -24t-71 -12v-94h-80v97q-62 9 -107 40.5t-70 89t-25 145.5t25.5 146t71 90.5
t105.5 42.5v83h80v-78z" />
    <glyph glyph-name="sterling" unicode="&#xa3;" horiz-adv-x="577" 
d="M341 724q54 0 101 -11.5t84 -29.5l-40 -97q-32 14 -66.5 24t-69.5 10q-44 0 -68.5 -23.5t-24.5 -79.5v-106h190v-92h-190v-82q0 -37 -10.5 -62t-27 -40t-34.5 -25h363v-110h-509v104q28 10 48.5 25.5t32 41t11.5 65.5v83h-90v92h90v114q0 66 26 110t73.5 66.5t110.5 22.5
z" />
    <glyph glyph-name="yen" unicode="&#xa5;" horiz-adv-x="577" 
d="M288 404l147 310h131l-192 -365h113v-79h-138v-72h138v-79h-138v-119h-121v119h-140v79h140v72h-140v79h111l-189 365h132z" />
    <glyph glyph-name="section" unicode="&#xa7;" horiz-adv-x="508" 
d="M61 394q0 45 24.5 75t55.5 46q-36 22 -55 50t-19 67q0 61 51.5 98t146.5 37q53 0 95.5 -10.5t79.5 -26.5l-35 -83q-34 15 -68.5 26t-75.5 11q-47 0 -67.5 -13t-20.5 -38q0 -15 10 -28.5t35 -27t69 -30.5q54 -21 90 -44t54 -51.5t18 -65.5q0 -50 -22.5 -81t-51.5 -49
q32 -19 50.5 -47t18.5 -66q0 -69 -55.5 -110t-160.5 -41q-53 0 -94.5 9.5t-75.5 27.5v91q25 -11 54.5 -21.5t60.5 -17t58 -6.5q61 0 84 18t23 44q0 17 -8.5 29.5t-32 27t-71.5 32.5q-50 20 -87.5 42t-57.5 51.5t-20 74.5zM162 406q0 -21 11.5 -38.5t38 -33t70.5 -34.5l19 -7
q17 11 32 29.5t15 46.5q0 22 -11.5 40t-40 35t-79.5 34q-21 -7 -38 -25.5t-17 -46.5z" />
    <glyph glyph-name="dieresis" unicode="&#xa8;" horiz-adv-x="588" 
d="M134 684q0 32 17.5 46t42.5 14t43.5 -14t18.5 -46q0 -30 -18.5 -44.5t-43.5 -14.5t-42.5 14.5t-17.5 44.5zM339 684q0 32 17.5 46t43.5 14q24 0 42.5 -14t18.5 -46q0 -30 -18.5 -44.5t-42.5 -14.5q-26 0 -43.5 14.5t-17.5 44.5z" />
    <glyph glyph-name="copyright" unicode="&#xa9;" horiz-adv-x="829" 
d="M424 131q-102 0 -153 62t-51 165q0 66 23 116.5t69 79t113 28.5q36 0 70.5 -9t65.5 -24l-35 -76q-25 13 -49 19.5t-48 6.5q-52 0 -80.5 -37t-28.5 -105q0 -71 26 -107t83 -36q27 0 56.5 7t56.5 19v-82q-26 -13 -53.5 -20t-64.5 -7zM414 -10q-80 0 -147 27t-116.5 76.5
t-76.5 116.5t-27 147t27 147t76.5 116.5t116.5 76.5t147 27q78 0 144.5 -27t117 -76.5t78 -116.5t27.5 -147t-27 -147t-76.5 -116.5t-116.5 -76.5t-147 -27zM414 53q63 0 117.5 22.5t95 63t63 96t22.5 122.5q0 64 -22 119.5t-61.5 96.5t-94 64.5t-120.5 23.5
q-65 0 -120 -22.5t-95 -63t-61.5 -96t-21.5 -122.5q0 -64 21.5 -119.5t61.5 -96.5t95 -64.5t120 -23.5z" />
    <glyph glyph-name="ordfeminine" unicode="&#xaa;" horiz-adv-x="372" 
d="M191 722q65 0 100.5 -30t35.5 -94v-219h-59l-16 49q-21 -26 -48.5 -40.5t-67.5 -14.5q-31 0 -55.5 11.5t-38 35t-13.5 58.5q0 38 18 61t54 34.5t90 13.5l51 2v15q0 28 -18 39t-45 11t-51.5 -7t-50.5 -19l-28 61q31 15 64.5 24t77.5 9zM196 533q-48 -2 -64.5 -16
t-16.5 -37q0 -21 12.5 -31.5t34.5 -10.5q42 0 61 22.5t19 56.5v19z" />
    <glyph glyph-name="guillemotleft" unicode="&#xab;" horiz-adv-x="574" 
d="M38 276l177 215l91 -50l-137 -171l137 -170l-91 -50l-177 213v13zM268 276l177 215l91 -50l-138 -171l138 -170l-91 -50l-177 213v13z" />
    <glyph glyph-name="registered" unicode="&#xae;" horiz-adv-x="829" 
d="M269 144v433h131q91 0 131 -33t40 -97q0 -49 -22 -76t-52 -40l108 -187h-105l-89 166h-45v-166h-97zM399 381q35 0 55 16.5t20 46.5q0 31 -18.5 44t-56.5 13h-33v-120h33zM414 -10q-80 0 -147 27t-116.5 76.5t-76.5 116.5t-27 147t27 147t76.5 116.5t116.5 76.5t147 27
q78 0 144.5 -27t117 -76.5t78 -116.5t27.5 -147t-27 -147t-76.5 -116.5t-116.5 -76.5t-147 -27zM414 53q63 0 117.5 22.5t95 63t63 96t22.5 122.5q0 64 -22 119.5t-61.5 96.5t-94 64.5t-120.5 23.5q-65 0 -120 -22.5t-95 -63t-61.5 -96t-21.5 -122.5q0 -64 21.5 -119.5
t61.5 -96.5t95 -64.5t120 -23.5z" />
    <glyph glyph-name="overscore" unicode="&#xaf;" horiz-adv-x="500" 
d="M503 760h-506v87h506v-87z" />
    <glyph glyph-name="degree" unicode="&#xb0;" horiz-adv-x="426" 
d="M213 398q-50 0 -87.5 20.5t-58.5 57t-21 84.5t21 85t58.5 58t87.5 21q49 0 87 -21t59 -58t21 -85t-21 -84.5t-59 -57t-87 -20.5zM214 478q40 0 60.5 23t20.5 59q0 38 -21 61t-61 23q-41 0 -62 -23t-21 -61q0 -36 21 -59t63 -23z" />
    <glyph glyph-name="acute" unicode="&#xb4;" horiz-adv-x="333" 
d="M293 756q-12 -14 -33 -34t-45.5 -41.5t-48 -41t-42.5 -33.5h-84v13q16 19 36 44.5t39.5 53t32.5 49.5h145v-10z" />
    <glyph glyph-name="paragraph" unicode="&#xb6;" horiz-adv-x="650" 
d="M560 -127h-71v810h-92v-810h-72v400q-15 -4 -31.5 -6.5t-35.5 -2.5q-62 0 -108 23t-71.5 77t-25.5 145q0 96 27.5 150.5t77.5 77.5t115 23h287v-887z" />
    <glyph glyph-name="periodcentered" unicode="&#xb7;" horiz-adv-x="276" 
d="M61 353q0 43 22.5 60.5t54.5 17.5t54.5 -17.5t22.5 -60.5q0 -41 -22.5 -59t-54.5 -18t-54.5 18t-22.5 59z" />
    <glyph glyph-name="cedilla" unicode="&#xb8;" horiz-adv-x="249" 
d="M232 -133q0 -50 -37 -78.5t-106 -28.5q-22 0 -41 3t-31 7v69q12 -3 27.5 -5t30.5 -2q29 0 45 9t16 29q0 23 -23 34t-61 17l38 79h72l-19 -44q22 -5 42.5 -15t33.5 -28t13 -46z" />
    <glyph glyph-name="ordmasculine" unicode="&#xba;" horiz-adv-x="382" 
d="M354 548q0 -84 -44.5 -129.5t-119.5 -45.5q-70 0 -115.5 45.5t-45.5 129.5t43.5 129t119.5 45q48 0 84 -20.5t57 -59t21 -94.5zM115 548q0 -52 18 -78.5t58 -26.5t58 26.5t18 78.5t-18 78t-58 26t-58 -26t-18 -78z" />
    <glyph glyph-name="guillemotright" unicode="&#xbb;" horiz-adv-x="574" 
d="M536 263l-177 -213l-92 50l138 170l-138 171l92 50l177 -215v-13zM306 263l-177 -213l-91 50l138 170l-138 171l91 50l177 -215v-13z" />
    <glyph glyph-name="questiondown" unicode="&#xbf;" horiz-adv-x="461" 
d="M318 286q0 -34 -7.5 -61t-26 -50.5t-52.5 -48.5q-36 -28 -55.5 -48t-27 -37.5t-7.5 -41.5q0 -38 26.5 -58.5t74.5 -20.5q45 0 85 13t79 33l45 -94q-45 -25 -99 -41t-119 -16q-101 0 -156.5 48t-55.5 128q0 43 13 74.5t39.5 58.5t64.5 56q32 25 49 42.5t23.5 35.5t6.5 41
v20h100v-33zM340 475q0 -43 -22 -60t-55 -17q-31 0 -53.5 17t-22.5 60q0 41 22.5 59t53.5 18q33 0 55 -18t22 -59z" />
    <glyph glyph-name="Agrave" unicode="&#xc0;" horiz-adv-x="672" 
d="M534 0l-67 188h-264l-66 -188h-137l262 717h147l262 -717h-137zM374 476q-4 12 -12 38.5t-15.5 55t-11.5 44.5q-5 -21 -11.5 -47.5t-13 -50t-11.5 -40.5l-62 -178h198zM335 938q13 -22 32.5 -49.5t40 -53t35.5 -44.5v-13h-85q-18 14 -42 33.5t-48 41t-45 41.5t-33 34v10
h145z" />
    <glyph glyph-name="Aacute" unicode="&#xc1;" horiz-adv-x="672" 
d="M534 0l-67 188h-264l-66 -188h-137l262 717h147l262 -717h-137zM374 476q-4 12 -12 38.5t-15.5 55t-11.5 44.5q-5 -21 -11.5 -47.5t-13 -50t-11.5 -40.5l-62 -178h198zM518 928q-12 -14 -33 -34t-45.5 -41.5t-48 -41t-42.5 -33.5h-84v13q16 19 36 44.5t39.5 53t32.5 49.5
h145v-10z" />
    <glyph glyph-name="Acircumflex" unicode="&#xc2;" horiz-adv-x="672" 
d="M534 0l-67 188h-264l-66 -188h-137l262 717h147l262 -717h-137zM374 476q-4 12 -12 38.5t-15.5 55t-11.5 44.5q-5 -21 -11.5 -47.5t-13 -50t-11.5 -40.5l-62 -178h198zM399 938q13 -22 35.5 -49.5t47 -54t42.5 -44.5v-12h-86q-26 16 -52 37t-52 47q-27 -26 -52 -46.5
t-51 -37.5h-85v12q19 19 42.5 45t45.5 53.5t36 49.5h129z" />
    <glyph glyph-name="Atilde" unicode="&#xc3;" horiz-adv-x="672" 
d="M534 0l-67 188h-264l-66 -188h-137l262 717h147l262 -717h-137zM374 476q-4 12 -12 38.5t-15.5 55t-11.5 44.5q-5 -21 -11.5 -47.5t-13 -50t-11.5 -40.5l-62 -178h198zM144 777q3 36 12 63t23.5 44.5t34.5 26.5t45 9q21 0 41.5 -8t40.5 -18.5t38.5 -18.5t36.5 -8
q17 0 29 12t18 42h65q-6 -70 -36 -106.5t-77 -36.5q-22 0 -42.5 8t-41 19t-39 18.5t-36.5 7.5t-29 -12t-18 -42h-65z" />
    <glyph glyph-name="Adieresis" unicode="&#xc4;" horiz-adv-x="672" 
d="M534 0l-67 188h-264l-66 -188h-137l262 717h147l262 -717h-137zM374 476q-4 12 -12 38.5t-15.5 55t-11.5 44.5q-5 -21 -11.5 -47.5t-13 -50t-11.5 -40.5l-62 -178h198zM172 856q0 32 17.5 46t42.5 14t43.5 -14t18.5 -46q0 -30 -18.5 -44.5t-43.5 -14.5t-42.5 14.5
t-17.5 44.5zM377 856q0 32 17.5 46t43.5 14q24 0 42.5 -14t18.5 -46q0 -30 -18.5 -44.5t-42.5 -14.5q-26 0 -43.5 14.5t-17.5 44.5z" />
    <glyph glyph-name="Aring" unicode="&#xc5;" horiz-adv-x="672" 
d="M534 0l-67 188h-264l-66 -188h-137l262 717h147l262 -717h-137zM374 476q-4 12 -12 38.5t-15.5 55t-11.5 44.5q-5 -21 -11.5 -47.5t-13 -50t-11.5 -40.5l-62 -178h198zM334 655q-53 0 -85 30t-32 83t32 82.5t85 29.5q50 0 84.5 -29.5t34.5 -81.5q0 -54 -34 -84t-85 -30z
M334 717q22 0 36 14t14 37t-14.5 36.5t-35.5 13.5q-22 0 -36.5 -13.5t-14.5 -36.5t13 -37t38 -14z" />
    <glyph glyph-name="AE" unicode="&#xc6;" horiz-adv-x="906" 
d="M850 0h-392v188h-236l-85 -188h-140l327 714h526v-108h-262v-181h244v-107h-244v-209h262v-109zM266 298h192v304h-56z" />
    <glyph glyph-name="Ccedilla" unicode="&#xc7;" 
d="M400 615q-48 0 -87 -17.5t-66 -51.5t-41.5 -82t-14.5 -108q0 -80 23.5 -138t71 -88.5t118.5 -30.5q47 0 89.5 10t84.5 24v-110q-42 -17 -87.5 -25t-103.5 -8q-111 0 -184.5 45.5t-109.5 128t-36 193.5q0 81 22.5 148t66.5 116.5t108 76t147 26.5q54 0 107.5 -11.5
t98.5 -33.5l-44 -105q-36 17 -76 29t-87 12zM481 -133q0 -50 -37 -78.5t-106 -28.5q-22 0 -41 3t-31 7v69q12 -3 27.5 -5t30.5 -2q29 0 45 9t16 29q0 23 -23 34t-61 17l38 79h72l-19 -44q22 -5 42.5 -15t33.5 -28t13 -46z" />
    <glyph glyph-name="Egrave" unicode="&#xc8;" horiz-adv-x="553" 
d="M498 0h-409v714h409v-108h-279v-181h261v-107h-261v-209h279v-109zM299 938q13 -22 32.5 -49.5t40 -53t35.5 -44.5v-13h-85q-18 14 -42 33.5t-48 41t-45 41.5t-33 34v10h145z" />
    <glyph glyph-name="Eacute" unicode="&#xc9;" horiz-adv-x="553" 
d="M498 0h-409v714h409v-108h-279v-181h261v-107h-261v-209h279v-109zM481 928q-12 -14 -33 -34t-45.5 -41.5t-48 -41t-42.5 -33.5h-84v13q16 19 36 44.5t39.5 53t32.5 49.5h145v-10z" />
    <glyph glyph-name="Ecircumflex" unicode="&#xca;" horiz-adv-x="553" 
d="M498 0h-409v714h409v-108h-279v-181h261v-107h-261v-209h279v-109zM363 938q13 -22 35.5 -49.5t47 -54t42.5 -44.5v-12h-86q-26 16 -52 37t-52 47q-27 -26 -52 -46.5t-51 -37.5h-85v12q19 19 42.5 45t45.5 53.5t36 49.5h129z" />
    <glyph glyph-name="Edieresis" unicode="&#xcb;" horiz-adv-x="553" 
d="M498 0h-409v714h409v-108h-279v-181h261v-107h-261v-209h279v-109zM136 856q0 32 17.5 46t42.5 14t43.5 -14t18.5 -46q0 -30 -18.5 -44.5t-43.5 -14.5t-42.5 14.5t-17.5 44.5zM341 856q0 32 17.5 46t43.5 14q24 0 42.5 -14t18.5 -46q0 -30 -18.5 -44.5t-42.5 -14.5
q-26 0 -43.5 14.5t-17.5 44.5z" />
    <glyph glyph-name="Igrave" unicode="&#xcc;" horiz-adv-x="377" 
d="M339 0h-301v74l86 25v516l-86 25v74h301v-74l-86 -25v-516l86 -25v-74zM189 938q13 -22 32.5 -49.5t40 -53t35.5 -44.5v-13h-85q-18 14 -42 33.5t-48 41t-45 41.5t-33 34v10h145z" />
    <glyph glyph-name="Iacute" unicode="&#xcd;" horiz-adv-x="377" 
d="M339 0h-301v74l86 25v516l-86 25v74h301v-74l-86 -25v-516l86 -25v-74zM372 928q-12 -14 -33 -34t-45.5 -41.5t-48 -41t-42.5 -33.5h-84v13q16 19 36 44.5t39.5 53t32.5 49.5h145v-10z" />
    <glyph glyph-name="Icircumflex" unicode="&#xce;" horiz-adv-x="377" 
d="M339 0h-301v74l86 25v516l-86 25v74h301v-74l-86 -25v-516l86 -25v-74zM253 938q13 -22 35.5 -49.5t47 -54t42.5 -44.5v-12h-86q-26 16 -52 37t-52 47q-27 -26 -52 -46.5t-51 -37.5h-85v12q19 19 42.5 45t45.5 53.5t36 49.5h129z" />
    <glyph glyph-name="Idieresis" unicode="&#xcf;" horiz-adv-x="377" 
d="M339 0h-301v74l86 25v516l-86 25v74h301v-74l-86 -25v-516l86 -25v-74zM26 856q0 32 17.5 46t42.5 14t43.5 -14t18.5 -46q0 -30 -18.5 -44.5t-43.5 -14.5t-42.5 14.5t-17.5 44.5zM231 856q0 32 17.5 46t43.5 14q24 0 42.5 -14t18.5 -46q0 -30 -18.5 -44.5t-42.5 -14.5
q-26 0 -43.5 14.5t-17.5 44.5z" />
    <glyph glyph-name="Eth" unicode="&#xd0;" horiz-adv-x="732" 
d="M320 714q110 0 189 -40t122 -116.5t43 -190.5q0 -121 -45 -203t-129 -123t-200 -41h-206v299h-70v108h70v307h226zM312 607h-89v-200h149v-108h-149v-191h72q124 0 184 63.5t60 191.5q0 83 -26.5 137t-76.5 80.5t-124 26.5z" />
    <glyph glyph-name="Ntilde" unicode="&#xd1;" horiz-adv-x="788" 
d="M699 0h-162l-336 559h-4q2 -23 4 -55t3.5 -66.5t1.5 -67.5v-370h-117v714h161l335 -555h3q-1 19 -2.5 50.5t-3 67t-1.5 64.5v373h118v-714zM203 777q3 36 12 63t23.5 44.5t34.5 26.5t45 9q21 0 41.5 -8t40.5 -18.5t38.5 -18.5t36.5 -8q17 0 29 12t18 42h65
q-6 -70 -36 -106.5t-77 -36.5q-22 0 -42.5 8t-41 19t-39 18.5t-36.5 7.5t-29 -12t-18 -42h-65z" />
    <glyph glyph-name="Ograve" unicode="&#xd2;" horiz-adv-x="787" 
d="M730 358q0 -83 -21 -150.5t-62.5 -116.5t-104.5 -75t-148 -26q-87 0 -150 26.5t-104.5 75t-62 116.5t-20.5 151q0 110 36.5 192.5t111.5 128t190 45.5q112 0 186.5 -45.5t111.5 -128t37 -193.5zM193 358q0 -80 21 -138t66 -89t114 -31q70 0 114 31t64.5 89t20.5 138
q0 121 -46.5 189.5t-151.5 68.5q-70 0 -115 -31t-66 -89t-21 -138zM394 938q13 -22 32.5 -49.5t40 -53t35.5 -44.5v-13h-85q-18 14 -42 33.5t-48 41t-45 41.5t-33 34v10h145z" />
    <glyph glyph-name="Oacute" unicode="&#xd3;" horiz-adv-x="787" 
d="M730 358q0 -83 -21 -150.5t-62.5 -116.5t-104.5 -75t-148 -26q-87 0 -150 26.5t-104.5 75t-62 116.5t-20.5 151q0 110 36.5 192.5t111.5 128t190 45.5q112 0 186.5 -45.5t111.5 -128t37 -193.5zM193 358q0 -80 21 -138t66 -89t114 -31q70 0 114 31t64.5 89t20.5 138
q0 121 -46.5 189.5t-151.5 68.5q-70 0 -115 -31t-66 -89t-21 -138zM577 928q-12 -14 -33 -34t-45.5 -41.5t-48 -41t-42.5 -33.5h-84v13q16 19 36 44.5t39.5 53t32.5 49.5h145v-10z" />
    <glyph glyph-name="Ocircumflex" unicode="&#xd4;" horiz-adv-x="787" 
d="M730 358q0 -83 -21 -150.5t-62.5 -116.5t-104.5 -75t-148 -26q-87 0 -150 26.5t-104.5 75t-62 116.5t-20.5 151q0 110 36.5 192.5t111.5 128t190 45.5q112 0 186.5 -45.5t111.5 -128t37 -193.5zM193 358q0 -80 21 -138t66 -89t114 -31q70 0 114 31t64.5 89t20.5 138
q0 121 -46.5 189.5t-151.5 68.5q-70 0 -115 -31t-66 -89t-21 -138zM458 938q13 -22 35.5 -49.5t47 -54t42.5 -44.5v-12h-86q-26 16 -52 37t-52 47q-27 -26 -52 -46.5t-51 -37.5h-85v12q19 19 42.5 45t45.5 53.5t36 49.5h129z" />
    <glyph glyph-name="Otilde" unicode="&#xd5;" horiz-adv-x="787" 
d="M730 358q0 -83 -21 -150.5t-62.5 -116.5t-104.5 -75t-148 -26q-87 0 -150 26.5t-104.5 75t-62 116.5t-20.5 151q0 110 36.5 192.5t111.5 128t190 45.5q112 0 186.5 -45.5t111.5 -128t37 -193.5zM193 358q0 -80 21 -138t66 -89t114 -31q70 0 114 31t64.5 89t20.5 138
q0 121 -46.5 189.5t-151.5 68.5q-70 0 -115 -31t-66 -89t-21 -138zM203 777q3 36 12 63t23.5 44.5t34.5 26.5t45 9q21 0 41.5 -8t40.5 -18.5t38.5 -18.5t36.5 -8q17 0 29 12t18 42h65q-6 -70 -36 -106.5t-77 -36.5q-22 0 -42.5 8t-41 19t-39 18.5t-36.5 7.5t-29 -12t-18 -42
h-65z" />
    <glyph glyph-name="Odieresis" unicode="&#xd6;" horiz-adv-x="787" 
d="M730 358q0 -83 -21 -150.5t-62.5 -116.5t-104.5 -75t-148 -26q-87 0 -150 26.5t-104.5 75t-62 116.5t-20.5 151q0 110 36.5 192.5t111.5 128t190 45.5q112 0 186.5 -45.5t111.5 -128t37 -193.5zM193 358q0 -80 21 -138t66 -89t114 -31q70 0 114 31t64.5 89t20.5 138
q0 121 -46.5 189.5t-151.5 68.5q-70 0 -115 -31t-66 -89t-21 -138zM231 856q0 32 17.5 46t42.5 14t43.5 -14t18.5 -46q0 -30 -18.5 -44.5t-43.5 -14.5t-42.5 14.5t-17.5 44.5zM436 856q0 32 17.5 46t43.5 14q24 0 42.5 -14t18.5 -46q0 -30 -18.5 -44.5t-42.5 -14.5
q-26 0 -43.5 14.5t-17.5 44.5z" />
    <glyph glyph-name="multiply" unicode="&#xd7;" horiz-adv-x="577" 
d="M444 575l66 -66l-157 -156l155 -156l-65 -66l-157 155l-153 -154l-66 66l154 155l-155 155l66 67l155 -156z" />
    <glyph glyph-name="Oslash" unicode="&#xd8;" horiz-adv-x="787" 
d="M730 358q0 -83 -21 -150.5t-62.5 -116.5t-104.5 -75t-148 -26q-51 0 -94.5 9.5t-77.5 27.5l-45 -66l-74 48l48 69q-48 49 -71 120t-23 161q0 110 36.5 192.5t111.5 128t190 45.5q50 0 93 -10t78 -28l43 63l73 -47l-47 -67q48 -48 71.5 -119t23.5 -159zM593 358
q0 103 -35 164l-271 -396q21 -13 48 -19.5t59 -6.5q70 0 114 31t64.5 89t20.5 138zM193 358q0 -51 8.5 -93t26.5 -74l272 398q-20 13 -47 20t-58 7q-70 0 -115 -31t-66 -89t-21 -138z" />
    <glyph glyph-name="Ugrave" unicode="&#xd9;" horiz-adv-x="741" 
d="M657 264q0 -80 -31.5 -142t-96 -97t-162.5 -35q-138 0 -210.5 73.5t-72.5 200.5v450h129v-446q0 -83 39.5 -125.5t119.5 -42.5q55 0 89.5 20t50.5 58t16 91v445h129v-450zM371 938q13 -22 32.5 -49.5t40 -53t35.5 -44.5v-13h-85q-18 14 -42 33.5t-48 41t-45 41.5t-33 34
v10h145z" />
    <glyph glyph-name="Uacute" unicode="&#xda;" horiz-adv-x="741" 
d="M657 264q0 -80 -31.5 -142t-96 -97t-162.5 -35q-138 0 -210.5 73.5t-72.5 200.5v450h129v-446q0 -83 39.5 -125.5t119.5 -42.5q55 0 89.5 20t50.5 58t16 91v445h129v-450zM553 928q-12 -14 -33 -34t-45.5 -41.5t-48 -41t-42.5 -33.5h-84v13q16 19 36 44.5t39.5 53
t32.5 49.5h145v-10z" />
    <glyph glyph-name="Ucircumflex" unicode="&#xdb;" horiz-adv-x="741" 
d="M657 264q0 -80 -31.5 -142t-96 -97t-162.5 -35q-138 0 -210.5 73.5t-72.5 200.5v450h129v-446q0 -83 39.5 -125.5t119.5 -42.5q55 0 89.5 20t50.5 58t16 91v445h129v-450zM435 938q13 -22 35.5 -49.5t47 -54t42.5 -44.5v-12h-86q-26 16 -52 37t-52 47q-27 -26 -52 -46.5
t-51 -37.5h-85v12q19 19 42.5 45t45.5 53.5t36 49.5h129z" />
    <glyph glyph-name="Udieresis" unicode="&#xdc;" horiz-adv-x="741" 
d="M657 264q0 -80 -31.5 -142t-96 -97t-162.5 -35q-138 0 -210.5 73.5t-72.5 200.5v450h129v-446q0 -83 39.5 -125.5t119.5 -42.5q55 0 89.5 20t50.5 58t16 91v445h129v-450zM208 856q0 32 17.5 46t42.5 14t43.5 -14t18.5 -46q0 -30 -18.5 -44.5t-43.5 -14.5t-42.5 14.5
t-17.5 44.5zM413 856q0 32 17.5 46t43.5 14q24 0 42.5 -14t18.5 -46q0 -30 -18.5 -44.5t-42.5 -14.5q-26 0 -43.5 14.5t-17.5 44.5z" />
    <glyph glyph-name="Yacute" unicode="&#xdd;" horiz-adv-x="603" 
d="M302 396l162 318h139l-237 -436v-278h-129v273l-237 441h141zM484 928q-12 -14 -33 -34t-45.5 -41.5t-48 -41t-42.5 -33.5h-84v13q16 19 36 44.5t39.5 53t32.5 49.5h145v-10z" />
    <glyph glyph-name="Thorn" unicode="&#xde;" horiz-adv-x="613" 
d="M570 382q0 -46 -14 -88.5t-46.5 -75.5t-86.5 -52t-134 -19h-70v-147h-130v714h130v-116h80q141 0 206 -56.5t65 -159.5zM276 253q53 0 89 13t54.5 41t18.5 72q0 56 -34.5 84t-110.5 28h-74v-238h57z" />
    <glyph glyph-name="germandbls" unicode="&#xdf;" horiz-adv-x="676" 
d="M572 603q0 -34 -13.5 -59.5t-34 -45t-41 -35t-34 -29.5t-13.5 -28q0 -13 8 -23.5t28.5 -24t56.5 -36.5q34 -23 58.5 -46t37 -51.5t12.5 -67.5q0 -57 -24 -94t-69 -55t-106 -18q-55 0 -92.5 8t-66.5 24v103q17 -10 40.5 -19.5t49.5 -15.5t50 -6q45 0 67 18.5t22 50.5
q0 20 -7 35t-27.5 31t-57.5 38q-42 25 -65.5 45.5t-33.5 42.5t-10 48q0 31 13.5 52.5t34 38t41 32t34 33.5t13.5 44q0 35 -31.5 53t-83.5 18q-35 0 -63 -10.5t-44 -33t-16 -61.5v-559h-127v566q0 70 32.5 113.5t89.5 64.5t128 21q73 0 128 -18t85.5 -53.5t30.5 -90.5z" />
    <glyph glyph-name="agrave" unicode="&#xe0;" horiz-adv-x="585" 
d="M306 552q101 0 152.5 -46.5t51.5 -141.5v-364h-90l-24 75h-4q-23 -29 -47.5 -48t-56.5 -28t-77 -9q-48 0 -86.5 18t-60.5 55t-22 94q0 83 62.5 126.5t188.5 47.5l91 3v23q0 55 -25 77.5t-69 22.5q-39 0 -77.5 -12.5t-74.5 -28.5l-38 88q40 22 93 35t113 13zM318 254
q-82 -4 -114 -27.5t-32 -66.5q0 -38 23 -56.5t59 -18.5q55 0 92.5 32t37.5 93v46zM293 766q13 -22 32.5 -49.5t40 -53t35.5 -44.5v-13h-85q-18 14 -42 33.5t-48 41t-45 41.5t-33 34v10h145z" />
    <glyph glyph-name="aacute" unicode="&#xe1;" horiz-adv-x="585" 
d="M306 552q101 0 152.5 -46.5t51.5 -141.5v-364h-90l-24 75h-4q-23 -29 -47.5 -48t-56.5 -28t-77 -9q-48 0 -86.5 18t-60.5 55t-22 94q0 83 62.5 126.5t188.5 47.5l91 3v23q0 55 -25 77.5t-69 22.5q-39 0 -77.5 -12.5t-74.5 -28.5l-38 88q40 22 93 35t113 13zM318 254
q-82 -4 -114 -27.5t-32 -66.5q0 -38 23 -56.5t59 -18.5q55 0 92.5 32t37.5 93v46zM475 756q-12 -14 -33 -34t-45.5 -41.5t-48 -41t-42.5 -33.5h-84v13q16 19 36 44.5t39.5 53t32.5 49.5h145v-10z" />
    <glyph glyph-name="acircumflex" unicode="&#xe2;" horiz-adv-x="585" 
d="M306 552q101 0 152.5 -46.5t51.5 -141.5v-364h-90l-24 75h-4q-23 -29 -47.5 -48t-56.5 -28t-77 -9q-48 0 -86.5 18t-60.5 55t-22 94q0 83 62.5 126.5t188.5 47.5l91 3v23q0 55 -25 77.5t-69 22.5q-39 0 -77.5 -12.5t-74.5 -28.5l-38 88q40 22 93 35t113 13zM318 254
q-82 -4 -114 -27.5t-32 -66.5q0 -38 23 -56.5t59 -18.5q55 0 92.5 32t37.5 93v46zM357 766q13 -22 35.5 -49.5t47 -54t42.5 -44.5v-12h-86q-26 16 -52 37t-52 47q-27 -26 -52 -46.5t-51 -37.5h-85v12q19 19 42.5 45t45.5 53.5t36 49.5h129z" />
    <glyph glyph-name="atilde" unicode="&#xe3;" horiz-adv-x="585" 
d="M306 552q101 0 152.5 -46.5t51.5 -141.5v-364h-90l-24 75h-4q-23 -29 -47.5 -48t-56.5 -28t-77 -9q-48 0 -86.5 18t-60.5 55t-22 94q0 83 62.5 126.5t188.5 47.5l91 3v23q0 55 -25 77.5t-69 22.5q-39 0 -77.5 -12.5t-74.5 -28.5l-38 88q40 22 93 35t113 13zM318 254
q-82 -4 -114 -27.5t-32 -66.5q0 -38 23 -56.5t59 -18.5q55 0 92.5 32t37.5 93v46zM101 605q3 36 12 63t23.5 44.5t34.5 26.5t45 9q21 0 41.5 -8t40.5 -18.5t38.5 -18.5t36.5 -8q17 0 29 12t18 42h65q-6 -70 -36 -106.5t-77 -36.5q-22 0 -42.5 8t-41 19t-39 18.5t-36.5 7.5
t-29 -12t-18 -42h-65z" />
    <glyph glyph-name="adieresis" unicode="&#xe4;" horiz-adv-x="585" 
d="M306 552q101 0 152.5 -46.5t51.5 -141.5v-364h-90l-24 75h-4q-23 -29 -47.5 -48t-56.5 -28t-77 -9q-48 0 -86.5 18t-60.5 55t-22 94q0 83 62.5 126.5t188.5 47.5l91 3v23q0 55 -25 77.5t-69 22.5q-39 0 -77.5 -12.5t-74.5 -28.5l-38 88q40 22 93 35t113 13zM318 254
q-82 -4 -114 -27.5t-32 -66.5q0 -38 23 -56.5t59 -18.5q55 0 92.5 32t37.5 93v46zM130 684q0 32 17.5 46t42.5 14t43.5 -14t18.5 -46q0 -30 -18.5 -44.5t-43.5 -14.5t-42.5 14.5t-17.5 44.5zM335 684q0 32 17.5 46t43.5 14q24 0 42.5 -14t18.5 -46q0 -30 -18.5 -44.5
t-42.5 -14.5q-26 0 -43.5 14.5t-17.5 44.5z" />
    <glyph glyph-name="aring" unicode="&#xe5;" horiz-adv-x="585" 
d="M306 552q101 0 152.5 -46.5t51.5 -141.5v-364h-90l-24 75h-4q-23 -29 -47.5 -48t-56.5 -28t-77 -9q-48 0 -86.5 18t-60.5 55t-22 94q0 83 62.5 126.5t188.5 47.5l91 3v23q0 55 -25 77.5t-69 22.5q-39 0 -77.5 -12.5t-74.5 -28.5l-38 88q40 22 93 35t113 13zM318 254
q-82 -4 -114 -27.5t-32 -66.5q0 -38 23 -56.5t59 -18.5q55 0 92.5 32t37.5 93v46zM292 605q-53 0 -85 30t-32 83t32 82.5t85 29.5q50 0 84.5 -29.5t34.5 -81.5q0 -54 -34 -84t-85 -30zM292 667q22 0 36 14t14 37t-14.5 36.5t-35.5 13.5q-22 0 -36.5 -13.5t-14.5 -36.5
t13 -37t38 -14z" />
    <glyph glyph-name="ae" unicode="&#xe6;" horiz-adv-x="891" 
d="M622 552q67 0 116.5 -29t77 -84t27.5 -132v-65h-341q2 -75 38.5 -114.5t105.5 -39.5q45 0 86.5 9.5t82.5 29.5v-100q-40 -19 -81 -28t-99 -9q-45 0 -83.5 11.5t-69.5 35t-53 58.5q-27 -34 -56 -57.5t-66 -35.5t-93 -12q-47 0 -86 18t-62.5 55.5t-23.5 94.5t28 94.5
t82.5 57t133.5 21.5l89 3v25q0 55 -26.5 76.5t-67.5 21.5q-37 0 -76.5 -11.5t-74.5 -29.5l-37 89q39 22 91.5 34.5t106.5 12.5q56 0 97 -17t67 -54q29 35 70.5 53t96.5 18zM313 254q-80 -3 -110 -27.5t-30 -68.5q0 -38 21.5 -55.5t56.5 -17.5t63 14t44.5 42t16.5 69v46z
M617 458q-49 0 -78.5 -31.5t-34.5 -96.5h217q0 38 -11.5 67t-34 45t-58.5 16z" />
    <glyph glyph-name="ccedilla" unicode="&#xe7;" horiz-adv-x="502" 
d="M307 -10q-76 0 -134 29.5t-90.5 91t-32.5 157.5q0 100 35 162.5t95 92t136 29.5q45 0 86 -9t70 -24l-38 -99q-27 11 -58 19.5t-61 8.5q-44 0 -74.5 -20t-45.5 -59.5t-15 -99.5q0 -57 15.5 -96t45 -58.5t71.5 -19.5q43 0 79.5 10.5t68.5 27.5v-106q-30 -17 -66.5 -27
t-86.5 -10zM400 -133q0 -50 -37 -78.5t-106 -28.5q-22 0 -41 3t-31 7v69q12 -3 27.5 -5t30.5 -2q29 0 45 9t16 29q0 23 -23 34t-61 17l38 79h72l-19 -44q22 -5 42.5 -15t33.5 -28t13 -46z" />
    <glyph glyph-name="egrave" unicode="&#xe8;" horiz-adv-x="585" 
d="M301 552q73 0 126 -29t81.5 -84t28.5 -133v-65h-357q2 -73 41 -113t111 -40q51 0 92 10t84 29v-100q-40 -19 -83 -28t-104 -9q-79 0 -140.5 30.5t-96 92.5t-34.5 154q0 93 31.5 156.5t88 96t131.5 32.5zM303 458q-52 0 -83.5 -33t-36.5 -95h231q0 38 -12 66.5t-36.5 45
t-62.5 16.5zM294 766q13 -22 32.5 -49.5t40 -53t35.5 -44.5v-13h-85q-18 14 -42 33.5t-48 41t-45 41.5t-33 34v10h145z" />
    <glyph glyph-name="eacute" unicode="&#xe9;" horiz-adv-x="585" 
d="M301 552q73 0 126 -29t81.5 -84t28.5 -133v-65h-357q2 -73 41 -113t111 -40q51 0 92 10t84 29v-100q-40 -19 -83 -28t-104 -9q-79 0 -140.5 30.5t-96 92.5t-34.5 154q0 93 31.5 156.5t88 96t131.5 32.5zM303 458q-52 0 -83.5 -33t-36.5 -95h231q0 38 -12 66.5t-36.5 45
t-62.5 16.5zM477 756q-12 -14 -33 -34t-45.5 -41.5t-48 -41t-42.5 -33.5h-84v13q16 19 36 44.5t39.5 53t32.5 49.5h145v-10z" />
    <glyph glyph-name="ecircumflex" unicode="&#xea;" horiz-adv-x="585" 
d="M301 552q73 0 126 -29t81.5 -84t28.5 -133v-65h-357q2 -73 41 -113t111 -40q51 0 92 10t84 29v-100q-40 -19 -83 -28t-104 -9q-79 0 -140.5 30.5t-96 92.5t-34.5 154q0 93 31.5 156.5t88 96t131.5 32.5zM303 458q-52 0 -83.5 -33t-36.5 -95h231q0 38 -12 66.5t-36.5 45
t-62.5 16.5zM358 766q13 -22 35.5 -49.5t47 -54t42.5 -44.5v-12h-86q-26 16 -52 37t-52 47q-27 -26 -52 -46.5t-51 -37.5h-85v12q19 19 42.5 45t45.5 53.5t36 49.5h129z" />
    <glyph glyph-name="edieresis" unicode="&#xeb;" horiz-adv-x="585" 
d="M301 552q73 0 126 -29t81.5 -84t28.5 -133v-65h-357q2 -73 41 -113t111 -40q51 0 92 10t84 29v-100q-40 -19 -83 -28t-104 -9q-79 0 -140.5 30.5t-96 92.5t-34.5 154q0 93 31.5 156.5t88 96t131.5 32.5zM303 458q-52 0 -83.5 -33t-36.5 -95h231q0 38 -12 66.5t-36.5 45
t-62.5 16.5zM131 684q0 32 17.5 46t42.5 14t43.5 -14t18.5 -46q0 -30 -18.5 -44.5t-43.5 -14.5t-42.5 14.5t-17.5 44.5zM336 684q0 32 17.5 46t43.5 14q24 0 42.5 -14t18.5 -46q0 -30 -18.5 -44.5t-42.5 -14.5q-26 0 -43.5 14.5t-17.5 44.5z" />
    <glyph glyph-name="igrave" unicode="&#xec;" horiz-adv-x="283" 
d="M205 0h-127v542h127v-542zM142 766q13 -22 32.5 -49.5t40 -53t35.5 -44.5v-13h-85q-18 14 -42 33.5t-48 41t-45 41.5t-33 34v10h145z" />
    <glyph glyph-name="iacute" unicode="&#xed;" horiz-adv-x="283" 
d="M205 0h-127v542h127v-542zM324 756q-12 -14 -33 -34t-45.5 -41.5t-48 -41t-42.5 -33.5h-84v13q16 19 36 44.5t39.5 53t32.5 49.5h145v-10z" />
    <glyph glyph-name="icircumflex" unicode="&#xee;" horiz-adv-x="283" 
d="M205 0h-127v542h127v-542zM206 766q13 -22 35.5 -49.5t47 -54t42.5 -44.5v-12h-86q-26 16 -52 37t-52 47q-27 -26 -52 -46.5t-51 -37.5h-85v12q19 19 42.5 45t45.5 53.5t36 49.5h129z" />
    <glyph glyph-name="idieresis" unicode="&#xef;" horiz-adv-x="283" 
d="M205 0h-127v542h127v-542zM-21 684q0 32 17.5 46t42.5 14t43.5 -14t18.5 -46q0 -30 -18.5 -44.5t-43.5 -14.5t-42.5 14.5t-17.5 44.5zM184 684q0 32 17.5 46t43.5 14q24 0 42.5 -14t18.5 -46q0 -30 -18.5 -44.5t-42.5 -14.5q-26 0 -43.5 14.5t-17.5 44.5z" />
    <glyph glyph-name="eth" unicode="&#xf0;" horiz-adv-x="619" 
d="M223 766q35 -15 67 -32.5t60 -37.5l110 67l45 -67l-88 -53q46 -44 79.5 -98t52 -120.5t18.5 -146.5q0 -93 -31.5 -157.5t-89.5 -97.5t-139 -33q-75 0 -133 29.5t-91 84.5t-33 133t30 132.5t82.5 83t122.5 28.5q34 0 61.5 -5t47.5 -16.5t33 -29.5l4 2q-15 45 -41.5 84.5
t-61.5 72.5l-115 -69l-45 68l96 57q-19 13 -40.5 25.5t-43.5 24.5zM309 385q-46 0 -74.5 -17t-41.5 -50t-13 -83q0 -43 13 -77t42 -53t74 -19q68 0 98.5 43.5t30.5 127.5q0 25 -8 48.5t-24 41t-40 28t-57 10.5z" />
    <glyph glyph-name="ntilde" unicode="&#xf1;" 
d="M369 552q92 0 143 -47t51 -152v-353h-126v327q0 62 -24.5 92.5t-75.5 30.5q-76 0 -104 -48t-28 -138v-264h-127v542h98l18 -73h6q18 28 44 46.5t57.5 27.5t67.5 9zM128 605q3 36 12 63t23.5 44.5t34.5 26.5t45 9q21 0 41.5 -8t40.5 -18.5t38.5 -18.5t36.5 -8q17 0 29 12
t18 42h65q-6 -70 -36 -106.5t-77 -36.5q-22 0 -42.5 8t-41 19t-39 18.5t-36.5 7.5t-29 -12t-18 -42h-65z" />
    <glyph glyph-name="ograve" unicode="&#xf2;" horiz-adv-x="617" 
d="M567 272q0 -67 -18 -119.5t-51.5 -89t-82 -55t-108.5 -18.5q-56 0 -103 18.5t-81 55t-53.5 89t-19.5 119.5q0 91 31.5 153t89.5 94.5t139 32.5q76 0 133.5 -32.5t90.5 -94.5t33 -153zM180 272q0 -56 13.5 -97.5t42 -63.5t73.5 -22t73.5 22t41.5 63.5t13 97.5
q0 58 -13.5 98t-41.5 61.5t-74 21.5q-67 0 -97.5 -47.5t-30.5 -133.5zM309 766q13 -22 32.5 -49.5t40 -53t35.5 -44.5v-13h-85q-18 14 -42 33.5t-48 41t-45 41.5t-33 34v10h145z" />
    <glyph glyph-name="oacute" unicode="&#xf3;" horiz-adv-x="617" 
d="M567 272q0 -67 -18 -119.5t-51.5 -89t-82 -55t-108.5 -18.5q-56 0 -103 18.5t-81 55t-53.5 89t-19.5 119.5q0 91 31.5 153t89.5 94.5t139 32.5q76 0 133.5 -32.5t90.5 -94.5t33 -153zM180 272q0 -56 13.5 -97.5t42 -63.5t73.5 -22t73.5 22t41.5 63.5t13 97.5
q0 58 -13.5 98t-41.5 61.5t-74 21.5q-67 0 -97.5 -47.5t-30.5 -133.5zM492 756q-12 -14 -33 -34t-45.5 -41.5t-48 -41t-42.5 -33.5h-84v13q16 19 36 44.5t39.5 53t32.5 49.5h145v-10z" />
    <glyph glyph-name="ocircumflex" unicode="&#xf4;" horiz-adv-x="617" 
d="M567 272q0 -67 -18 -119.5t-51.5 -89t-82 -55t-108.5 -18.5q-56 0 -103 18.5t-81 55t-53.5 89t-19.5 119.5q0 91 31.5 153t89.5 94.5t139 32.5q76 0 133.5 -32.5t90.5 -94.5t33 -153zM180 272q0 -56 13.5 -97.5t42 -63.5t73.5 -22t73.5 22t41.5 63.5t13 97.5
q0 58 -13.5 98t-41.5 61.5t-74 21.5q-67 0 -97.5 -47.5t-30.5 -133.5zM373 766q13 -22 35.5 -49.5t47 -54t42.5 -44.5v-12h-86q-26 16 -52 37t-52 47q-27 -26 -52 -46.5t-51 -37.5h-85v12q19 19 42.5 45t45.5 53.5t36 49.5h129z" />
    <glyph glyph-name="otilde" unicode="&#xf5;" horiz-adv-x="617" 
d="M567 272q0 -67 -18 -119.5t-51.5 -89t-82 -55t-108.5 -18.5q-56 0 -103 18.5t-81 55t-53.5 89t-19.5 119.5q0 91 31.5 153t89.5 94.5t139 32.5q76 0 133.5 -32.5t90.5 -94.5t33 -153zM180 272q0 -56 13.5 -97.5t42 -63.5t73.5 -22t73.5 22t41.5 63.5t13 97.5
q0 58 -13.5 98t-41.5 61.5t-74 21.5q-67 0 -97.5 -47.5t-30.5 -133.5zM118 605q3 36 12 63t23.5 44.5t34.5 26.5t45 9q21 0 41.5 -8t40.5 -18.5t38.5 -18.5t36.5 -8q17 0 29 12t18 42h65q-6 -70 -36 -106.5t-77 -36.5q-22 0 -42.5 8t-41 19t-39 18.5t-36.5 7.5t-29 -12
t-18 -42h-65z" />
    <glyph glyph-name="odieresis" unicode="&#xf6;" horiz-adv-x="617" 
d="M567 272q0 -67 -18 -119.5t-51.5 -89t-82 -55t-108.5 -18.5q-56 0 -103 18.5t-81 55t-53.5 89t-19.5 119.5q0 91 31.5 153t89.5 94.5t139 32.5q76 0 133.5 -32.5t90.5 -94.5t33 -153zM180 272q0 -56 13.5 -97.5t42 -63.5t73.5 -22t73.5 22t41.5 63.5t13 97.5
q0 58 -13.5 98t-41.5 61.5t-74 21.5q-67 0 -97.5 -47.5t-30.5 -133.5zM146 684q0 32 17.5 46t42.5 14t43.5 -14t18.5 -46q0 -30 -18.5 -44.5t-43.5 -14.5t-42.5 14.5t-17.5 44.5zM351 684q0 32 17.5 46t43.5 14q24 0 42.5 -14t18.5 -46q0 -30 -18.5 -44.5t-42.5 -14.5
q-26 0 -43.5 14.5t-17.5 44.5z" />
    <glyph glyph-name="divide" unicode="&#xf7;" horiz-adv-x="577" 
d="M48 306v93h480v-93h-480zM287 105q-25 0 -44 16.5t-19 53.5q0 38 19 53t45 15q25 0 44 -15t19 -53q0 -37 -19 -53.5t-45 -16.5zM287 461q-25 0 -44 16.5t-19 53.5q0 39 19 53.5t45 14.5q25 0 44 -14.5t19 -53.5q0 -37 -19 -53.5t-45 -16.5z" />
    <glyph glyph-name="oslash" unicode="&#xf8;" horiz-adv-x="628" 
d="M578 272q0 -90 -32 -153t-91.5 -96t-142.5 -33q-34 0 -64.5 7t-57.5 20l-41 -59l-67 44l43 61q-36 36 -55.5 89t-19.5 120q0 135 71 207.5t194 72.5q35 0 66.5 -7.5t58.5 -21.5l37 55l68 -43l-40 -58q34 -36 53.5 -87.5t19.5 -117.5zM176 272q0 -31 4 -58t13 -48l190 273
q-14 8 -31.5 12.5t-38.5 4.5q-73 0 -105 -48t-32 -136zM452 272q0 30 -4 55.5t-12 45.5l-189 -272q14 -7 31 -11.5t36 -4.5q49 0 79.5 22.5t44.5 64.5t14 100z" />
    <glyph glyph-name="ugrave" unicode="&#xf9;" 
d="M560 542v-542h-99l-18 70h-6q-17 -28 -44 -45.5t-58.5 -26t-66.5 -8.5q-60 0 -104 20.5t-67 64.5t-23 113v354h127v-328q0 -60 24 -90.5t75 -30.5t80 21t41 62.5t12 101.5v264h127zM319 766q13 -22 32.5 -49.5t40 -53t35.5 -44.5v-13h-85q-18 14 -42 33.5t-48 41
t-45 41.5t-33 34v10h145z" />
    <glyph glyph-name="uacute" unicode="&#xfa;" 
d="M560 542v-542h-99l-18 70h-6q-17 -28 -44 -45.5t-58.5 -26t-66.5 -8.5q-60 0 -104 20.5t-67 64.5t-23 113v354h127v-328q0 -60 24 -90.5t75 -30.5t80 21t41 62.5t12 101.5v264h127zM501 756q-12 -14 -33 -34t-45.5 -41.5t-48 -41t-42.5 -33.5h-84v13q16 19 36 44.5
t39.5 53t32.5 49.5h145v-10z" />
    <glyph glyph-name="ucircumflex" unicode="&#xfb;" 
d="M560 542v-542h-99l-18 70h-6q-17 -28 -44 -45.5t-58.5 -26t-66.5 -8.5q-60 0 -104 20.5t-67 64.5t-23 113v354h127v-328q0 -60 24 -90.5t75 -30.5t80 21t41 62.5t12 101.5v264h127zM383 766q13 -22 35.5 -49.5t47 -54t42.5 -44.5v-12h-86q-26 16 -52 37t-52 47
q-27 -26 -52 -46.5t-51 -37.5h-85v12q19 19 42.5 45t45.5 53.5t36 49.5h129z" />
    <glyph glyph-name="udieresis" unicode="&#xfc;" 
d="M560 542v-542h-99l-18 70h-6q-17 -28 -44 -45.5t-58.5 -26t-66.5 -8.5q-60 0 -104 20.5t-67 64.5t-23 113v354h127v-328q0 -60 24 -90.5t75 -30.5t80 21t41 62.5t12 101.5v264h127zM156 684q0 32 17.5 46t42.5 14t43.5 -14t18.5 -46q0 -30 -18.5 -44.5t-43.5 -14.5
t-42.5 14.5t-17.5 44.5zM361 684q0 32 17.5 46t43.5 14q24 0 42.5 -14t18.5 -46q0 -30 -18.5 -44.5t-42.5 -14.5q-26 0 -43.5 14.5t-17.5 44.5z" />
    <glyph glyph-name="yacute" unicode="&#xfd;" horiz-adv-x="548" 
d="M0 542h135l108 -309q7 -19 13 -38.5t10.5 -38.5t7.5 -36h4q4 23 13.5 53.5t19.5 59.5l104 309h133l-226 -601q-22 -57 -50.5 -97.5t-69.5 -62t-101 -21.5q-25 0 -43.5 2.5t-31.5 5.5v100q11 -2 26.5 -4t32.5 -2q31 0 52.5 12.5t36.5 33.5t25 48l18 46zM457 756
q-12 -14 -33 -34t-45.5 -41.5t-48 -41t-42.5 -33.5h-84v13q16 19 36 44.5t39.5 53t32.5 49.5h145v-10z" />
    <glyph glyph-name="thorn" unicode="&#xfe;" horiz-adv-x="626" 
d="M575 272q0 -92 -27 -155t-75 -95t-111 -32q-39 0 -68.5 10t-51.5 26.5t-37 35.5h-6q1 -8 2.5 -23t2.5 -30.5t1 -26.5v-222h-127v1000h127v-203q0 -24 -2 -48t-3 -38h6q14 23 36 41t52 29t70 11q94 0 152.5 -70.5t58.5 -209.5zM445 274q0 87 -28 131.5t-89 44.5
q-66 0 -93.5 -40t-29.5 -120v-17q0 -87 27 -133t98 -46q40 0 65.5 20.5t37.5 61t12 98.5z" />
    <glyph glyph-name="ydieresis" unicode="&#xff;" horiz-adv-x="548" 
d="M0 542h135l108 -309q7 -19 13 -38.5t10.5 -38.5t7.5 -36h4q4 23 13.5 53.5t19.5 59.5l104 309h133l-226 -601q-22 -57 -50.5 -97.5t-69.5 -62t-101 -21.5q-25 0 -43.5 2.5t-31.5 5.5v100q11 -2 26.5 -4t32.5 -2q31 0 52.5 12.5t36.5 33.5t25 48l18 46zM111 684
q0 32 17.5 46t42.5 14t43.5 -14t18.5 -46q0 -30 -18.5 -44.5t-43.5 -14.5t-42.5 14.5t-17.5 44.5zM316 684q0 32 17.5 46t43.5 14q24 0 42.5 -14t18.5 -46q0 -30 -18.5 -44.5t-42.5 -14.5q-26 0 -43.5 14.5t-17.5 44.5z" />
    <glyph glyph-name="Amacron" unicode="&#x100;" horiz-adv-x="672" 
d="M534 0l-67 188h-264l-66 -188h-137l262 717h147l262 -717h-137zM374 476q-4 12 -12 38.5t-15.5 55t-11.5 44.5q-5 -21 -11.5 -47.5t-13 -50t-11.5 -40.5l-62 -178h198zM494 866v-88h-319v88h319z" />
    <glyph glyph-name="amacron" unicode="&#x101;" horiz-adv-x="585" 
d="M306 552q101 0 152.5 -46.5t51.5 -141.5v-364h-90l-24 75h-4q-23 -29 -47.5 -48t-56.5 -28t-77 -9q-48 0 -86.5 18t-60.5 55t-22 94q0 83 62.5 126.5t188.5 47.5l91 3v23q0 55 -25 77.5t-69 22.5q-39 0 -77.5 -12.5t-74.5 -28.5l-38 88q40 22 93 35t113 13zM318 254
q-82 -4 -114 -27.5t-32 -66.5q0 -38 23 -56.5t59 -18.5q55 0 92.5 32t37.5 93v46zM452 694v-88h-319v88h319z" />
    <glyph glyph-name="Abreve" unicode="&#x102;" horiz-adv-x="672" 
d="M534 0l-67 188h-264l-66 -188h-137l262 717h147l262 -717h-137zM374 476q-4 12 -12 38.5t-15.5 55t-11.5 44.5q-5 -21 -11.5 -47.5t-13 -50t-11.5 -40.5l-62 -178h198zM506 930q-3 -45 -24.5 -79.5t-59 -53.5t-90.5 -19q-82 0 -123.5 41t-45.5 111h73q7 -42 30 -53
t68 -11q36 0 63 12.5t34 51.5h75z" />
    <glyph glyph-name="abreve" unicode="&#x103;" horiz-adv-x="585" 
d="M306 552q101 0 152.5 -46.5t51.5 -141.5v-364h-90l-24 75h-4q-23 -29 -47.5 -48t-56.5 -28t-77 -9q-48 0 -86.5 18t-60.5 55t-22 94q0 83 62.5 126.5t188.5 47.5l91 3v23q0 55 -25 77.5t-69 22.5q-39 0 -77.5 -12.5t-74.5 -28.5l-38 88q40 22 93 35t113 13zM318 254
q-82 -4 -114 -27.5t-32 -66.5q0 -38 23 -56.5t59 -18.5q55 0 92.5 32t37.5 93v46zM464 758q-3 -45 -24.5 -79.5t-59 -53.5t-90.5 -19q-82 0 -123.5 41t-45.5 111h73q7 -42 30 -53t68 -11q36 0 63 12.5t34 51.5h75z" />
    <glyph glyph-name="Aogonek" unicode="&#x104;" horiz-adv-x="672" 
d="M534 0l-67 188h-264l-66 -188h-137l262 717h147l262 -717h-137zM374 476q-4 12 -12 38.5t-15.5 55t-11.5 44.5q-5 -21 -11.5 -47.5t-13 -50t-11.5 -40.5l-62 -178h198zM571 -109q0 -20 11.5 -30t30.5 -10q16 0 29.5 3l22.5 5v-76q-15 -4 -31.5 -7.5t-39.5 -3.5
q-54 0 -84.5 27.5t-30.5 74.5q0 26 13 52t35.5 49.5t51.5 43.5l59 -19q-34 -32 -50.5 -56.5t-16.5 -52.5z" />
    <glyph glyph-name="aogonek" unicode="&#x105;" horiz-adv-x="585" 
d="M306 552q101 0 152.5 -46.5t51.5 -141.5v-364h-90l-24 75h-4q-23 -29 -47.5 -48t-56.5 -28t-77 -9q-48 0 -86.5 18t-60.5 55t-22 94q0 83 62.5 126.5t188.5 47.5l91 3v23q0 55 -25 77.5t-69 22.5q-39 0 -77.5 -12.5t-74.5 -28.5l-38 88q40 22 93 35t113 13zM318 254
q-82 -4 -114 -27.5t-32 -66.5q0 -38 23 -56.5t59 -18.5q55 0 92.5 32t37.5 93v46zM433 -109q0 -20 11.5 -30t30.5 -10q16 0 29.5 3l22.5 5v-76q-15 -4 -31.5 -7.5t-39.5 -3.5q-54 0 -84.5 27.5t-30.5 74.5q0 26 13 52t35.5 49.5t51.5 43.5l59 -19q-34 -32 -50.5 -56.5
t-16.5 -52.5z" />
    <glyph glyph-name="Cacute" unicode="&#x106;" 
d="M400 615q-48 0 -87 -17.5t-66 -51.5t-41.5 -82t-14.5 -108q0 -80 23.5 -138t71 -88.5t118.5 -30.5q47 0 89.5 10t84.5 24v-110q-42 -17 -87.5 -25t-103.5 -8q-111 0 -184.5 45.5t-109.5 128t-36 193.5q0 81 22.5 148t66.5 116.5t108 76t147 26.5q54 0 107.5 -11.5
t98.5 -33.5l-44 -105q-36 17 -76 29t-87 12zM557 928q-12 -14 -33 -34t-45.5 -41.5t-48 -41t-42.5 -33.5h-84v13q16 19 36 44.5t39.5 53t32.5 49.5h145v-10z" />
    <glyph glyph-name="cacute" unicode="&#x107;" horiz-adv-x="502" 
d="M307 -10q-76 0 -134 29.5t-90.5 91t-32.5 157.5q0 100 35 162.5t95 92t136 29.5q45 0 86 -9t70 -24l-38 -99q-27 11 -58 19.5t-61 8.5q-44 0 -74.5 -20t-45.5 -59.5t-15 -99.5q0 -57 15.5 -96t45 -58.5t71.5 -19.5q43 0 79.5 10.5t68.5 27.5v-106q-30 -17 -66.5 -27
t-86.5 -10zM470 756q-12 -14 -33 -34t-45.5 -41.5t-48 -41t-42.5 -33.5h-84v13q16 19 36 44.5t39.5 53t32.5 49.5h145v-10z" />
    <glyph glyph-name="Cdotaccent" unicode="&#x10a;" 
d="M400 615q-48 0 -87 -17.5t-66 -51.5t-41.5 -82t-14.5 -108q0 -80 23.5 -138t71 -88.5t118.5 -30.5q47 0 89.5 10t84.5 24v-110q-42 -17 -87.5 -25t-103.5 -8q-111 0 -184.5 45.5t-109.5 128t-36 193.5q0 81 22.5 148t66.5 116.5t108 76t147 26.5q54 0 107.5 -11.5
t98.5 -33.5l-44 -105q-36 17 -76 29t-87 12zM375 924q28 0 49 -15t21 -52q0 -36 -21 -51.5t-49 -15.5q-30 0 -50.5 15.5t-20.5 51.5q0 37 20.5 52t50.5 15z" />
    <glyph glyph-name="cdotaccent" unicode="&#x10b;" horiz-adv-x="502" 
d="M307 -10q-76 0 -134 29.5t-90.5 91t-32.5 157.5q0 100 35 162.5t95 92t136 29.5q45 0 86 -9t70 -24l-38 -99q-27 11 -58 19.5t-61 8.5q-44 0 -74.5 -20t-45.5 -59.5t-15 -99.5q0 -57 15.5 -96t45 -58.5t71.5 -19.5q43 0 79.5 10.5t68.5 27.5v-106q-30 -17 -66.5 -27
t-86.5 -10zM288 752q28 0 49 -15t21 -52q0 -36 -21 -51.5t-49 -15.5q-30 0 -50.5 15.5t-20.5 51.5q0 37 20.5 52t50.5 15z" />
    <glyph glyph-name="Ccaron" unicode="&#x10c;" 
d="M400 615q-48 0 -87 -17.5t-66 -51.5t-41.5 -82t-14.5 -108q0 -80 23.5 -138t71 -88.5t118.5 -30.5q47 0 89.5 10t84.5 24v-110q-42 -17 -87.5 -25t-103.5 -8q-111 0 -184.5 45.5t-109.5 128t-36 193.5q0 81 22.5 148t66.5 116.5t108 76t147 26.5q54 0 107.5 -11.5
t98.5 -33.5l-44 -105q-36 17 -76 29t-87 12zM310 778q-14 23 -36 49.5t-46 52.5t-42 45v13h85q26 -17 51.5 -38t51.5 -47q26 26 52 47.5t52 37.5h86v-13q-18 -19 -42.5 -44.5t-47 -52.5t-35.5 -50h-129z" />
    <glyph glyph-name="ccaron" unicode="&#x10d;" horiz-adv-x="502" 
d="M307 -10q-76 0 -134 29.5t-90.5 91t-32.5 157.5q0 100 35 162.5t95 92t136 29.5q45 0 86 -9t70 -24l-38 -99q-27 11 -58 19.5t-61 8.5q-44 0 -74.5 -20t-45.5 -59.5t-15 -99.5q0 -57 15.5 -96t45 -58.5t71.5 -19.5q43 0 79.5 10.5t68.5 27.5v-106q-30 -17 -66.5 -27
t-86.5 -10zM223 606q-14 23 -36 49.5t-46 52.5t-42 45v13h85q26 -17 51.5 -38t51.5 -47q26 26 52 47.5t52 37.5h86v-13q-18 -19 -42.5 -44.5t-47 -52.5t-35.5 -50h-129z" />
    <glyph glyph-name="Dcaron" unicode="&#x10e;" horiz-adv-x="732" 
d="M674 367q0 -121 -45 -203t-128.5 -123t-199.5 -41h-212v714h231q110 0 189.5 -40t122 -116.5t42.5 -190.5zM539 363q0 83 -26 137t-76.5 80.5t-124.5 26.5h-93v-499h76q123 0 183.5 63.5t60.5 191.5zM299 778q-14 23 -36 49.5t-46 52.5t-42 45v13h85q26 -17 51.5 -38
t51.5 -47q26 26 52 47.5t52 37.5h86v-13q-18 -19 -42.5 -44.5t-47 -52.5t-35.5 -50h-129z" />
    <glyph glyph-name="dcaron" unicode="&#x10f;" horiz-adv-x="626" 
d="M261 -10q-94 0 -152.5 71t-58.5 209q0 140 59 211t155 71q40 0 69.5 -10.5t51.5 -28.5t37 -40h5q-2 16 -4.5 45.5t-2.5 52.5v189h128v-760h-99l-24 71h-5q-15 -22 -36.5 -40.5t-52 -29.5t-70.5 -11zM299 93q70 0 99 39.5t29 120.5v16q0 87 -27.5 133.5t-101.5 46.5
q-57 0 -87.5 -47.5t-30.5 -133.5t30.5 -130.5t88.5 -44.5zM736 750q-8 -20 -20 -45.5t-26.5 -52.5t-31.5 -52h-73v13q5 14 9.5 33t9 39t7.5 39.5t5 35.5h120v-10z" />
    <glyph glyph-name="Dcroat" unicode="&#x110;" horiz-adv-x="732" 
d="M320 714q110 0 189 -40t122 -116.5t43 -190.5q0 -121 -45 -203t-129 -123t-200 -41h-206v299h-70v108h70v307h226zM312 607h-89v-200h149v-108h-149v-191h72q124 0 184 63.5t60 191.5q0 83 -26.5 137t-76.5 80.5t-124 26.5z" />
    <glyph glyph-name="dcroat" unicode="&#x111;" horiz-adv-x="634" 
d="M258 -10q-93 0 -150.5 68.5t-57.5 201.5q0 138 59.5 205t155.5 67q40 0 70 -10.5t52 -28.5t38 -40h5q-3 12 -6.5 42t-3.5 57v40h-175v85h175v83h128v-83h76v-85h-76v-592h-104l-24 71h-6q-15 -22 -36.5 -40.5t-50.5 -29.5t-69 -11zM304 93q67 0 95 37.5t28 113.5v15
q0 83 -28.5 126t-97.5 43q-55 0 -84.5 -43.5t-29.5 -126.5q0 -75 28.5 -120t88.5 -45z" />
    <glyph glyph-name="Emacron" unicode="&#x112;" horiz-adv-x="553" 
d="M498 0h-409v714h409v-108h-279v-181h261v-107h-261v-209h279v-109zM458 866v-88h-319v88h319z" />
    <glyph glyph-name="emacron" unicode="&#x113;" horiz-adv-x="585" 
d="M301 552q73 0 126 -29t81.5 -84t28.5 -133v-65h-357q2 -73 41 -113t111 -40q51 0 92 10t84 29v-100q-40 -19 -83 -28t-104 -9q-79 0 -140.5 30.5t-96 92.5t-34.5 154q0 93 31.5 156.5t88 96t131.5 32.5zM303 458q-52 0 -83.5 -33t-36.5 -95h231q0 38 -12 66.5t-36.5 45
t-62.5 16.5zM453 694v-88h-319v88h319z" />
    <glyph glyph-name="Edotaccent" unicode="&#x116;" horiz-adv-x="553" 
d="M498 0h-409v714h409v-108h-279v-181h261v-107h-261v-209h279v-109zM300 924q28 0 49 -15t21 -52q0 -36 -21 -51.5t-49 -15.5q-30 0 -50.5 15.5t-20.5 51.5q0 37 20.5 52t50.5 15z" />
    <glyph glyph-name="edotaccent" unicode="&#x117;" horiz-adv-x="585" 
d="M301 552q73 0 126 -29t81.5 -84t28.5 -133v-65h-357q2 -73 41 -113t111 -40q51 0 92 10t84 29v-100q-40 -19 -83 -28t-104 -9q-79 0 -140.5 30.5t-96 92.5t-34.5 154q0 93 31.5 156.5t88 96t131.5 32.5zM303 458q-52 0 -83.5 -33t-36.5 -95h231q0 38 -12 66.5t-36.5 45
t-62.5 16.5zM295 752q28 0 49 -15t21 -52q0 -36 -21 -51.5t-49 -15.5q-30 0 -50.5 15.5t-20.5 51.5q0 37 20.5 52t50.5 15z" />
    <glyph glyph-name="Eogonek" unicode="&#x118;" horiz-adv-x="553" 
d="M498 0h-409v714h409v-108h-279v-181h261v-107h-261v-209h279v-109zM402 -109q0 -20 11.5 -30t30.5 -10q16 0 29.5 3l22.5 5v-76q-15 -4 -31.5 -7.5t-39.5 -3.5q-54 0 -84.5 27.5t-30.5 74.5q0 26 13 52t35.5 49.5t51.5 43.5l59 -19q-34 -32 -50.5 -56.5t-16.5 -52.5z" />
    <glyph glyph-name="eogonek" unicode="&#x119;" horiz-adv-x="585" 
d="M411 -106q0 -21 12 -32t32 -11q16 0 28.5 3t21.5 5v-76q-15 -4 -31.5 -7.5t-39.5 -3.5q-54 0 -84.5 27.5t-30.5 74.5q0 26 13 52t36 49.5t52 43.5l88 8q-40 -32 -61 -55.5t-28.5 -41.5t-7.5 -36zM301 552q73 0 126 -29t81.5 -84t28.5 -133v-65h-357q2 -73 41 -113
t111 -40q51 0 92 10t84 29v-100q-40 -19 -83 -28t-104 -9q-79 0 -140.5 30.5t-96 92.5t-34.5 154q0 93 31.5 156.5t88 96t131.5 32.5zM303 458q-52 0 -83.5 -33t-36.5 -95h231q0 38 -12 66.5t-36.5 45t-62.5 16.5z" />
    <glyph glyph-name="Ecaron" unicode="&#x11a;" horiz-adv-x="553" 
d="M498 0h-409v714h409v-108h-279v-181h261v-107h-261v-209h279v-109zM234 778q-14 23 -36 49.5t-46 52.5t-42 45v13h85q26 -17 51.5 -38t51.5 -47q26 26 52 47.5t52 37.5h86v-13q-18 -19 -42.5 -44.5t-47 -52.5t-35.5 -50h-129z" />
    <glyph glyph-name="ecaron" unicode="&#x11b;" horiz-adv-x="585" 
d="M301 552q73 0 126 -29t81.5 -84t28.5 -133v-65h-357q2 -73 41 -113t111 -40q51 0 92 10t84 29v-100q-40 -19 -83 -28t-104 -9q-79 0 -140.5 30.5t-96 92.5t-34.5 154q0 93 31.5 156.5t88 96t131.5 32.5zM303 458q-52 0 -83.5 -33t-36.5 -95h231q0 38 -12 66.5t-36.5 45
t-62.5 16.5zM229 606q-14 23 -36 49.5t-46 52.5t-42 45v13h85q26 -17 51.5 -38t51.5 -47q26 26 52 47.5t52 37.5h86v-13q-18 -19 -42.5 -44.5t-47 -52.5t-35.5 -50h-129z" />
    <glyph glyph-name="Gbreve" unicode="&#x11e;" horiz-adv-x="733" 
d="M391 393h270v-364q-57 -19 -121 -29t-140 -10q-108 0 -184.5 43t-117.5 125t-41 200q0 112 43.5 194t126.5 127t202 45q63 0 119 -11.5t101 -31.5l-44 -106q-38 18 -83.5 29t-95.5 11q-77 0 -129.5 -32.5t-79 -91t-26.5 -135.5q0 -78 24.5 -136t74.5 -89.5t129 -31.5
q36 0 66 4t51 9v174h-145v107zM575 930q-3 -45 -24.5 -79.5t-59 -53.5t-90.5 -19q-82 0 -123.5 41t-45.5 111h73q7 -42 30 -53t68 -11q36 0 63 12.5t34 51.5h75z" />
    <glyph glyph-name="gbreve" unicode="&#x11f;" horiz-adv-x="626" 
d="M263 552q55 0 94.5 -20.5t66.5 -58.5h5l13 69h106v-548q0 -77 -28.5 -129t-86 -78.5t-146.5 -26.5q-61 0 -110.5 8t-91.5 25v111q43 -20 91.5 -31t109.5 -11q65 0 100 33t35 92v16q0 13 1.5 33.5t2.5 34.5h-4q-25 -38 -64 -59.5t-95 -21.5q-98 0 -155 73t-57 207
q0 133 57.5 207.5t155.5 74.5zM298 450q-38 0 -64.5 -21t-40 -61.5t-13.5 -98.5q0 -89 30.5 -133.5t89.5 -44.5q34 0 58 9.5t39.5 29t23 49.5t7.5 71v22q0 61 -13.5 100.5t-42 58.5t-74.5 19zM474 758q-3 -45 -24.5 -79.5t-59 -53.5t-90.5 -19q-82 0 -123.5 41t-45.5 111h73
q7 -42 30 -53t68 -11q36 0 63 12.5t34 51.5h75z" />
    <glyph glyph-name="Gdotaccent" unicode="&#x120;" horiz-adv-x="733" 
d="M391 393h270v-364q-57 -19 -121 -29t-140 -10q-108 0 -184.5 43t-117.5 125t-41 200q0 112 43.5 194t126.5 127t202 45q63 0 119 -11.5t101 -31.5l-44 -106q-38 18 -83.5 29t-95.5 11q-77 0 -129.5 -32.5t-79 -91t-26.5 -135.5q0 -78 24.5 -136t74.5 -89.5t129 -31.5
q36 0 66 4t51 9v174h-145v107zM404 924q28 0 49 -15t21 -52q0 -36 -21 -51.5t-49 -15.5q-30 0 -50.5 15.5t-20.5 51.5q0 37 20.5 52t50.5 15z" />
    <glyph glyph-name="gdotaccent" unicode="&#x121;" horiz-adv-x="626" 
d="M263 552q55 0 94.5 -20.5t66.5 -58.5h5l13 69h106v-548q0 -77 -28.5 -129t-86 -78.5t-146.5 -26.5q-61 0 -110.5 8t-91.5 25v111q43 -20 91.5 -31t109.5 -11q65 0 100 33t35 92v16q0 13 1.5 33.5t2.5 34.5h-4q-25 -38 -64 -59.5t-95 -21.5q-98 0 -155 73t-57 207
q0 133 57.5 207.5t155.5 74.5zM298 450q-38 0 -64.5 -21t-40 -61.5t-13.5 -98.5q0 -89 30.5 -133.5t89.5 -44.5q34 0 58 9.5t39.5 29t23 49.5t7.5 71v22q0 61 -13.5 100.5t-42 58.5t-74.5 19zM304 752q28 0 49 -15t21 -52q0 -36 -21 -51.5t-49 -15.5q-30 0 -50.5 15.5
t-20.5 51.5q0 37 20.5 52t50.5 15z" />
    <glyph glyph-name="uni0122" unicode="&#x122;" horiz-adv-x="733" 
d="M391 393h270v-364q-57 -19 -121 -29t-140 -10q-108 0 -184.5 43t-117.5 125t-41 200q0 112 43.5 194t126.5 127t202 45q63 0 119 -11.5t101 -31.5l-44 -106q-38 18 -83.5 29t-95.5 11q-77 0 -129.5 -32.5t-79 -91t-26.5 -135.5q0 -78 24.5 -136t74.5 -89.5t129 -31.5
q36 0 66 4t51 9v174h-145v107zM470 -71q-6 -21 -18.5 -47t-28 -52.5t-33.5 -50.5h-73v13q7 18 14 45t13 54.5t7 47.5h119v-10z" />
    <glyph glyph-name="uni0123" unicode="&#x123;" horiz-adv-x="626" 
d="M263 552q55 0 94.5 -20.5t66.5 -58.5h5l13 69h106v-548q0 -77 -28.5 -129t-86 -78.5t-146.5 -26.5q-61 0 -110.5 8t-91.5 25v111q43 -20 91.5 -31t109.5 -11q65 0 100 33t35 92v16q0 13 1.5 33.5t2.5 34.5h-4q-25 -38 -64 -59.5t-95 -21.5q-98 0 -155 73t-57 207
q0 133 57.5 207.5t155.5 74.5zM298 450q-38 0 -64.5 -21t-40 -61.5t-13.5 -98.5q0 -89 30.5 -133.5t89.5 -44.5q34 0 58 9.5t39.5 29t23 49.5t7.5 71v22q0 61 -13.5 100.5t-42 58.5t-74.5 19zM383 753q-7 -18 -14 -44.5t-12.5 -53.5t-8.5 -49h-120v10q9 20 21 45.5
t27.5 52.5t32.5 52h74v-13z" />
    <glyph glyph-name="Hbar" unicode="&#x126;" horiz-adv-x="757" 
d="M92 0v522h-92v88h92v104h130v-104h312v104h130v-104h92v-88h-92v-522h-130v317h-312v-317h-130zM222 426h312v96h-312v-96z" />
    <glyph glyph-name="hbar" unicode="&#x127;" horiz-adv-x="642" 
d="M209 760v-83h174v-86h-175v-61q0 -21 -1.5 -46t-3.5 -44h7q18 28 42.5 46t55 26.5t64.5 8.5q61 0 104.5 -20.5t67 -64.5t23.5 -113v-323h-127v296q0 62 -24 92.5t-75 30.5q-50 0 -79 -22t-41 -63t-12 -101v-233h-127v591h-76v86h76v83h127z" />
    <glyph glyph-name="Imacron" unicode="&#x12a;" horiz-adv-x="377" 
d="M339 0h-301v74l86 25v516l-86 25v74h301v-74l-86 -25v-516l86 -25v-74zM348 866v-88h-319v88h319z" />
    <glyph glyph-name="imacron" unicode="&#x12b;" horiz-adv-x="283" 
d="M205 0h-127v542h127v-542zM301 694v-88h-319v88h319z" />
    <glyph glyph-name="Iogonek" unicode="&#x12e;" horiz-adv-x="377" 
d="M339 0h-301v74l86 25v516l-86 25v74h301v-74l-86 -25v-516l86 -25v-74zM248 -109q0 -20 11.5 -30t30.5 -10q16 0 29.5 3l22.5 5v-76q-15 -4 -31.5 -7.5t-39.5 -3.5q-54 0 -84.5 27.5t-30.5 74.5q0 26 13 52t35.5 49.5t51.5 43.5l59 -19q-34 -32 -50.5 -56.5t-16.5 -52.5z
" />
    <glyph glyph-name="iogonek" unicode="&#x12f;" horiz-adv-x="283" 
d="M205 542v-542h-127v542h127zM143 752q28 0 49 -15t21 -52q0 -36 -21 -51.5t-49 -15.5q-30 0 -50.5 15.5t-20.5 51.5q0 37 20.5 52t50.5 15zM128 -109q0 -20 11.5 -30t30.5 -10q16 0 29.5 3l22.5 5v-76q-15 -4 -31.5 -7.5t-39.5 -3.5q-54 0 -84.5 27.5t-30.5 74.5
q0 26 13 52t35.5 49.5t51.5 43.5l59 -19q-34 -32 -50.5 -56.5t-16.5 -52.5z" />
    <glyph glyph-name="Idotaccent" unicode="&#x130;" horiz-adv-x="377" 
d="M339 0h-301v74l86 25v516l-86 25v74h301v-74l-86 -25v-516l86 -25v-74zM190 924q28 0 49 -15t21 -52q0 -36 -21 -51.5t-49 -15.5q-30 0 -50.5 15.5t-20.5 51.5q0 37 20.5 52t50.5 15z" />
    <glyph glyph-name="dotlessi" unicode="&#x131;" horiz-adv-x="283" 
d="M205 0h-127v542h127v-542z" />
    <glyph glyph-name="uni0136" unicode="&#x136;" horiz-adv-x="645" 
d="M645 0h-149l-210 315l-67 -52v-263h-130v714h130v-336q23 30 48.5 60t50.5 59l176 217h146l-261 -314zM418 -71q-6 -21 -18.5 -47t-28 -52.5t-33.5 -50.5h-73v13q7 18 14 45t13 54.5t7 47.5h119v-10z" />
    <glyph glyph-name="uni0137" unicode="&#x137;" horiz-adv-x="582" 
d="M205 400q0 -23 -2 -54.5t-5 -56.5h4q7 10 18 25t23 31t21 26l153 171h145l-207 -231l221 -311h-149l-161 230l-61 -50v-180h-127v760h127v-360zM367 -71q-6 -21 -18.5 -47t-28 -52.5t-33.5 -50.5h-73v13q7 18 14 45t13 54.5t7 47.5h119v-10z" />
    <glyph glyph-name="Lacute" unicode="&#x139;" horiz-adv-x="546" 
d="M89 0v714h130v-605h297v-109h-427zM334 928q-12 -14 -33 -34t-45.5 -41.5t-48 -41t-42.5 -33.5h-84v13q16 19 36 44.5t39.5 53t32.5 49.5h145v-10z" />
    <glyph glyph-name="lacute" unicode="&#x13a;" horiz-adv-x="283" 
d="M205 0h-127v760h127v-760zM324 974q-12 -14 -33 -34t-45.5 -41.5t-48 -41t-42.5 -33.5h-84v13q16 19 36 44.5t39.5 53t32.5 49.5h145v-10z" />
    <glyph glyph-name="uni013B" unicode="&#x13b;" horiz-adv-x="546" 
d="M89 0v714h130v-605h297v-109h-427zM380 -71q-6 -21 -18.5 -47t-28 -52.5t-33.5 -50.5h-73v13q7 18 14 45t13 54.5t7 47.5h119v-10z" />
    <glyph glyph-name="uni013C" unicode="&#x13c;" horiz-adv-x="283" 
d="M205 0h-127v760h127v-760zM218 -71q-6 -21 -18.5 -47t-28 -52.5t-33.5 -50.5h-73v13q7 18 14 45t13 54.5t7 47.5h119v-10z" />
    <glyph glyph-name="Lcaron" unicode="&#x13d;" horiz-adv-x="546" 
d="M89 0v714h130v-605h297v-109h-427zM528 704q-8 -20 -20 -45.5t-26.5 -52.5t-31.5 -52h-73v13q5 14 9.5 33t9 39t7.5 39.5t5 35.5h120v-10z" />
    <glyph glyph-name="lcaron" unicode="&#x13e;" horiz-adv-x="283" 
d="M205 0h-127v760h127v-760zM395 750q-8 -20 -20 -45.5t-26.5 -52.5t-31.5 -52h-73v13q5 14 9.5 33t9 39t7.5 39.5t5 35.5h120v-10z" />
    <glyph glyph-name="Lslash" unicode="&#x141;" horiz-adv-x="556" 
d="M100 0v242l-50 -28l-48 84l98 58v358h129v-280l124 74l50 -84l-174 -103v-212h298v-109h-427z" />
    <glyph glyph-name="lslash" unicode="&#x142;" horiz-adv-x="318" 
d="M92 0v252l-55 -33l-48 83l103 63v395h127v-316l61 40l50 -83l-111 -70v-331h-127z" />
    <glyph glyph-name="Nacute" unicode="&#x143;" horiz-adv-x="788" 
d="M699 0h-162l-336 559h-4q2 -23 4 -55t3.5 -66.5t1.5 -67.5v-370h-117v714h161l335 -555h3q-1 19 -2.5 50.5t-3 67t-1.5 64.5v373h118v-714zM577 928q-12 -14 -33 -34t-45.5 -41.5t-48 -41t-42.5 -33.5h-84v13q16 19 36 44.5t39.5 53t32.5 49.5h145v-10z" />
    <glyph glyph-name="nacute" unicode="&#x144;" 
d="M369 552q92 0 143 -47t51 -152v-353h-126v327q0 62 -24.5 92.5t-75.5 30.5q-76 0 -104 -48t-28 -138v-264h-127v542h98l18 -73h6q18 28 44 46.5t57.5 27.5t67.5 9zM501 756q-12 -14 -33 -34t-45.5 -41.5t-48 -41t-42.5 -33.5h-84v13q16 19 36 44.5t39.5 53t32.5 49.5h145
v-10z" />
    <glyph glyph-name="uni0145" unicode="&#x145;" horiz-adv-x="788" 
d="M699 0h-162l-336 559h-4q2 -23 4 -55t3.5 -66.5t1.5 -67.5v-370h-117v714h161l335 -555h3q-1 19 -2.5 50.5t-3 67t-1.5 64.5v373h118v-714zM471 -71q-6 -21 -18.5 -47t-28 -52.5t-33.5 -50.5h-73v13q7 18 14 45t13 54.5t7 47.5h119v-10z" />
    <glyph glyph-name="uni0146" unicode="&#x146;" 
d="M369 552q92 0 143 -47t51 -152v-353h-126v327q0 62 -24.5 92.5t-75.5 30.5q-76 0 -104 -48t-28 -138v-264h-127v542h98l18 -73h6q18 28 44 46.5t57.5 27.5t67.5 9zM395 -71q-6 -21 -18.5 -47t-28 -52.5t-33.5 -50.5h-73v13q7 18 14 45t13 54.5t7 47.5h119v-10z" />
    <glyph glyph-name="Ncaron" unicode="&#x147;" horiz-adv-x="788" 
d="M699 0h-162l-336 559h-4q2 -23 4 -55t3.5 -66.5t1.5 -67.5v-370h-117v714h161l335 -555h3q-1 19 -2.5 50.5t-3 67t-1.5 64.5v373h118v-714zM329 778q-14 23 -36 49.5t-46 52.5t-42 45v13h85q26 -17 51.5 -38t51.5 -47q26 26 52 47.5t52 37.5h86v-13q-18 -19 -42.5 -44.5
t-47 -52.5t-35.5 -50h-129z" />
    <glyph glyph-name="ncaron" unicode="&#x148;" 
d="M369 552q92 0 143 -47t51 -152v-353h-126v327q0 62 -24.5 92.5t-75.5 30.5q-76 0 -104 -48t-28 -138v-264h-127v542h98l18 -73h6q18 28 44 46.5t57.5 27.5t67.5 9zM254 606q-14 23 -36 49.5t-46 52.5t-42 45v13h85q26 -17 51.5 -38t51.5 -47q26 26 52 47.5t52 37.5h86
v-13q-18 -19 -42.5 -44.5t-47 -52.5t-35.5 -50h-129z" />
    <glyph glyph-name="Eng" unicode="&#x14a;" horiz-adv-x="788" 
d="M485 -209q-29 0 -50.5 3.5t-37.5 8.5v104q17 -3 36.5 -6.5t42.5 -3.5q31 0 55 10t38.5 32.5t15.5 60.5l-384 559h-4q2 -19 4 -53.5t3.5 -74.5t1.5 -77v-354h-117v714h153l343 -505h4q-2 21 -3.5 55t-3 73t-1.5 75v302h118v-712q0 -70 -26.5 -117t-74.5 -70.5t-113 -23.5z
" />
    <glyph glyph-name="eng" unicode="&#x14b;" 
d="M398 -240q-23 0 -45 3.5t-38 8.5v101q15 -4 28.5 -7t30.5 -3q26 0 44 17t18 67v388q0 58 -24.5 86.5t-74.5 28.5t-79 -21.5t-41 -62.5t-12 -101v-265h-127v542h99l17 -71h8q18 28 44 46t57.5 26.5t65.5 8.5q61 0 104.5 -20.5t67 -64t23.5 -113.5v-421q0 -50 -17 -89
t-53.5 -61.5t-95.5 -22.5z" />
    <glyph glyph-name="Omacron" unicode="&#x14c;" horiz-adv-x="787" 
d="M730 358q0 -83 -21 -150.5t-62.5 -116.5t-104.5 -75t-148 -26q-87 0 -150 26.5t-104.5 75t-62 116.5t-20.5 151q0 110 36.5 192.5t111.5 128t190 45.5q112 0 186.5 -45.5t111.5 -128t37 -193.5zM193 358q0 -80 21 -138t66 -89t114 -31q70 0 114 31t64.5 89t20.5 138
q0 121 -46.5 189.5t-151.5 68.5q-70 0 -115 -31t-66 -89t-21 -138zM553 866v-88h-319v88h319z" />
    <glyph glyph-name="omacron" unicode="&#x14d;" horiz-adv-x="617" 
d="M567 272q0 -67 -18 -119.5t-51.5 -89t-82 -55t-108.5 -18.5q-56 0 -103 18.5t-81 55t-53.5 89t-19.5 119.5q0 91 31.5 153t89.5 94.5t139 32.5q76 0 133.5 -32.5t90.5 -94.5t33 -153zM180 272q0 -56 13.5 -97.5t42 -63.5t73.5 -22t73.5 22t41.5 63.5t13 97.5
q0 58 -13.5 98t-41.5 61.5t-74 21.5q-67 0 -97.5 -47.5t-30.5 -133.5zM468 694v-88h-319v88h319z" />
    <glyph glyph-name="Ohungarumlaut" unicode="&#x150;" horiz-adv-x="787" 
d="M730 358q0 -83 -21 -150.5t-62.5 -116.5t-104.5 -75t-148 -26q-87 0 -150 26.5t-104.5 75t-62 116.5t-20.5 151q0 110 36.5 192.5t111.5 128t190 45.5q112 0 186.5 -45.5t111.5 -128t37 -193.5zM193 358q0 -80 21 -138t66 -89t114 -31q70 0 114 31t64.5 89t20.5 138
q0 121 -46.5 189.5t-151.5 68.5q-70 0 -115 -31t-66 -89t-21 -138zM602 928q-8 -13 -25.5 -33t-40.5 -42t-45.5 -41.5t-40.5 -33.5h-69v13q14 19 31 44.5t34 53t27 49.5h129v-10zM407 928q-8 -13 -26 -33t-41 -42t-45.5 -41.5t-39.5 -33.5h-69v13q14 19 31 44.5t33.5 53
t27.5 49.5h129v-10z" />
    <glyph glyph-name="ohungarumlaut" unicode="&#x151;" horiz-adv-x="617" 
d="M567 272q0 -67 -18 -119.5t-51.5 -89t-82 -55t-108.5 -18.5q-56 0 -103 18.5t-81 55t-53.5 89t-19.5 119.5q0 91 31.5 153t89.5 94.5t139 32.5q76 0 133.5 -32.5t90.5 -94.5t33 -153zM180 272q0 -56 13.5 -97.5t42 -63.5t73.5 -22t73.5 22t41.5 63.5t13 97.5
q0 58 -13.5 98t-41.5 61.5t-74 21.5q-67 0 -97.5 -47.5t-30.5 -133.5zM517 756q-8 -13 -25.5 -33t-40.5 -42t-45.5 -41.5t-40.5 -33.5h-69v13q14 19 31 44.5t34 53t27 49.5h129v-10zM322 756q-8 -13 -26 -33t-41 -42t-45.5 -41.5t-39.5 -33.5h-69v13q14 19 31 44.5t33.5 53
t27.5 49.5h129v-10z" />
    <glyph glyph-name="OE" unicode="&#x152;" horiz-adv-x="939" 
d="M383 725q27 0 55.5 -3t50.5 -8h395v-108h-266v-181h247v-107h-247v-209h266v-109h-393q-21 -4 -50 -7t-55 -3q-110 0 -183 46t-109.5 129t-36.5 194t36 193t108.5 127.5t181.5 45.5zM389 616q-50 0 -87.5 -17.5t-61.5 -51t-35.5 -81.5t-11.5 -108q0 -80 21 -138t64.5 -89
t109.5 -31q29 0 55.5 4.5t45.5 13.5v479q-19 9 -45 14t-55 5z" />
    <glyph glyph-name="oe" unicode="&#x153;" horiz-adv-x="959" 
d="M685 552q69 0 119.5 -29.5t78.5 -84.5t28 -132v-65h-350q2 -75 40 -114t109 -39q47 0 88.5 9.5t84.5 29.5v-100q-40 -19 -82 -28t-102 -9q-62 0 -112.5 23.5t-84.5 70.5q-33 -46 -83.5 -70t-114.5 -24q-74 0 -131.5 33t-90.5 96t-33 153t31 152t89 95t138 33
q60 0 108.5 -23.5t80.5 -68.5q22 30 49.5 50.5t62.5 31t77 10.5zM304 453q-66 0 -94.5 -45.5t-28.5 -135.5q0 -59 12.5 -100t40 -62t71.5 -21t71 20.5t40 61t13 99.5q0 61 -13 101.5t-40.5 61t-71.5 20.5zM680 458q-50 0 -81 -31.5t-36 -96.5h225q0 38 -11.5 66.5t-35.5 45
t-61 16.5z" />
    <glyph glyph-name="Racute" unicode="&#x154;" horiz-adv-x="643" 
d="M300 714q93 0 153 -23t89.5 -68.5t29.5 -114.5q0 -52 -18.5 -89t-49 -61.5t-66.5 -40.5l200 -317h-148l-165 282h-106v-282h-130v714h211zM296 610h-77v-226h80q70 0 105.5 29t35.5 89q0 38 -15 61.5t-47 35t-82 11.5zM504 928q-12 -14 -33 -34t-45.5 -41.5t-48 -41
t-42.5 -33.5h-84v13q16 19 36 44.5t39.5 53t32.5 49.5h145v-10z" />
    <glyph glyph-name="racute" unicode="&#x155;" horiz-adv-x="434" 
d="M360 552q15 0 32.5 -1.5t28.5 -4.5l-13 -118q-12 2 -27.5 4t-33.5 2q-26 0 -51 -9t-46 -28t-33 -47.5t-12 -68.5v-281h-127v542h98l18 -94h6q16 29 40 53t54.5 37.5t65.5 13.5zM427 756q-12 -14 -33 -34t-45.5 -41.5t-48 -41t-42.5 -33.5h-84v13q16 19 36 44.5t39.5 53
t32.5 49.5h145v-10z" />
    <glyph glyph-name="uni0156" unicode="&#x156;" horiz-adv-x="643" 
d="M300 714q93 0 153 -23t89.5 -68.5t29.5 -114.5q0 -52 -18.5 -89t-49 -61.5t-66.5 -40.5l200 -317h-148l-165 282h-106v-282h-130v714h211zM296 610h-77v-226h80q70 0 105.5 29t35.5 89q0 38 -15 61.5t-47 35t-82 11.5zM414 -71q-6 -21 -18.5 -47t-28 -52.5t-33.5 -50.5
h-73v13q7 18 14 45t13 54.5t7 47.5h119v-10z" />
    <glyph glyph-name="uni0157" unicode="&#x157;" horiz-adv-x="434" 
d="M360 552q15 0 32.5 -1.5t28.5 -4.5l-13 -118q-12 2 -27.5 4t-33.5 2q-26 0 -51 -9t-46 -28t-33 -47.5t-12 -68.5v-281h-127v542h98l18 -94h6q16 29 40 53t54.5 37.5t65.5 13.5zM217 -71q-6 -21 -18.5 -47t-28 -52.5t-33.5 -50.5h-73v13q7 18 14 45t13 54.5t7 47.5h119
v-10z" />
    <glyph glyph-name="Rcaron" unicode="&#x158;" horiz-adv-x="643" 
d="M300 714q93 0 153 -23t89.5 -68.5t29.5 -114.5q0 -52 -18.5 -89t-49 -61.5t-66.5 -40.5l200 -317h-148l-165 282h-106v-282h-130v714h211zM296 610h-77v-226h80q70 0 105.5 29t35.5 89q0 38 -15 61.5t-47 35t-82 11.5zM257 778q-14 23 -36 49.5t-46 52.5t-42 45v13h85
q26 -17 51.5 -38t51.5 -47q26 26 52 47.5t52 37.5h86v-13q-18 -19 -42.5 -44.5t-47 -52.5t-35.5 -50h-129z" />
    <glyph glyph-name="rcaron" unicode="&#x159;" horiz-adv-x="434" 
d="M360 552q15 0 32.5 -1.5t28.5 -4.5l-13 -118q-12 2 -27.5 4t-33.5 2q-26 0 -51 -9t-46 -28t-33 -47.5t-12 -68.5v-281h-127v542h98l18 -94h6q16 29 40 53t54.5 37.5t65.5 13.5zM179 606q-14 23 -36 49.5t-46 52.5t-42 45v13h85q26 -17 51.5 -38t51.5 -47q26 26 52 47.5
t52 37.5h86v-13q-18 -19 -42.5 -44.5t-47 -52.5t-35.5 -50h-129z" />
    <glyph glyph-name="Sacute" unicode="&#x15a;" horiz-adv-x="560" 
d="M518 201q0 -62 -30.5 -109.5t-89.5 -74.5t-145 -27q-43 0 -79.5 4t-67 12.5t-58.5 21.5v119q45 -21 100.5 -35t108.5 -14q44 0 73.5 11.5t44 32t14.5 47.5q0 29 -14.5 49t-47.5 38t-91 40q-58 23 -98.5 51t-61 67.5t-20.5 97.5q0 61 31 104t85.5 65.5t126.5 22.5
q64 0 115.5 -12.5t92.5 -31.5l-39 -105q-41 18 -85 29.5t-87 11.5q-38 0 -62.5 -10t-36.5 -28.5t-12 -42.5q0 -29 14 -49t47 -37.5t89 -40.5q59 -23 99.5 -50t62 -64t21.5 -93zM469 928q-12 -14 -33 -34t-45.5 -41.5t-48 -41t-42.5 -33.5h-84v13q16 19 36 44.5t39.5 53
t32.5 49.5h145v-10z" />
    <glyph glyph-name="sacute" unicode="&#x15b;" horiz-adv-x="493" 
d="M450 156q0 -52 -25 -89t-74 -57t-122 -20q-57 0 -100 8t-80 25v108q40 -19 88.5 -31.5t89.5 -12.5q54 0 78 16t24 43q0 17 -10.5 30.5t-38 27.5t-77.5 34t-84.5 40.5t-52.5 50t-18 73.5q0 73 58 111.5t153 38.5q51 0 95.5 -10t87.5 -30l-38 -90q-37 16 -76 26.5t-72 10.5
q-42 0 -64.5 -13t-22.5 -36q0 -18 11 -30.5t39 -25.5t78 -32q49 -19 83.5 -40t52 -50.5t17.5 -75.5zM427 756q-12 -14 -33 -34t-45.5 -41.5t-48 -41t-42.5 -33.5h-84v13q16 19 36 44.5t39.5 53t32.5 49.5h145v-10z" />
    <glyph glyph-name="Scedilla" unicode="&#x15e;" horiz-adv-x="560" 
d="M518 201q0 -62 -30.5 -109.5t-89.5 -74.5t-145 -27q-43 0 -79.5 4t-67 12.5t-58.5 21.5v119q45 -21 100.5 -35t108.5 -14q44 0 73.5 11.5t44 32t14.5 47.5q0 29 -14.5 49t-47.5 38t-91 40q-58 23 -98.5 51t-61 67.5t-20.5 97.5q0 61 31 104t85.5 65.5t126.5 22.5
q64 0 115.5 -12.5t92.5 -31.5l-39 -105q-41 18 -85 29.5t-87 11.5q-38 0 -62.5 -10t-36.5 -28.5t-12 -42.5q0 -29 14 -49t47 -37.5t89 -40.5q59 -23 99.5 -50t62 -64t21.5 -93zM377 -133q0 -50 -37 -78.5t-106 -28.5q-22 0 -41 3t-31 7v69q12 -3 27.5 -5t30.5 -2q29 0 45 9
t16 29q0 23 -23 34t-61 17l38 79h72l-19 -44q22 -5 42.5 -15t33.5 -28t13 -46z" />
    <glyph glyph-name="scedilla" unicode="&#x15f;" horiz-adv-x="493" 
d="M450 156q0 -52 -25 -89t-74 -57t-122 -20q-57 0 -100 8t-80 25v108q40 -19 88.5 -31.5t89.5 -12.5q54 0 78 16t24 43q0 17 -10.5 30.5t-38 27.5t-77.5 34t-84.5 40.5t-52.5 50t-18 73.5q0 73 58 111.5t153 38.5q51 0 95.5 -10t87.5 -30l-38 -90q-37 16 -76 26.5t-72 10.5
q-42 0 -64.5 -13t-22.5 -36q0 -18 11 -30.5t39 -25.5t78 -32q49 -19 83.5 -40t52 -50.5t17.5 -75.5zM352 -133q0 -50 -37 -78.5t-106 -28.5q-22 0 -41 3t-31 7v69q12 -3 27.5 -5t30.5 -2q29 0 45 9t16 29q0 23 -23 34t-61 17l38 79h72l-19 -44q22 -5 42.5 -15t33.5 -28
t13 -46z" />
    <glyph glyph-name="Scaron" unicode="&#x160;" horiz-adv-x="560" 
d="M518 201q0 -62 -30.5 -109.5t-89.5 -74.5t-145 -27q-43 0 -79.5 4t-67 12.5t-58.5 21.5v119q45 -21 100.5 -35t108.5 -14q44 0 73.5 11.5t44 32t14.5 47.5q0 29 -14.5 49t-47.5 38t-91 40q-58 23 -98.5 51t-61 67.5t-20.5 97.5q0 61 31 104t85.5 65.5t126.5 22.5
q64 0 115.5 -12.5t92.5 -31.5l-39 -105q-41 18 -85 29.5t-87 11.5q-38 0 -62.5 -10t-36.5 -28.5t-12 -42.5q0 -29 14 -49t47 -37.5t89 -40.5q59 -23 99.5 -50t62 -64t21.5 -93zM222 778q-14 23 -36 49.5t-46 52.5t-42 45v13h85q26 -17 51.5 -38t51.5 -47q26 26 52 47.5
t52 37.5h86v-13q-18 -19 -42.5 -44.5t-47 -52.5t-35.5 -50h-129z" />
    <glyph glyph-name="scaron" unicode="&#x161;" horiz-adv-x="493" 
d="M450 156q0 -52 -25 -89t-74 -57t-122 -20q-57 0 -100 8t-80 25v108q40 -19 88.5 -31.5t89.5 -12.5q54 0 78 16t24 43q0 17 -10.5 30.5t-38 27.5t-77.5 34t-84.5 40.5t-52.5 50t-18 73.5q0 73 58 111.5t153 38.5q51 0 95.5 -10t87.5 -30l-38 -90q-37 16 -76 26.5t-72 10.5
q-42 0 -64.5 -13t-22.5 -36q0 -18 11 -30.5t39 -25.5t78 -32q49 -19 83.5 -40t52 -50.5t17.5 -75.5zM179 606q-14 23 -36 49.5t-46 52.5t-42 45v13h85q26 -17 51.5 -38t51.5 -47q26 26 52 47.5t52 37.5h86v-13q-18 -19 -42.5 -44.5t-47 -52.5t-35.5 -50h-129z" />
    <glyph glyph-name="Tcaron" unicode="&#x164;" horiz-adv-x="569" 
d="M349 0h-129v605h-204v109h537v-109h-204v-605zM220 778q-14 23 -36 49.5t-46 52.5t-42 45v13h85q26 -17 51.5 -38t51.5 -47q26 26 52 47.5t52 37.5h86v-13q-18 -19 -42.5 -44.5t-47 -52.5t-35.5 -50h-129z" />
    <glyph glyph-name="tcaron" unicode="&#x165;" horiz-adv-x="399" 
d="M292 92q22 0 43 4.5t38 9.5v-94q-20 -10 -49.5 -16t-64.5 -6q-47 0 -84.5 15.5t-60 53.5t-22.5 107v280h-72v56l80 44l40 115h80v-119h148v-96h-148v-274q0 -41 19.5 -60.5t52.5 -19.5zM532 750q-8 -20 -20 -45.5t-26.5 -52.5t-31.5 -52h-73v13q5 14 9.5 33t9 39
t7.5 39.5t5 35.5h120v-10z" />
    <glyph glyph-name="Umacron" unicode="&#x16a;" horiz-adv-x="741" 
d="M657 264q0 -80 -31.5 -142t-96 -97t-162.5 -35q-138 0 -210.5 73.5t-72.5 200.5v450h129v-446q0 -83 39.5 -125.5t119.5 -42.5q55 0 89.5 20t50.5 58t16 91v445h129v-450zM530 866v-88h-319v88h319z" />
    <glyph glyph-name="umacron" unicode="&#x16b;" 
d="M560 542v-542h-99l-18 70h-6q-17 -28 -44 -45.5t-58.5 -26t-66.5 -8.5q-60 0 -104 20.5t-67 64.5t-23 113v354h127v-328q0 -60 24 -90.5t75 -30.5t80 21t41 62.5t12 101.5v264h127zM478 694v-88h-319v88h319z" />
    <glyph glyph-name="Ubreve" unicode="&#x16c;" horiz-adv-x="741" 
d="M657 264q0 -80 -31.5 -142t-96 -97t-162.5 -35q-138 0 -210.5 73.5t-72.5 200.5v450h129v-446q0 -83 39.5 -125.5t119.5 -42.5q55 0 89.5 20t50.5 58t16 91v445h129v-450zM542 930q-3 -45 -24.5 -79.5t-59 -53.5t-90.5 -19q-82 0 -123.5 41t-45.5 111h73q7 -42 30 -53
t68 -11q36 0 63 12.5t34 51.5h75z" />
    <glyph glyph-name="ubreve" unicode="&#x16d;" 
d="M560 542v-542h-99l-18 70h-6q-17 -28 -44 -45.5t-58.5 -26t-66.5 -8.5q-60 0 -104 20.5t-67 64.5t-23 113v354h127v-328q0 -60 24 -90.5t75 -30.5t80 21t41 62.5t12 101.5v264h127zM490 758q-3 -45 -24.5 -79.5t-59 -53.5t-90.5 -19q-82 0 -123.5 41t-45.5 111h73
q7 -42 30 -53t68 -11q36 0 63 12.5t34 51.5h75z" />
    <glyph glyph-name="Uring" unicode="&#x16e;" horiz-adv-x="741" 
d="M657 264q0 -80 -31.5 -142t-96 -97t-162.5 -35q-138 0 -210.5 73.5t-72.5 200.5v450h129v-446q0 -83 39.5 -125.5t119.5 -42.5q55 0 89.5 20t50.5 58t16 91v445h129v-450zM370 777q-53 0 -85 30t-32 83t32 82.5t85 29.5q50 0 84.5 -29.5t34.5 -81.5q0 -54 -34 -84
t-85 -30zM370 839q22 0 36 14t14 37t-14.5 36.5t-35.5 13.5q-22 0 -36.5 -13.5t-14.5 -36.5t13 -37t38 -14z" />
    <glyph glyph-name="uring" unicode="&#x16f;" 
d="M560 542v-542h-99l-18 70h-6q-17 -28 -44 -45.5t-58.5 -26t-66.5 -8.5q-60 0 -104 20.5t-67 64.5t-23 113v354h127v-328q0 -60 24 -90.5t75 -30.5t80 21t41 62.5t12 101.5v264h127zM318 605q-53 0 -85 30t-32 83t32 82.5t85 29.5q50 0 84.5 -29.5t34.5 -81.5
q0 -54 -34 -84t-85 -30zM318 667q22 0 36 14t14 37t-14.5 36.5t-35.5 13.5q-22 0 -36.5 -13.5t-14.5 -36.5t13 -37t38 -14z" />
    <glyph glyph-name="Uhungarumlaut" unicode="&#x170;" horiz-adv-x="741" 
d="M657 264q0 -80 -31.5 -142t-96 -97t-162.5 -35q-138 0 -210.5 73.5t-72.5 200.5v450h129v-446q0 -83 39.5 -125.5t119.5 -42.5q55 0 89.5 20t50.5 58t16 91v445h129v-450zM578 928q-8 -13 -25.5 -33t-40.5 -42t-45.5 -41.5t-40.5 -33.5h-69v13q14 19 31 44.5t34 53
t27 49.5h129v-10zM383 928q-8 -13 -26 -33t-41 -42t-45.5 -41.5t-39.5 -33.5h-69v13q14 19 31 44.5t33.5 53t27.5 49.5h129v-10z" />
    <glyph glyph-name="uhungarumlaut" unicode="&#x171;" 
d="M560 542v-542h-99l-18 70h-6q-17 -28 -44 -45.5t-58.5 -26t-66.5 -8.5q-60 0 -104 20.5t-67 64.5t-23 113v354h127v-328q0 -60 24 -90.5t75 -30.5t80 21t41 62.5t12 101.5v264h127zM526 756q-8 -13 -25.5 -33t-40.5 -42t-45.5 -41.5t-40.5 -33.5h-69v13q14 19 31 44.5
t34 53t27 49.5h129v-10zM331 756q-8 -13 -26 -33t-41 -42t-45.5 -41.5t-39.5 -33.5h-69v13q14 19 31 44.5t33.5 53t27.5 49.5h129v-10z" />
    <glyph glyph-name="Uogonek" unicode="&#x172;" horiz-adv-x="741" 
d="M486 -100q0 -27 11.5 -38t30.5 -11q16 0 30 3t22 5v-76q-14 -4 -31 -7.5t-39 -3.5q-55 0 -85.5 28.5t-30.5 82.5q0 29 14 58.5t37.5 57t52.5 48.5l81 16q-30 -34 -51 -61.5t-31.5 -51.5t-10.5 -50zM657 264q0 -80 -31.5 -142t-96 -97t-162.5 -35q-138 0 -210.5 73.5
t-72.5 200.5v450h129v-446q0 -83 39.5 -125.5t119.5 -42.5q55 0 89.5 20t50.5 58t16 91v445h129v-450z" />
    <glyph glyph-name="uogonek" unicode="&#x173;" 
d="M560 542v-542h-99l-18 70h-6q-17 -28 -44 -45.5t-58.5 -26t-66.5 -8.5q-60 0 -104 20.5t-67 64.5t-23 113v354h127v-328q0 -60 24 -90.5t75 -30.5t80 21t41 62.5t12 101.5v264h127zM468 -109q0 -20 11.5 -30t30.5 -10q16 0 29.5 3l22.5 5v-76q-15 -4 -31.5 -7.5
t-39.5 -3.5q-54 0 -84.5 27.5t-30.5 74.5q0 26 13 52t35.5 49.5t51.5 43.5l59 -19q-34 -32 -50.5 -56.5t-16.5 -52.5z" />
    <glyph glyph-name="Wcircumflex" unicode="&#x174;" horiz-adv-x="971" 
d="M958 714l-185 -714h-143l-112 408q-5 17 -10 38.5t-10 44t-9 41.5t-5 30q-2 -11 -5 -30t-8 -41.5t-10 -44.5t-10 -40l-110 -406h-143l-185 714h129l99 -406q4 -20 9 -43t10 -47t9 -46.5t6 -41.5q4 24 8.5 52t10.5 57t12.5 56t12.5 49l102 370h126l104 -372
q6 -22 13 -49.5t13 -56.5t10.5 -56.5t7.5 -49.5q3 25 9 56.5t13 63.5t13 58l99 406h129zM550 938q13 -22 35.5 -49.5t47 -54t42.5 -44.5v-12h-86q-26 16 -52 37t-52 47q-27 -26 -52 -46.5t-51 -37.5h-85v12q19 19 42.5 45t45.5 53.5t36 49.5h129z" />
    <glyph glyph-name="wcircumflex" unicode="&#x175;" horiz-adv-x="833" 
d="M451 280q-7 27 -14 56t-12 54.5t-8 40.5h-3q-2 -15 -7.5 -41t-12.5 -55.5t-15 -57.5l-81 -276h-138l-149 542h128l63 -258q7 -27 13.5 -57.5t11.5 -59.5t6 -51h4q2 15 6 36t8.5 43.5t9.5 42.5t9 32l78 272h140l75 -273q5 -22 12 -49t12.5 -54.5t7.5 -49.5h4q2 21 7 50
t11.5 60.5t13.5 57.5l65 258h126l-150 -542h-142zM481 766q13 -22 35.5 -49.5t47 -54t42.5 -44.5v-12h-86q-26 16 -52 37t-52 47q-27 -26 -52 -46.5t-51 -37.5h-85v12q19 19 42.5 45t45.5 53.5t36 49.5h129z" />
    <glyph glyph-name="Ycircumflex" unicode="&#x176;" horiz-adv-x="603" 
d="M302 396l162 318h139l-237 -436v-278h-129v273l-237 441h141zM366 938q13 -22 35.5 -49.5t47 -54t42.5 -44.5v-12h-86q-26 16 -52 37t-52 47q-27 -26 -52 -46.5t-51 -37.5h-85v12q19 19 42.5 45t45.5 53.5t36 49.5h129z" />
    <glyph glyph-name="ycircumflex" unicode="&#x177;" horiz-adv-x="548" 
d="M0 542h135l108 -309q7 -19 13 -38.5t10.5 -38.5t7.5 -36h4q4 23 13.5 53.5t19.5 59.5l104 309h133l-226 -601q-22 -57 -50.5 -97.5t-69.5 -62t-101 -21.5q-25 0 -43.5 2.5t-31.5 5.5v100q11 -2 26.5 -4t32.5 -2q31 0 52.5 12.5t36.5 33.5t25 48l18 46zM338 766
q13 -22 35.5 -49.5t47 -54t42.5 -44.5v-12h-86q-26 16 -52 37t-52 47q-27 -26 -52 -46.5t-51 -37.5h-85v12q19 19 42.5 45t45.5 53.5t36 49.5h129z" />
    <glyph glyph-name="Ydieresis" unicode="&#x178;" horiz-adv-x="603" 
d="M302 396l162 318h139l-237 -436v-278h-129v273l-237 441h141zM139 856q0 32 17.5 46t42.5 14t43.5 -14t18.5 -46q0 -30 -18.5 -44.5t-43.5 -14.5t-42.5 14.5t-17.5 44.5zM344 856q0 32 17.5 46t43.5 14q24 0 42.5 -14t18.5 -46q0 -30 -18.5 -44.5t-42.5 -14.5
q-26 0 -43.5 14.5t-17.5 44.5z" />
    <glyph glyph-name="Zacute" unicode="&#x179;" horiz-adv-x="587" 
d="M553 0h-518v87l350 518h-340v109h499v-87l-351 -518h360v-109zM482 928q-12 -14 -33 -34t-45.5 -41.5t-48 -41t-42.5 -33.5h-84v13q16 19 36 44.5t39.5 53t32.5 49.5h145v-10z" />
    <glyph glyph-name="zacute" unicode="&#x17a;" horiz-adv-x="484" 
d="M450 0h-417v77l266 368h-250v97h393v-85l-259 -359h267v-98zM425 756q-12 -14 -33 -34t-45.5 -41.5t-48 -41t-42.5 -33.5h-84v13q16 19 36 44.5t39.5 53t32.5 49.5h145v-10z" />
    <glyph glyph-name="Zdotaccent" unicode="&#x17b;" horiz-adv-x="587" 
d="M553 0h-518v87l350 518h-340v109h499v-87l-351 -518h360v-109zM300 924q28 0 49 -15t21 -52q0 -36 -21 -51.5t-49 -15.5q-30 0 -50.5 15.5t-20.5 51.5q0 37 20.5 52t50.5 15z" />
    <glyph glyph-name="zdotaccent" unicode="&#x17c;" horiz-adv-x="484" 
d="M450 0h-417v77l266 368h-250v97h393v-85l-259 -359h267v-98zM243 752q28 0 49 -15t21 -52q0 -36 -21 -51.5t-49 -15.5q-30 0 -50.5 15.5t-20.5 51.5q0 37 20.5 52t50.5 15z" />
    <glyph glyph-name="Zcaron" unicode="&#x17d;" horiz-adv-x="587" 
d="M553 0h-518v87l350 518h-340v109h499v-87l-351 -518h360v-109zM235 778q-14 23 -36 49.5t-46 52.5t-42 45v13h85q26 -17 51.5 -38t51.5 -47q26 26 52 47.5t52 37.5h86v-13q-18 -19 -42.5 -44.5t-47 -52.5t-35.5 -50h-129z" />
    <glyph glyph-name="zcaron" unicode="&#x17e;" horiz-adv-x="484" 
d="M450 0h-417v77l266 368h-250v97h393v-85l-259 -359h267v-98zM177 606q-14 23 -36 49.5t-46 52.5t-42 45v13h85q26 -17 51.5 -38t51.5 -47q26 26 52 47.5t52 37.5h86v-13q-18 -19 -42.5 -44.5t-47 -52.5t-35.5 -50h-129z" />
    <glyph glyph-name="uni0218" unicode="&#x218;" horiz-adv-x="560" 
d="M518 201q0 -62 -30.5 -109.5t-89.5 -74.5t-145 -27q-43 0 -79.5 4t-67 12.5t-58.5 21.5v119q45 -21 100.5 -35t108.5 -14q44 0 73.5 11.5t44 32t14.5 47.5q0 29 -14.5 49t-47.5 38t-91 40q-58 23 -98.5 51t-61 67.5t-20.5 97.5q0 61 31 104t85.5 65.5t126.5 22.5
q64 0 115.5 -12.5t92.5 -31.5l-39 -105q-41 18 -85 29.5t-87 11.5q-38 0 -62.5 -10t-36.5 -28.5t-12 -42.5q0 -29 14 -49t47 -37.5t89 -40.5q59 -23 99.5 -50t62 -64t21.5 -93zM346 -71q-6 -21 -18.5 -47t-28 -52.5t-33.5 -50.5h-73v13q7 18 14 45t13 54.5t7 47.5h119v-10z
" />
    <glyph glyph-name="uni0219" unicode="&#x219;" horiz-adv-x="493" 
d="M450 156q0 -52 -25 -89t-74 -57t-122 -20q-57 0 -100 8t-80 25v108q40 -19 88.5 -31.5t89.5 -12.5q54 0 78 16t24 43q0 17 -10.5 30.5t-38 27.5t-77.5 34t-84.5 40.5t-52.5 50t-18 73.5q0 73 58 111.5t153 38.5q51 0 95.5 -10t87.5 -30l-38 -90q-37 16 -76 26.5t-72 10.5
q-42 0 -64.5 -13t-22.5 -36q0 -18 11 -30.5t39 -25.5t78 -32q49 -19 83.5 -40t52 -50.5t17.5 -75.5zM321 -71q-6 -21 -18.5 -47t-28 -52.5t-33.5 -50.5h-73v13q7 18 14 45t13 54.5t7 47.5h119v-10z" />
    <glyph glyph-name="uni021A" unicode="&#x21a;" horiz-adv-x="569" 
d="M349 0h-129v605h-204v109h537v-109h-204v-605zM361 -71q-6 -21 -18.5 -47t-28 -52.5t-33.5 -50.5h-73v13q7 18 14 45t13 54.5t7 47.5h119v-10z" />
    <glyph glyph-name="uni021B" unicode="&#x21b;" horiz-adv-x="399" 
d="M292 92q22 0 43 4.5t38 9.5v-94q-20 -10 -49.5 -16t-64.5 -6q-47 0 -84.5 15.5t-60 53.5t-22.5 107v280h-72v56l80 44l40 115h80v-119h148v-96h-148v-274q0 -41 19.5 -60.5t52.5 -19.5zM309 -71q-6 -21 -18.5 -47t-28 -52.5t-33.5 -50.5h-73v13q7 18 14 45t13 54.5
t7 47.5h119v-10z" />
    <glyph glyph-name="uni0237" unicode="&#x237;" horiz-adv-x="283" 
d="M33 -240q-24 0 -47 3.5t-39 8.5v101q15 -4 30 -7t33 -3q28 0 48 17t20 67v595h127v-609q0 -50 -17.5 -89t-55 -61.5t-99.5 -22.5z" />
    <glyph glyph-name="circumflex" unicode="&#x2c6;" horiz-adv-x="458" 
d="M293 766q13 -22 35.5 -49.5t47 -54t42.5 -44.5v-12h-86q-26 16 -52 37t-52 47q-27 -26 -52 -46.5t-51 -37.5h-85v12q19 19 42.5 45t45.5 53.5t36 49.5h129z" />
    <glyph glyph-name="caron" unicode="&#x2c7;" horiz-adv-x="458" 
d="M164 606q-14 23 -36 49.5t-46 52.5t-42 45v13h85q26 -17 51.5 -38t51.5 -47q26 26 52 47.5t52 37.5h86v-13q-18 -19 -42.5 -44.5t-47 -52.5t-35.5 -50h-129z" />
    <glyph glyph-name="macronmod" unicode="&#x2c9;" horiz-adv-x="399" 
d="M359 694v-88h-319v88h319z" />
    <glyph glyph-name="breve" unicode="&#x2d8;" horiz-adv-x="423" 
d="M383 758q-3 -45 -24.5 -79.5t-59 -53.5t-90.5 -19q-82 0 -123.5 41t-45.5 111h73q7 -42 30 -53t68 -11q36 0 63 12.5t34 51.5h75z" />
    <glyph glyph-name="dotaccent" unicode="&#x2d9;" horiz-adv-x="221" 
d="M111 752q28 0 49 -15t21 -52q0 -36 -21 -51.5t-49 -15.5q-30 0 -50.5 15.5t-20.5 51.5q0 37 20.5 52t50.5 15z" />
    <glyph glyph-name="ring" unicode="&#x2da;" horiz-adv-x="316" 
d="M157 605q-53 0 -85 30t-32 83t32 82.5t85 29.5q50 0 84.5 -29.5t34.5 -81.5q0 -54 -34 -84t-85 -30zM157 667q22 0 36 14t14 37t-14.5 36.5t-35.5 13.5q-22 0 -36.5 -13.5t-14.5 -36.5t13 -37t38 -14z" />
    <glyph glyph-name="ogonek" unicode="&#x2db;" horiz-adv-x="266" 
d="M132 -109q0 -20 11.5 -30t30.5 -10q16 0 29.5 3l22.5 5v-76q-15 -4 -31.5 -7.5t-39.5 -3.5q-54 0 -84.5 27.5t-30.5 74.5q0 26 13 52t35.5 49.5t51.5 43.5l59 -19q-34 -32 -50.5 -56.5t-16.5 -52.5z" />
    <glyph glyph-name="tilde" unicode="&#x2dc;" horiz-adv-x="464" 
d="M40 605q3 36 12 63t23.5 44.5t34.5 26.5t45 9q21 0 41.5 -8t40.5 -18.5t38.5 -18.5t36.5 -8q17 0 29 12t18 42h65q-6 -70 -36 -106.5t-77 -36.5q-22 0 -42.5 8t-41 19t-39 18.5t-36.5 7.5t-29 -12t-18 -42h-65z" />
    <glyph glyph-name="hungarumlaut" unicode="&#x2dd;" horiz-adv-x="496" 
d="M456 756q-8 -13 -25.5 -33t-40.5 -42t-45.5 -41.5t-40.5 -33.5h-69v13q14 19 31 44.5t34 53t27 49.5h129v-10zM261 756q-8 -13 -26 -33t-41 -42t-45.5 -41.5t-39.5 -33.5h-69v13q14 19 31 44.5t33.5 53t27.5 49.5h129v-10z" />
    <glyph glyph-name="gravecomb" unicode="&#x300;" horiz-adv-x="0" 
d="M-373 766q13 -22 32.5 -49.5t40 -53t35.5 -44.5v-13h-85q-18 14 -42 33.5t-48 41t-45 41.5t-33 34v10h145z" />
    <glyph glyph-name="acutecomb" unicode="&#x301;" horiz-adv-x="0" 
d="M-96 756q-12 -14 -33 -34t-45.5 -41.5t-48 -41t-42.5 -33.5h-84v13q16 19 36 44.5t39.5 53t32.5 49.5h145v-10z" />
    <glyph glyph-name="uni0302" unicode="&#x302;" horiz-adv-x="0" 
d="M63 766q13 -22 35.5 -49.5t47 -54t42.5 -44.5v-12h-86q-26 16 -52 37t-52 47q-27 -26 -52 -46.5t-51 -37.5h-85v12q19 19 42.5 45t45.5 53.5t36 49.5h129z" />
    <glyph glyph-name="tildecomb" unicode="&#x303;" horiz-adv-x="0" 
d="M-523 605q3 36 12 63t23.5 44.5t34.5 26.5t45 9q21 0 41.5 -8t40.5 -18.5t38.5 -18.5t36.5 -8q17 0 29 12t18 42h65q-6 -70 -36 -106.5t-77 -36.5q-22 0 -42.5 8t-41 19t-39 18.5t-36.5 7.5t-29 -12t-18 -42h-65z" />
    <glyph glyph-name="uni0304" unicode="&#x304;" horiz-adv-x="0" 
d="M160 694v-88h-319v88h319z" />
    <glyph glyph-name="uni0306" unicode="&#x306;" horiz-adv-x="0" 
d="M172 758q-3 -45 -24.5 -79.5t-59 -53.5t-90.5 -19q-82 0 -123.5 41t-45.5 111h73q7 -42 30 -53t68 -11q36 0 63 12.5t34 51.5h75z" />
    <glyph glyph-name="uni0307" unicode="&#x307;" horiz-adv-x="0" 
d="M1 752q28 0 49 -15t21 -52q0 -36 -21 -51.5t-49 -15.5q-30 0 -50.5 15.5t-20.5 51.5q0 37 20.5 52t50.5 15z" />
    <glyph glyph-name="uni0308" unicode="&#x308;" horiz-adv-x="0" 
d="M-164 684q0 32 17.5 46t42.5 14t43.5 -14t18.5 -46q0 -30 -18.5 -44.5t-43.5 -14.5t-42.5 14.5t-17.5 44.5zM41 684q0 32 17.5 46t43.5 14q24 0 42.5 -14t18.5 -46q0 -30 -18.5 -44.5t-42.5 -14.5q-26 0 -43.5 14.5t-17.5 44.5z" />
    <glyph glyph-name="uni030A" unicode="&#x30a;" horiz-adv-x="0" 
d="M-5 605q-53 0 -85 30t-32 83t32 82.5t85 29.5q50 0 84.5 -29.5t34.5 -81.5q0 -54 -34 -84t-85 -30zM-5 667q22 0 36 14t14 37t-14.5 36.5t-35.5 13.5q-22 0 -36.5 -13.5t-14.5 -36.5t13 -37t38 -14z" />
    <glyph glyph-name="uni030B" unicode="&#x30b;" horiz-adv-x="0" 
d="M269 756q-8 -13 -25.5 -33t-40.5 -42t-45.5 -41.5t-40.5 -33.5h-69v13q14 19 31 44.5t34 53t27 49.5h129v-10zM74 756q-8 -13 -26 -33t-41 -42t-45.5 -41.5t-39.5 -33.5h-69v13q14 19 31 44.5t33.5 53t27.5 49.5h129v-10z" />
    <glyph glyph-name="uni030C" unicode="&#x30c;" horiz-adv-x="0" 
d="M-67 606q-14 23 -36 49.5t-46 52.5t-42 45v13h85q26 -17 51.5 -38t51.5 -47q26 26 52 47.5t52 37.5h86v-13q-18 -19 -42.5 -44.5t-47 -52.5t-35.5 -50h-129z" />
    <glyph glyph-name="uni0312" unicode="&#x312;" horiz-adv-x="0" 
d="M-91 464q9 36 23 80.5t30.5 89t32.5 80.5h92q-9 -41 -18.5 -87.5t-17.5 -91.5t-13 -82h-122z" />
    <glyph glyph-name="uni0326" unicode="&#x326;" horiz-adv-x="0" 
d="M78 -71q-6 -21 -18.5 -47t-28 -52.5t-33.5 -50.5h-73v13q7 18 14 45t13 54.5t7 47.5h119v-10z" />
    <glyph glyph-name="uni0327" unicode="&#x327;" horiz-adv-x="0" 
d="M108 -133q0 -50 -37 -78.5t-106 -28.5q-22 0 -41 3t-31 7v69q12 -3 27.5 -5t30.5 -2q29 0 45 9t16 29q0 23 -23 34t-61 17l38 79h72l-19 -44q22 -5 42.5 -15t33.5 -28t13 -46z" />
    <glyph glyph-name="uni0328" unicode="&#x328;" horiz-adv-x="0" 
d="M-1 -109q0 -20 11.5 -30t30.5 -10q16 0 29.5 3l22.5 5v-76q-15 -4 -31.5 -7.5t-39.5 -3.5q-54 0 -84.5 27.5t-30.5 74.5q0 26 13 52t35.5 49.5t51.5 43.5l59 -19q-34 -32 -50.5 -56.5t-16.5 -52.5z" />
    <glyph glyph-name="uni0589" unicode="&#x589;" horiz-adv-x="276" 
d="M61 64q0 43 22.5 60.5t54.5 17.5t54.5 -17.5t22.5 -60.5q0 -41 -22.5 -59t-54.5 -18t-54.5 18t-22.5 59zM61 476q0 43 22.5 60.5t54.5 17.5t54.5 -17.5t22.5 -60.5q0 -41 -22.5 -59.5t-54.5 -18.5t-54.5 18.5t-22.5 59.5z" />
    <glyph glyph-name="uni10A0" unicode="&#x10a0;" horiz-adv-x="635" 
d="M399 -10q-101 0 -178.5 41t-120.5 115t-43 174q0 66 20.5 121.5t56.5 97.5t83 68v3h-142v104h511v-108h-129q-84 0 -143 -34.5t-90 -95.5t-31 -140q0 -75 26 -128t75 -81t118 -28q47 0 90 10t84 24v-110q-42 -17 -87 -25t-100 -8z" />
    <glyph glyph-name="uni10A1" unicode="&#x10a1;" horiz-adv-x="814" 
d="M486 0v201q0 17 1.5 43t4.5 60h-5q-28 -42 -80.5 -68t-117.5 -26q-73 0 -126.5 30.5t-82 88t-28.5 138.5q0 66 17.5 128t50.5 119h142q-22 -31 -39.5 -71t-27.5 -84t-10 -88q0 -49 15 -83t45.5 -52t75.5 -18q55 0 92 21t55 64.5t18 111.5v199h130v-607l192 1v-108h-322z
" />
    <glyph glyph-name="uni10A2" unicode="&#x10a2;" horiz-adv-x="771" 
d="M444 0v605h-245v-225h-128v334h502v-606h192v-108h-321z" />
    <glyph glyph-name="uni10A3" unicode="&#x10a3;" horiz-adv-x="769" 
d="M383 -10q-105 0 -177.5 34.5t-110.5 98.5t-38 151q0 78 31 137.5t90 96t142 46.5v52h-236v108h601v-108h-236v-52q86 -9 144.5 -45.5t88.5 -96.5t30 -139q0 -87 -37.5 -150.5t-110.5 -98t-181 -34.5zM383 99q64 0 106.5 20.5t64 59.5t21.5 95t-21.5 95.5t-63.5 60.5
t-106 21q-62 0 -104.5 -20.5t-64.5 -60t-22 -96.5q0 -56 22 -95t64 -59.5t104 -20.5z" />
    <glyph glyph-name="uni10A4" unicode="&#x10a4;" horiz-adv-x="663" 
d="M444 0v605h-245v-225h-128v334h502v-714h-129z" />
    <glyph glyph-name="uni10A5" unicode="&#x10a5;" horiz-adv-x="856" 
d="M444 0v605h-245v-225h-128v334h502v-288h242v-252h-117v144h-125v-318h-129z" />
    <glyph glyph-name="uni10A6" unicode="&#x10a6;" horiz-adv-x="801" 
d="M466 -10q-87 0 -147.5 34t-91 97t-30.5 151v335h-198v107h326v-152q0 -12 -0.5 -28.5t-1.5 -34t-4 -34.5h7q35 46 78 66.5t103 20.5q76 0 129.5 -35t82.5 -98t29 -147q0 -86 -32.5 -150t-95.5 -98t-154 -34zM466 98q47 0 80 20t51 59t18 95q0 57 -16.5 95t-47.5 57.5
t-76 19.5q-49 0 -82.5 -20t-50.5 -58.5t-17 -94.5q0 -84 37 -128.5t104 -44.5z" />
    <glyph glyph-name="uni10A7" unicode="&#x10a7;" horiz-adv-x="925" 
d="M642 426h242v-252h-117v144h-125v-318h-230q-170 0 -262.5 91t-92.5 256q0 121 44.5 202.5t128.5 123t201 41.5h211v-288zM513 107v499h-77q-123 0 -183.5 -63.5t-60.5 -191.5q0 -121 57 -182.5t170 -61.5h94z" />
    <glyph glyph-name="uni10A8" unicode="&#x10a8;" horiz-adv-x="505" 
d="M286 0v606h-287v108h416v-714h-129z" />
    <glyph glyph-name="uni10A9" unicode="&#x10a9;" horiz-adv-x="715" 
d="M510 0v83q0 24 1.5 52t3.5 57h-5q-33 -46 -79 -69.5t-109 -23.5q-75 0 -129 32.5t-82.5 91t-28.5 137.5v354h130v-76q0 -15 -1.5 -41.5t-4.5 -61.5h5q35 48 80 70t108 22q76 0 129.5 -33t82 -91.5t28.5 -135.5v-367h-129zM356 207q50 0 84 18.5t52 54t18 83.5
q0 50 -17 84.5t-49 53t-79 18.5q-49 0 -83.5 -18.5t-52 -53.5t-17.5 -84q0 -48 16 -83.5t48.5 -54t79.5 -18.5z" />
    <glyph glyph-name="uni10AA" unicode="&#x10aa;" horiz-adv-x="1009" 
d="M675 -10q-87 0 -147.5 33.5t-91.5 97t-31 151.5v333h-206v-225h-128v334h462v-152q0 -9 -0.5 -23t-1.5 -32.5t-3 -41.5h6q35 46 78 66.5t103 20.5q77 0 130.5 -35.5t82.5 -98.5t29 -146q0 -87 -33.5 -150.5t-96.5 -97.5t-152 -34zM674 98q47 0 80 20t51 59t18 95
q0 57 -16.5 95t-47.5 57.5t-76 19.5q-48 0 -81.5 -20t-51 -58.5t-17.5 -94.5q0 -84 36.5 -128.5t104.5 -44.5z" />
    <glyph glyph-name="uni10AB" unicode="&#x10ab;" horiz-adv-x="777" 
d="M324 -10q-79 0 -139 29t-94 83.5t-34 132.5t32 132.5t91.5 82.5t143.5 28h141v128h-362v108h490v-236h144v-104h-144v-128q0 -77 -31 -134.5t-91 -89.5t-147 -32zM322 98q74 0 108.5 40t34.5 108v128h-138q-66 0 -102 -35.5t-36 -103.5t37 -102.5t96 -34.5z" />
    <glyph glyph-name="uni10AC" unicode="&#x10ac;" horiz-adv-x="727" 
d="M90 0v714h525v-108h-395v-104q0 -17 -1.5 -45t-5.5 -68h6q22 33 51 54t64.5 32t77.5 11q73 0 124.5 -30t78.5 -87.5t27 -141.5v-227h-129v220q0 81 -35.5 119.5t-98.5 38.5q-77 0 -118 -47.5t-41 -134.5v-196h-130z" />
    <glyph glyph-name="uni10AD" unicode="&#x10ad;" horiz-adv-x="898" 
d="M394 -10q-87 0 -150 26.5t-104.5 75t-62 116.5t-20.5 151q0 110 36.5 192t111.5 127.5t190 45.5q112 0 186.5 -45.5t111.5 -127.5t37 -193q0 -77 -18 -141t-55 -111q16 -13 31.5 -19t32.5 -6q29 0 43.5 20.5t14.5 62.5h113q-1 -54 -15.5 -93t-46.5 -60t-88 -21
q-39 0 -74 16.5t-65 44.5q-39 -29 -92 -45t-117 -16zM394 100q70 0 114 31t64.5 89t20.5 138q0 120 -46.5 188.5t-151.5 68.5q-70 0 -115 -31t-66 -88.5t-21 -137.5t21 -138t66 -89t114 -31z" />
    <glyph glyph-name="uni10AE" unicode="&#x10ae;" horiz-adv-x="855" 
d="M484 -10q-137 0 -212 72t-75 201v343h-198v108h327v-446q0 -83 40 -125.5t116 -42.5q54 0 89.5 19t52.5 56.5t17 92.5v446h129v-449q0 -85 -33 -146.5t-96.5 -95t-156.5 -33.5z" />
    <glyph glyph-name="uni10AF" unicode="&#x10af;" horiz-adv-x="758" 
d="M537 0v183q0 31 2 60t5 61h-5q-29 -42 -81 -68t-117 -26q-71 0 -124 29.5t-82 81.5t-29 119q0 57 19.5 97t49.5 65v4h-171v108h334v-100q-38 -11 -60 -34.5t-31 -53t-9 -58.5q0 -74 35 -112t102 -38q54 0 90.5 21t54.5 63t18 105v207h130v-714h-131z" />
    <glyph glyph-name="uni10B0" unicode="&#x10b0;" horiz-adv-x="954" 
d="M319 -10q-83 0 -143 34t-92 91.5t-32 126.5q0 48 15.5 91.5t46.5 85.5l110 -46q-18 -29 -27.5 -61.5t-9.5 -64.5q0 -41 15 -74.5t44 -53t70 -19.5q65 0 99 41t34 127v446h130v-133q0 -17 -1.5 -43t-5.5 -66h6q29 43 66.5 61.5t86.5 18.5q59 0 99.5 -28.5t62 -74.5
t21.5 -99q0 -36 -11 -72.5t-31 -67.5l-114 36q13 21 18.5 44t5.5 45q0 29 -11 54t-33 40t-54 15t-56 -14.5t-36.5 -41.5t-12.5 -66v-67q0 -83 -30.5 -142t-88.5 -91t-141 -32z" />
    <glyph glyph-name="uni10B1" unicode="&#x10b1;" horiz-adv-x="664" 
d="M345 -10q-82 0 -140.5 32.5t-89 93t-30.5 143.5v455h130v-446q0 -86 34.5 -127t98.5 -41q41 0 70 19.5t44 53t15 74.5q0 32 -9 64.5t-28 61.5l110 46q31 -42 46.5 -85.5t15.5 -91.5q0 -69 -32 -126.5t-92 -91.5t-143 -34z" />
    <glyph glyph-name="uni10B2" unicode="&#x10b2;" horiz-adv-x="628" 
d="M90 0v714h211q135 0 202 -55t67 -161q0 -53 -17 -96t-51.5 -74.5t-87 -48.5t-123.5 -17h-72v-154h321v-108h-450zM219 370h59q54 0 89.5 12.5t53.5 39.5t18 71q0 56 -35 85t-109 29h-76v-237z" />
    <glyph glyph-name="uni10B3" unicode="&#x10b3;" horiz-adv-x="786" 
d="M600 -180q-14 0 -29 2t-29 5v98q9 -1 19.5 -2.5t22.5 -1.5q33 0 50 16.5t17 43.5q0 25 -15.5 42.5t-38.5 27.5q-40 -30 -89.5 -45.5t-113.5 -15.5q-84 0 -146.5 25t-105 73t-64 116.5t-21.5 154.5q0 114 38 195.5t113 125.5t187 44q111 0 185 -44.5t112 -126.5t38 -195
q0 -69 -16.5 -128.5t-55.5 -113.5q32 -10 57 -29t40 -47t15 -66q0 -73 -46 -113.5t-124 -40.5zM394 100q68 0 112 29.5t65.5 87.5t21.5 141q0 125 -48.5 191t-149.5 66q-68 0 -113 -30t-67 -87t-22 -140t22 -141t67 -87.5t112 -29.5z" />
    <glyph glyph-name="uni10B4" unicode="&#x10b4;" horiz-adv-x="861" 
d="M367 0v168q-92 1 -162 34.5t-109 95t-39 146.5q0 72 26.5 124.5t76 87t118 51.5t153.5 17q92 0 161.5 -18t116 -53.5t70.5 -88t24 -120.5q0 -87 -39 -148.5t-109 -94t-162 -33.5v-168h-126zM367 270v348q-57 -1 -98 -22t-62.5 -59t-21.5 -92t21.5 -93t62.5 -60t98 -22z
M493 270q58 1 98.5 22t62.5 60t22 93t-22 91.5t-62.5 59t-98.5 22.5v-348z" />
    <glyph glyph-name="uni10B5" unicode="&#x10b5;" horiz-adv-x="649" 
d="M255 0v370h-208v108h208v236h129v-236h207v-108h-207v-370h-129z" />
    <glyph glyph-name="uni10B6" unicode="&#x10b6;" horiz-adv-x="743" 
d="M85 0v450q0 85 33.5 146.5t98 94.5t157.5 33q137 0 210.5 -72.5t73.5 -201.5v-450h-129v446q0 84 -40.5 126t-118.5 42q-51 0 -86 -18.5t-52.5 -56t-17.5 -94.5v-445h-129z" />
    <glyph glyph-name="uni10B7" unicode="&#x10b7;" horiz-adv-x="706" 
d="M486 0v201q0 17 1.5 43t4.5 60h-5q-28 -42 -80.5 -68t-117.5 -26q-73 0 -126.5 30.5t-82 88t-28.5 138.5q0 66 17.5 128t50.5 119h142q-22 -31 -39.5 -71t-27.5 -84t-10 -88q0 -49 15 -83t45.5 -52t75.5 -18q55 0 92 21t55 64.5t18 111.5v199h130v-714h-130z" />
    <glyph glyph-name="uni10B8" unicode="&#x10b8;" horiz-adv-x="717" 
d="M359 -10q-75 0 -134.5 26t-94 72.5t-34.5 106.5q0 25 6 47t18 44l115 -38q-3 -10 -4.5 -20.5t-1.5 -20.5q0 -34 15.5 -58.5t44.5 -37.5t70 -13q42 0 73 18t48.5 52t17.5 82v66q0 13 0.5 29.5t2.5 35t3 40.5h-5q-34 -49 -79.5 -72.5t-103.5 -23.5q-72 0 -124 31t-79.5 89
t-27.5 138v131h130v-124q0 -79 35.5 -118t97.5 -39q70 0 110 47.5t40 134.5v99h129v-462q0 -83 -33 -142t-92.5 -89.5t-142.5 -30.5z" />
    <glyph glyph-name="uni10B9" unicode="&#x10b9;" horiz-adv-x="702" 
d="M90 0v714h130v-257h402v-457h-129v349h-273v-349h-130z" />
    <glyph glyph-name="uni10BA" unicode="&#x10ba;" horiz-adv-x="718" 
d="M369 -9q-97 0 -167 43.5t-107.5 125.5t-37.5 197t43 197t122.5 126t190.5 44q60 0 113.5 -11.5t95.5 -31.5l-45 -105q-40 19 -81.5 29t-83.5 10q-70 0 -119.5 -32t-75 -90t-25.5 -137q0 -81 23.5 -138.5t67.5 -88t104 -30.5q36 0 71.5 9t68.5 26v166h125v-300h-125v29
q-34 -19 -74 -28.5t-84 -9.5z" />
    <glyph glyph-name="uni10BB" unicode="&#x10bb;" horiz-adv-x="915" 
d="M316 -10q-79 0 -137 30.5t-90 86t-32 129.5q0 75 31 130t89.5 85t141.5 30h123v233h128v-233h265v-481h-116v373h-149v-127q0 -82 -30.5 -139t-87 -87t-136.5 -30zM314 98q63 0 95.5 36t32.5 108v131h-117q-67 0 -102 -35t-35 -101q0 -65 34 -102t92 -37z" />
    <glyph glyph-name="uni10BC" unicode="&#x10bc;" horiz-adv-x="616" 
d="M90 0v714h211q135 0 202 -52t67 -152q0 -65 -30 -115t-92 -78t-157 -28h-72v-66h245v-179h-117v72h-128v-116h-129zM219 396h59q54 0 89.5 11.5t53.5 35.5t18 63q0 49 -35 75t-109 26h-76v-211z" />
    <glyph glyph-name="uni10BD" unicode="&#x10bd;" horiz-adv-x="587" 
d="M287 -10q-118 0 -181 51t-63 140q0 15 2 28.5t5 24.5h126q-3 -9 -4.5 -20.5t-1.5 -23.5q0 -43 30 -67.5t89 -24.5q60 0 89.5 24t29.5 68q0 33 -18.5 53.5t-52 37t-77.5 33.5t-79.5 37.5t-60.5 46t-39 58t-14 75.5q0 62 29.5 105t81.5 65.5t119 22.5q68 0 117.5 -22
t76.5 -63t27 -99q0 -6 -0.5 -12.5t-1.5 -10.5h-126q1 4 1.5 9.5t0.5 10.5q0 24 -11.5 41.5t-33 27t-51.5 9.5q-46 0 -74 -21.5t-28 -60.5q0 -33 18 -53.5t50.5 -36t75.5 -33.5q59 -22 103.5 -49t68.5 -66t24 -100q0 -96 -63.5 -150.5t-183.5 -54.5z" />
    <glyph glyph-name="uni10BE" unicode="&#x10be;" horiz-adv-x="712" 
d="M90 714h130v-329h273v329h129v-437h-402v-169h387v-108h-517v714z" />
    <glyph glyph-name="uni10BF" unicode="&#x10bf;" horiz-adv-x="676" 
d="M25 0l245 369l-156 237h-97v108h589v-88l-182 -261l246 -365h-145l-179 277l-180 -277h-141zM349 447l107 162h-208z" />
    <glyph glyph-name="uni10C0" unicode="&#x10c0;" horiz-adv-x="983" 
d="M665 -10q-83 0 -141.5 32.5t-89 93t-30.5 143.5v346h-205v-225h-128v334h463v-446q0 -86 34.5 -127t98.5 -41q42 0 70.5 19.5t43.5 53t15 74.5q0 32 -9 64.5t-28 61.5l110 46q31 -42 46.5 -85.5t15.5 -91.5q0 -69 -32 -126.5t-92 -91.5t-142 -34z" />
    <glyph glyph-name="uni10C1" unicode="&#x10c1;" horiz-adv-x="728" 
d="M90 0v714h130v-142q0 -21 -1.5 -46.5t-4.5 -56.5h5q20 28 46 47t58.5 28.5t69.5 9.5q96 0 149 -54.5t58 -150.5h108v-108h-234v72q0 64 -27 98.5t-88 34.5q-46 0 -77.5 -19.5t-46.5 -58.5t-15 -98v-270h-130z" />
    <glyph glyph-name="uni10C2" unicode="&#x10c2;" horiz-adv-x="647" 
d="M236 -10q-56 0 -102.5 7.5t-91.5 25.5v110q45 -15 92.5 -24.5t92.5 -9.5q71 0 122 25.5t78 73.5t27 115q0 51 -14.5 90t-43.5 65.5t-72 40t-99 13.5h-151v192h123v-84h42q84 0 149.5 -20.5t110 -60.5t67.5 -98.5t23 -135.5q0 -102 -42.5 -175t-121.5 -111.5t-189 -38.5z
" />
    <glyph glyph-name="uni10C3" unicode="&#x10c3;" horiz-adv-x="696" 
d="M476 0v165q0 17 1.5 43t4.5 60h-5q-28 -42 -80 -67.5t-113 -25.5q-68 0 -120.5 27t-82 78t-29.5 125q0 47 15.5 91t46.5 86l110 -46q-18 -29 -27.5 -61t-9.5 -62q0 -40 14.5 -69t42.5 -45t68 -16q54 0 90.5 20t55 62.5t18.5 110.5v238h130v-714h-130z" />
    <glyph glyph-name="uni10C4" unicode="&#x10c4;" horiz-adv-x="719" 
d="M295 0v235q-108 16 -165 86t-57 183v210h129v-206q0 -83 40 -125.5t119 -42.5q77 0 116.5 43t39.5 126v205h129v-209q0 -74 -25.5 -130t-74.5 -91.5t-122 -47.5v-236h-129z" />
    <glyph glyph-name="uni10C5" unicode="&#x10c5;" horiz-adv-x="856" 
d="M254 -10q-103 0 -157 42t-54 119q0 81 56 123.5t170 42.5h66v202q0 64 26.5 109.5t79 70.5t129.5 25q116 0 177.5 -45.5t61.5 -127.5q0 -84 -62.5 -127t-177.5 -43h-106v-64h271v-211h-117v112h-154v-28q0 -93 -53 -146.5t-156 -53.5zM255 87q40 0 60 27t20 73v31h-62
q-52 0 -74 -17t-22 -50q0 -32 19 -48t59 -16zM463 477h95q63 0 90 19.5t27 54.5q0 34 -25.5 54t-80.5 20q-53 0 -79.5 -26t-26.5 -75v-47z" />
    <glyph glyph-name="uni10C7" unicode="&#x10c7;" horiz-adv-x="587" 
d="M300 -10q-120 0 -183.5 54.5t-63.5 150.5q0 61 24.5 100t68.5 66t103 49q44 18 76.5 33.5t50 36t17.5 53.5q0 39 -27.5 60.5t-74.5 21.5q-30 0 -51.5 -9.5t-33 -27t-11.5 -41.5q0 -5 0.5 -10.5t1.5 -9.5h-126q-1 4 -1.5 10.5t-0.5 12.5q0 58 27.5 99t77.5 63t117 22
t118.5 -22.5t81 -65.5t29.5 -105q0 -43 -13.5 -75.5t-38.5 -58t-60.5 -46t-80.5 -37.5q-44 -17 -77 -33.5t-51.5 -37t-18.5 -53.5q0 -44 29.5 -68t88.5 -24q60 0 90 24.5t30 67.5q0 12 -1.5 23.5t-4.5 20.5h125q3 -11 5 -24.5t2 -28.5q0 -89 -62.5 -140t-181.5 -51z" />
    <glyph glyph-name="uni10CD" unicode="&#x10cd;" horiz-adv-x="587" 
d="M35 0v87l350 518h-340v109h499v-87l-351 -518h360v-109h-518z" />
    <glyph glyph-name="uni10D0" unicode="&#x10d0;" horiz-adv-x="571" 
d="M282 -10q-67 0 -121 24t-85 70.5t-31 113.5q0 26 4.5 46.5t10.5 36.5h122q-4 -15 -7 -34.5t-3 -40.5q0 -37 13.5 -63t38 -40t58.5 -14q35 0 59 14t37 40t13 63q0 46 -21.5 76t-49.5 56q-24 24 -48.5 51.5t-41 64.5t-16.5 88h127q0 -41 24.5 -73.5t56.5 -64.5
q25 -23 47.5 -51t37 -63t14.5 -83q0 -65 -30 -114t-84 -76t-125 -27z" />
    <glyph glyph-name="uni10D1" unicode="&#x10d1;" horiz-adv-x="617" 
d="M381 544q56 -13 97.5 -49t65 -91.5t23.5 -131.5q0 -67 -18 -119.5t-51.5 -89t-82 -55t-108.5 -18.5q-56 0 -103 18.5t-81 55t-53.5 89t-19.5 119.5q0 81 25 139t72.5 93t112.5 44q5 9 8 20t3 24q0 20 -9.5 33t-23.5 24q-20 16 -39 39.5t-19 71.5h122q0 -21 12 -37t29 -31
q19 -16 35 -36.5t16 -52.5q0 -18 -3 -32t-10 -27zM309 89q45 0 73.5 22t41.5 63.5t13 97.5q0 58 -13.5 98t-41.5 61.5t-74 21.5q-67 0 -97.5 -47.5t-30.5 -133.5q0 -56 13.5 -97.5t42 -63.5t73.5 -22z" />
    <glyph glyph-name="uni10D2" unicode="&#x10d2;" horiz-adv-x="607" 
d="M302 -250q-56 0 -103 18.5t-81 53.5t-53.5 85.5t-19.5 114.5q0 82 29 138.5t81 89t122 42.5q56 9 80 32t24 60q0 34 -20.5 55.5t-58.5 21.5t-58 -20.5t-20 -55.5q0 -7 1.5 -15t2.5 -16h-120q-3 12 -4.5 24t-1.5 24q0 45 24.5 79t69.5 52.5t106 18.5q62 0 107 -20.5
t70 -56t25 -79.5t-22 -79t-74 -52v-4q54 -17 87.5 -52t50 -83t16.5 -104q0 -64 -18 -114.5t-51.5 -85.5t-81.5 -53.5t-109 -18.5zM304 -151q45 0 73.5 21.5t41.5 61t13 90.5q0 53 -13.5 91t-41.5 59t-74 21q-67 0 -97.5 -46t-30.5 -125q0 -51 13.5 -90.5t42 -61t73.5 -21.5z
" />
    <glyph glyph-name="uni10D3" unicode="&#x10d3;" horiz-adv-x="903" 
d="M550 -250q-24 41 -60.5 68.5t-76.5 41.5t-76 14q-41 0 -77.5 -10.5t-74.5 -29.5l-40 84q22 10 49.5 19t71.5 11v4q-66 31 -115 78t-75 111t-26 143q0 77 24.5 138t71.5 95.5t115 34.5q44 0 77.5 -12t57.5 -36t36 -60h5q21 54 69.5 81t107.5 27q72 0 126 -32t83.5 -93
t29.5 -148q0 -65 -18 -116t-50.5 -86.5t-76.5 -54t-96 -18.5q-56 0 -101 18.5t-76.5 53.5t-49 85.5t-17.5 114.5v41q0 67 -24 101.5t-71 34.5q-31 0 -52.5 -21.5t-31.5 -59t-10 -87.5q0 -65 16.5 -114t46.5 -85t69 -61.5t84 -44.5q61 -25 108.5 -49.5t82 -56t58.5 -77.5z
M610 103q40 0 65 22t36.5 61.5t11.5 92.5q0 81 -26.5 127.5t-85.5 46.5t-85.5 -46.5t-26.5 -127.5q0 -53 11.5 -92.5t36 -61.5t63.5 -22z" />
    <glyph glyph-name="uni10D4" unicode="&#x10d4;" horiz-adv-x="602" 
d="M289 -250q-55 0 -100.5 17.5t-77.5 49.5t-49 76t-17 98q0 29 5.5 54.5t14.5 46.5h120q-5 -19 -9 -44t-4 -47q0 -43 12.5 -77.5t39 -54.5t66.5 -20q43 0 69 20t37 57t11 87v304q0 67 -25 101.5t-78 34.5q-32 0 -56 -13t-37 -38.5t-13 -62.5q0 -20 2.5 -39t7.5 -39h-122
q-6 17 -10.5 37.5t-4.5 46.5q0 67 31 113.5t83.5 70t117.5 23.5q71 0 123 -27.5t80 -79.5t28 -126v-309q0 -82 -28.5 -140t-83 -89t-133.5 -31z" />
    <glyph glyph-name="uni10D5" unicode="&#x10d5;" horiz-adv-x="597" 
d="M299 -250q-60 0 -107 16.5t-79.5 46.5t-50 70t-17.5 85q0 28 5 52t12 42h122q-5 -16 -8.5 -38t-3.5 -41q0 -34 13.5 -64.5t41.5 -50t72 -19.5q43 0 70 20t40 52.5t13 72.5q0 42 -14.5 72.5t-44 47t-72.5 16.5h-38v99h43q59 0 84 34.5t25 82.5q0 31 -12 55t-34.5 38
t-55.5 14q-34 0 -56.5 -12.5t-34.5 -35.5t-12 -55q0 -14 2 -26.5t6 -28.5h-124q-5 17 -8 32t-3 33q0 57 30 100.5t82 67.5t119 24q69 0 120.5 -25.5t79.5 -69.5t28 -99q0 -73 -38.5 -116.5t-101.5 -58.5v-4q42 -6 78.5 -30t59 -64.5t22.5 -98.5q0 -69 -31 -123t-87.5 -83.5
t-134.5 -29.5z" />
    <glyph glyph-name="uni10D6" unicode="&#x10d6;" horiz-adv-x="639" 
d="M339 -10q-54 0 -99 18.5t-78.5 53t-51.5 83.5t-18 110q0 52 14.5 96.5t44.5 75.5v4q-40 11 -68 34t-43.5 56.5t-15.5 74.5q0 45 21.5 84.5t64 64.5t105.5 25q60 0 102.5 -22.5t65 -59.5t22.5 -80q0 -26 -6.5 -47.5t-17.5 -36.5v-3q4 -1 7 -1t8 -2q42 -6 77.5 -26.5
t61 -53t40 -76.5t14.5 -99q0 -64 -17.5 -115t-50.5 -86t-79 -53.5t-103 -18.5zM341 89q42 0 68 21.5t38 61t12 91.5t-12 89.5t-38 58.5t-69 21q-63 0 -90.5 -45.5t-27.5 -123.5q0 -52 12 -91.5t38.5 -61t68.5 -21.5zM215 500q37 0 54.5 25.5t17.5 66.5q0 38 -17 64.5
t-56 26.5q-37 0 -54.5 -26.5t-17.5 -64.5q0 -36 17 -64t56 -28z" />
    <glyph glyph-name="uni10D7" unicode="&#x10d7;" horiz-adv-x="902" 
d="M292 -10q-52 0 -96.5 18.5t-76.5 55t-50.5 89t-18.5 119.5q0 91 30 153t84 94.5t126 32.5q59 0 108.5 -27t70.5 -81h6q13 36 36 60t56 36t77 12q67 0 113 -34t70 -94.5t24 -138.5q0 -56 -6.5 -104t-20.5 -92t-36 -89h-126q32 68 46.5 135t14.5 143q0 54 -10.5 93
t-31 60.5t-51.5 21.5q-46 0 -70.5 -35t-24.5 -105v-44q0 -66 -17 -118t-49 -88t-76.5 -54.5t-100.5 -18.5zM294 89q39 0 63.5 22t36 63.5t11.5 97.5q0 86 -26.5 133.5t-85.5 47.5q-60 0 -86.5 -47.5t-26.5 -133.5q0 -56 11.5 -97.5t37 -63.5t65.5 -22z" />
    <glyph glyph-name="uni10D8" unicode="&#x10d8;" horiz-adv-x="593" 
d="M109 0q-19 46 -32.5 88.5t-20 88t-6.5 98.5q0 84 27.5 146t82.5 96.5t137 34.5q81 0 136 -34.5t82.5 -96.5t27.5 -146q0 -53 -6.5 -98.5t-19.5 -88t-33 -88.5h-124q28 68 41 134.5t13 139.5q0 61 -14 100.5t-40 59t-63 19.5q-38 0 -64 -19t-40 -59t-14 -102q0 -49 6 -94
t18 -89.5t30 -89.5h-124z" />
    <glyph glyph-name="uni10D9" unicode="&#x10d9;" horiz-adv-x="582" 
d="M285 -250q-74 0 -129.5 29t-85.5 78.5t-30 110.5q0 28 5 52t12 42h122q-5 -16 -8.5 -38t-3.5 -41q0 -34 13 -64.5t39 -50t67 -19.5q42 0 69 20t39.5 53.5t12.5 75.5q0 45 -15 79t-44 53.5t-70 19.5h-40v99h42q40 0 64 15t35 39t11 49q0 28 -11.5 50.5t-33.5 36.5t-54 14
v99q68 0 119 -24.5t79 -66t28 -92.5q0 -66 -38.5 -108.5t-101.5 -57.5v-4q42 -6 78.5 -31t59 -69t22.5 -109q0 -72 -31 -126t-87 -84t-134 -30z" />
    <glyph glyph-name="uni10DA" unicode="&#x10da;" horiz-adv-x="1124" 
d="M688 -250q-22 37 -54.5 64t-70.5 44t-78 25t-77 8q-57 0 -103.5 -14.5t-86.5 -37.5l-44 83q17 10 38 18.5t44 14.5t46 8v3q-54 17 -100 45.5t-80 69t-53 93.5t-19 120q0 76 24 134t71 91t114 33q60 0 97.5 -27.5t54.5 -75.5h5q17 48 53.5 75.5t91.5 27.5q56 0 93 -27.5
t52 -75.5h6q18 48 56 75.5t95 27.5q68 0 115 -34.5t71.5 -96t24.5 -142.5q0 -69 -14.5 -126t-46.5 -116l-109 40q22 49 31.5 97.5t9.5 102.5q0 91 -25 133.5t-69 42.5q-40 0 -60.5 -33t-20.5 -95v-151h-121v157q0 53 -20 87.5t-68 34.5q-44 0 -65 -32.5t-21 -89.5v-157h-122
v151q0 58 -19 93t-62 35t-68 -39t-25 -123q0 -63 20 -111.5t57 -83.5t87 -58.5t110 -37.5q73 -16 137.5 -42t114.5 -65t77 -96z" />
    <glyph glyph-name="uni10DB" unicode="&#x10db;" horiz-adv-x="615" 
d="M302 -10q-77 0 -133.5 32t-87.5 93t-31 150q0 131 59 198.5t155 67.5q40 0 69.5 -9.5t51.5 -27t37 -39.5h5q-2 15 -4.5 34.5t-2.5 39.5v40q0 32 -11 56t-35 37.5t-63 13.5q-31 0 -53.5 -10t-35 -27t-12.5 -40q0 -5 0.5 -10.5t1.5 -10.5h-124q-3 10 -4.5 19.5t-1.5 17.5
q0 47 30.5 82t83 54t115.5 19q74 0 127 -27t81.5 -75t28.5 -111v-292q0 -133 -63.5 -204t-182.5 -71zM302 89q66 0 95.5 43.5t29.5 116.5v18q0 75 -27.5 119.5t-101.5 44.5q-57 0 -87.5 -46t-30.5 -123q0 -79 28.5 -126t93.5 -47z" />
    <glyph glyph-name="uni10DC" unicode="&#x10dc;" horiz-adv-x="615" 
d="M314 -10q-120 0 -183.5 71t-63.5 208v296q0 72 27 114.5t71 61.5t97 19h248v-100h-232q-39 0 -61 -18.5t-22 -63.5v-27q0 -16 -2 -41t-5 -41h5q16 22 37.5 39.5t51.5 27t69 9.5q96 0 155 -69t59 -206q0 -91 -30.5 -153.5t-87 -94.5t-133.5 -32zM313 89q65 0 93.5 47.5
t28.5 131.5q0 82 -30 129.5t-88 47.5q-49 0 -77 -20.5t-40 -57.5t-12 -89v-23q0 -77 29.5 -121.5t95.5 -44.5z" />
    <glyph glyph-name="uni10DD" unicode="&#x10dd;" horiz-adv-x="838" 
d="M114 0q-21 48 -35.5 91.5t-21.5 89t-7 98.5q0 81 24.5 142.5t72.5 96t117 34.5q60 0 97.5 -27.5t54.5 -75.5h5q19 48 56.5 75.5t95.5 27.5q70 0 118 -34.5t72.5 -96t24.5 -142.5q0 -53 -6.5 -98.5t-20.5 -89t-37 -91.5h-126q32 68 46.5 135t14.5 143q0 54 -10.5 93
t-32 60.5t-56.5 21.5q-40 0 -60 -33.5t-20 -94.5v-151h-122v151q0 58 -19 93t-62 35q-47 0 -72.5 -43t-25.5 -133q0 -51 6.5 -97t20 -90.5t34.5 -89.5h-126z" />
    <glyph glyph-name="uni10DE" unicode="&#x10de;" horiz-adv-x="592" 
d="M290 -10q-71 0 -126.5 24t-87 70.5t-31.5 113.5q0 24 4.5 43.5t10.5 34.5h121q-4 -14 -6.5 -32t-2.5 -38q0 -37 13.5 -63t40.5 -40t65 -14q42 0 69 19.5t39.5 52t12.5 70.5q0 40 -14.5 71.5t-44.5 49.5t-74 18h-42v99h48q36 0 57 8.5t31 24.5t10 37q0 34 -22 53.5
t-49 34.5q-23 14 -45.5 30t-36.5 41.5t-14 66.5l127 1q1 -25 23 -41.5t52 -33.5q23 -13 45.5 -30.5t37 -42.5t14.5 -64q0 -59 -37.5 -89t-94.5 -43v-3q39 -8 75 -31.5t60 -64.5t24 -103q0 -67 -30.5 -119t-87 -81.5t-134.5 -29.5z" />
    <glyph glyph-name="uni10DF" unicode="&#x10df;" horiz-adv-x="637" 
d="M319 -250q-55 0 -100 16t-77.5 44.5t-49.5 67t-17 83.5q0 31 4.5 51.5t12.5 39.5h120q-5 -19 -7.5 -37t-2.5 -40q0 -33 12.5 -61.5t39 -46.5t66.5 -18q43 0 69 20t37 56t11 86v436q-31 -14 -67 -23.5t-75 -14.5v-4q27 -12 44 -39.5t17 -63.5q0 -40 -20.5 -71.5
t-56.5 -49.5t-83 -18q-69 0 -112 37.5t-43 94.5q0 10 1 19.5t4 17.5h96q-1 -6 -2 -11.5t-1 -11.5q0 -25 15.5 -41.5t41.5 -16.5q28 0 43 18t15 45q0 34 -17 53t-48 23v87q73 8 141.5 23.5t123.5 41.5h110v-532q0 -82 -28.5 -140t-83 -89t-133.5 -31z" />
    <glyph glyph-name="uni10E0" unicode="&#x10e0;" horiz-adv-x="837" 
d="M112 0q-21 48 -35 92t-20.5 90t-6.5 97v39q0 123 30 209t95 137t170 70q52 10 109.5 19.5t117.5 16.5l16 -106q-30 -4 -62 -8t-62.5 -8.5t-57 -8.5t-47.5 -8q-41 -8 -81 -23t-72 -43t-48 -76h3q17 23 35.5 35t38 16.5t39.5 4.5q52 0 88 -28t53 -76h5q18 49 56 76.5
t96 27.5q70 0 117.5 -35t72.5 -95.5t25 -139.5q0 -53 -6.5 -97.5t-21 -87t-36.5 -90.5h-126q32 68 46.5 133t14.5 141q0 52 -10.5 90.5t-32.5 60t-56 21.5q-40 0 -60.5 -33t-20.5 -92v-143h-121v143q0 56 -19.5 90.5t-61.5 34.5q-47 0 -72.5 -42.5t-25.5 -130.5
q0 -51 6.5 -96t20 -88.5t34.5 -88.5h-127z" />
    <glyph glyph-name="uni10E1" unicode="&#x10e1;" horiz-adv-x="621" 
d="M319 -10q-123 0 -187.5 70.5t-64.5 203.5v496h128v-505q0 -77 30 -121.5t94 -44.5q41 0 68 19.5t40.5 53t13.5 74.5q0 42 -11 71t-29 55q-22 35 -41.5 76.5t-19.5 103.5h127q1 -45 17 -77.5t38 -65.5t35.5 -70.5t13.5 -89.5q0 -75 -31 -131t-87.5 -87t-133.5 -31z" />
    <glyph glyph-name="uni10E2" unicode="&#x10e2;" horiz-adv-x="777" 
d="M388 -250q-81 0 -144 26.5t-106 79t-65.5 129t-22.5 175.5q0 111 33 193.5t96.5 132t153.5 62.5q-3 19 -5 38t-2 34v47h123v-46q0 -15 -2 -34.5t-5 -37.5q92 -12 155.5 -62t96.5 -133t33 -195q0 -95 -22 -171t-65 -129t-106.5 -81t-145.5 -28zM388 -151q68 0 114 34
t70.5 103t24.5 173q0 88 -17.5 149.5t-52 97.5t-85.5 47q3 -21 5 -43t2 -51v-185h-123v186q0 28 2 49.5t5 41.5q-50 -11 -84.5 -47t-51.5 -97t-17 -148q0 -104 24 -172.5t71 -103t113 -34.5z" />
    <glyph glyph-name="uni10E3" unicode="&#x10e3;" horiz-adv-x="626" 
d="M310 -250q-60 0 -107 17.5t-80 49.5t-50.5 76t-17.5 98q0 29 5.5 54.5t14.5 46.5h120q-5 -19 -9 -44t-4 -47q0 -43 13 -77.5t41.5 -54.5t73.5 -20q44 0 70.5 20.5t38.5 57.5t12 86v339q0 50 -17 74t-50 24q-30 0 -48 -24t-18 -72v-118h-122v119q0 45 -18 67.5t-53 22.5
h-69v102h71q51 0 83 -21.5t48 -67.5h4q18 46 53.5 70t86.5 24q56 0 95 -23t60 -65t21 -98v-356q0 -82 -28.5 -140t-84 -89t-135.5 -31z" />
    <glyph glyph-name="uni10E4" unicode="&#x10e4;" horiz-adv-x="883" 
d="M530 -250q-89 0 -154.5 22.5t-101.5 64.5t-36 101q0 10 1.5 20t2.5 20h122q-1 -6 -1.5 -12t-0.5 -11q0 -36 21 -59.5t59 -35t88 -11.5q53 0 86.5 17.5t50.5 47.5t17 65q0 29 -10.5 53.5t-32.5 39.5t-56 15h-21v99h38q32 0 55 17.5t35.5 48.5t12.5 70t-10 68.5t-29.5 46
t-49.5 16.5q-45 0 -70 -33t-25 -97v-27q0 -55 -17 -100.5t-48 -78.5t-74.5 -51t-96.5 -18q-52 0 -95 18t-74.5 51.5t-48.5 80t-17 103.5q0 75 29.5 132t82 88t121.5 31q57 0 104.5 -27t68.5 -81h6q19 51 60.5 79.5t105.5 28.5q65 0 110.5 -30t70 -77.5t24.5 -101.5
q0 -62 -17.5 -103.5t-49 -65.5t-74.5 -33v-4q39 -9 66.5 -32t41.5 -56.5t14 -74.5q0 -64 -33.5 -114.5t-96.5 -80t-154 -29.5zM287 147q37 0 61 20.5t35.5 55.5t11.5 78t-11.5 77.5t-35.5 54.5t-62 20t-62 -20t-36 -54.5t-12 -77.5t11.5 -78t36 -55.5t63.5 -20.5z" />
    <glyph glyph-name="uni10E5" unicode="&#x10e5;" horiz-adv-x="602" 
d="M289 -250q-55 0 -100.5 17.5t-77.5 49.5t-49 76t-17 98q0 29 5.5 54.5t14.5 46.5h120q-5 -19 -9 -44t-4 -47q0 -43 12.5 -77.5t39 -54.5t66.5 -20q43 0 69 20t37 57t11 87v266q0 82 -26 128t-87 46q-27 0 -49 -13t-34.5 -38.5t-12.5 -62.5q0 -20 2.5 -39t7.5 -39h-122
q-6 17 -10.5 37.5t-4.5 49.5q0 66 27 111.5t70 69t90 23.5q37 0 65 -10.5t49 -28.5t37 -40h5q-2 16 -4.5 45.5t-2.5 52.5v189h127v-750q0 -82 -28.5 -140t-83 -89t-133.5 -31z" />
    <glyph glyph-name="uni10E6" unicode="&#x10e6;" horiz-adv-x="838" 
d="M524 -250q-25 41 -58 68.5t-70 41.5t-73 14q-41 0 -77.5 -10.5t-74.5 -29.5l-39 84q21 10 49 19t72 11v4q-101 46 -152 129t-51 196q0 82 24.5 144t72 96.5t116.5 34.5q61 0 98.5 -27.5t54.5 -75.5h5q19 48 57 75.5t97 27.5q69 0 116.5 -34.5t72 -96t24.5 -142.5
q0 -69 -14.5 -126t-45.5 -116l-109 40q22 49 31 97.5t9 103.5q0 54 -10.5 93t-32 60.5t-54.5 21.5q-41 0 -61.5 -32t-20.5 -94v-153h-122v153q0 59 -19 92.5t-62 33.5q-47 0 -72.5 -42.5t-25.5 -132.5q0 -63 14.5 -110t41.5 -82t64.5 -59.5t81.5 -43.5q62 -24 106.5 -49.5
t76 -58t53.5 -78.5z" />
    <glyph glyph-name="uni10E7" unicode="&#x10e7;" horiz-adv-x="611" 
d="M299 -250q-58 0 -103 16t-77 44.5t-48.5 67t-16.5 83.5q0 31 4.5 51.5t12.5 39.5h121q-5 -19 -8 -37t-3 -40q0 -33 12.5 -61.5t39 -46.5t66.5 -18q44 0 69.5 20t36.5 56t11 86v102q0 19 1 36t2.5 34.5t2.5 35.5h-6q-23 -37 -63.5 -59.5t-95.5 -22.5q-64 0 -110 26
t-71.5 78t-25.5 128q0 50 11.5 94t28.5 79h124q-15 -39 -24.5 -77t-9.5 -87q0 -45 13 -76t37.5 -46.5t58.5 -15.5q42 0 70 17t42.5 51t14.5 84v150h127v-532q0 -82 -28.5 -140t-83 -89t-132.5 -31z" />
    <glyph glyph-name="uni10E8" unicode="&#x10e8;" horiz-adv-x="615" 
d="M302 -10q-77 0 -133.5 31.5t-87.5 90.5t-31 143q0 82 27 139t75 87t112 30q40 0 69.5 -9.5t51.5 -27t37 -39.5h5q-2 15 -4.5 34.5t-2.5 39.5v88q0 26 -7 43.5t-20.5 26.5t-32.5 9q-26 0 -42 -17t-16 -48v-41h-123v34q0 35 -18.5 50.5t-42.5 15.5q-16 0 -31.5 -4t-30.5 -9
l-29 91q22 10 47.5 16t52.5 6q34 0 65.5 -17t48.5 -60h3q19 43 55 60t80 17q45 0 83.5 -19t62 -58.5t23.5 -99.5v-338q0 -84 -28.5 -143t-83.5 -90.5t-134 -31.5zM302 89q66 0 95.5 42.5t29.5 107.5v18q0 45 -11.5 80t-39.5 54.5t-78 19.5q-39 0 -65 -20.5t-39.5 -56
t-13.5 -82.5q0 -48 12.5 -84.5t39.5 -57.5t70 -21z" />
    <glyph glyph-name="uni10E9" unicode="&#x10e9;" horiz-adv-x="610" 
d="M67 0v571q0 60 24.5 104.5t70 69.5t109.5 25q60 0 104 -21t68 -56.5t24 -80.5q0 -28 -11.5 -58t-42.5 -54v-4q69 -19 108 -77.5t39 -150.5q0 -53 -7.5 -103.5t-18.5 -92.5t-23 -72h-127q11 28 21.5 68.5t17.5 88t7 95.5q0 52 -14 88t-39.5 54t-60.5 18q-38 0 -65 -18.5
t-41.5 -55.5t-14.5 -92v-246h-128zM188 432h7q12 19 29 34t44 29q24 13 40.5 26.5t25 31.5t8.5 44q0 36 -19.5 56t-53.5 20q-32 0 -53.5 -22t-21.5 -66v-86q0 -8 -0.5 -19t-2 -23t-3.5 -25z" />
    <glyph glyph-name="uni10EA" unicode="&#x10ea;" horiz-adv-x="688" 
d="M361 -250q-78 0 -136 25.5t-97 77t-58.5 129.5t-19.5 182q0 72 10.5 139t30 127.5t46.5 111.5h127q-27 -53 -46 -112.5t-29.5 -125.5t-10.5 -139q0 -102 18 -172.5t59 -106.5t107 -36q74 0 112.5 38.5t38.5 112.5q0 38 -14.5 70t-45 51.5t-77.5 19.5h-38v99h59
q35 0 56.5 9t32 25.5t10.5 39.5q0 31 -14 53t-34 38q-27 23 -49.5 52.5t-22.5 83.5h127q3 -27 20.5 -47t41.5 -40q26 -22 43.5 -51t17.5 -78q0 -58 -37 -89t-94 -44v-3q38 -8 72 -32t55 -66.5t21 -105.5q0 -72 -35 -125t-98 -82t-149 -29z" />
    <glyph glyph-name="uni10EB" unicode="&#x10eb;" horiz-adv-x="615" 
d="M302 -10q-77 0 -133.5 32t-87.5 94.5t-31 153.5q0 140 59 211t155 71q40 0 69.5 -10.5t51.5 -28.5t37 -40h5q-2 16 -4.5 45.5t-2.5 52.5v189h128v-491q0 -137 -63.5 -208t-182.5 -71zM302 89q66 0 95.5 44.5t29.5 121.5v16q0 85 -27.5 131.5t-101.5 46.5
q-57 0 -87.5 -47.5t-30.5 -133.5q0 -84 28.5 -131.5t93.5 -47.5z" />
    <glyph glyph-name="uni10EC" unicode="&#x10ec;" horiz-adv-x="615" 
d="M314 -10q-79 0 -134 31.5t-84 90.5t-29 143v338q0 60 23.5 99.5t62.5 58.5t84 19q44 0 80 -17t54 -60h3q17 43 49 60t66 17q27 0 52 -6t47 -16l-29 -91q-14 5 -29.5 9t-31.5 4q-24 0 -43 -15t-19 -47v-38h-123v45q0 28 -15.5 44.5t-42.5 16.5q-18 0 -32 -9t-21 -26.5
t-7 -43.5v-88q0 -20 -2 -39.5t-5 -34.5h5q16 22 37.5 39.5t51.5 27t69 9.5q64 0 112 -30t75 -87t27 -139q0 -84 -30.5 -143t-87 -90.5t-133.5 -31.5zM313 89q43 0 70 21t39.5 57.5t12.5 84.5q0 47 -13 82.5t-39.5 56t-65.5 20.5q-49 0 -77 -19.5t-40 -54.5t-12 -80v-18
q0 -65 29.5 -107.5t95.5 -42.5z" />
    <glyph glyph-name="uni10ED" unicode="&#x10ed;" horiz-adv-x="614" 
d="M315 -250q-56 0 -101.5 17.5t-78 48.5t-49.5 73t-17 92q0 29 5 54.5t15 46.5h120q-5 -19 -9 -44t-4 -47q0 -38 12.5 -70.5t39 -52t67.5 -19.5q43 0 68.5 20.5t38 53.5t12.5 71q0 41 -10.5 73t-27.5 60q-19 34 -33.5 68t-22.5 72h-4q-23 -28 -55 -42.5t-77 -14.5
q-37 0 -73.5 19t-61 56t-24.5 91q0 52 23 89t64.5 57t94.5 20h90v218h125v-218h118v-99h-118v-73q0 -60 21.5 -104.5t47.5 -89.5q22 -36 37.5 -79.5t15.5 -100.5q0 -73 -30 -128.5t-86 -86.5t-133 -31zM240 306q38 0 58 23.5t20 57.5v59h-73q-39 0 -59 -19t-20 -52
q0 -32 20 -50.5t54 -18.5z" />
    <glyph glyph-name="uni10EE" unicode="&#x10ee;" horiz-adv-x="615" 
d="M314 -10q-120 0 -183.5 71t-63.5 208v491h128v-189q0 -23 -2 -52.5t-5 -45.5h5q16 22 37.5 40t51.5 28.5t69 10.5q96 0 155 -71t59 -211q0 -91 -30.5 -153.5t-87 -94.5t-133.5 -32zM313 89q65 0 93.5 47.5t28.5 131.5q0 86 -30 133.5t-88 47.5q-74 0 -101.5 -46.5
t-27.5 -131.5v-16q0 -77 29.5 -121.5t95.5 -44.5z" />
    <glyph glyph-name="uni10EF" unicode="&#x10ef;" horiz-adv-x="582" 
d="M352 312q0 -28 12.5 -53t34 -48t46.5 -48q24 -24 45 -52t34 -63t13 -79q0 -66 -30.5 -115.5t-86 -76.5t-131.5 -27q-55 0 -100.5 16t-77.5 44.5t-49 67t-17 83.5q0 31 4.5 51.5t12.5 39.5h120q-5 -19 -7.5 -37t-2.5 -40q0 -33 12.5 -61.5t39 -46.5t66.5 -18q37 0 63 14.5
t40 40.5t14 60q0 33 -11.5 59t-30 49.5t-39.5 45.5q-24 26 -47 54.5t-38 63.5t-15 77v34l-171 30v100l171 -30v105h126v-127l175 -31v-100l-175 31v-13z" />
    <glyph glyph-name="uni10F0" unicode="&#x10f0;" horiz-adv-x="581" 
d="M284 -10q-76 0 -130 26t-82.5 67.5t-28.5 88.5q0 11 1.5 22t4.5 21h121q-1 -6 -1.5 -12t-0.5 -12q0 -27 11.5 -50t37.5 -37.5t68 -14.5t67.5 11t37 28t11.5 37q0 33 -23.5 55.5t-85.5 22.5h-46v98h63q40 0 61 11.5t21 42.5q0 27 -22 40.5t-67 13.5h-56v97h61
q38 0 51.5 13t13.5 29q0 20 -16.5 30.5t-44.5 20.5q-25 9 -49.5 22.5t-40.5 37t-16 61.5h128q2 -22 24.5 -35t52.5 -25q24 -10 45.5 -23t35 -33.5t13.5 -51.5q0 -34 -28 -57t-75 -32v-4q27 -2 54.5 -14.5t46.5 -34.5t19 -55q0 -37 -17.5 -59t-44.5 -32t-56 -15v-4
q37 -7 66 -23t45.5 -42t16.5 -63q0 -52 -32 -89.5t-88 -57.5t-127 -20z" />
    <glyph glyph-name="uni10F1" unicode="&#x10f1;" horiz-adv-x="693" 
d="M384 -10q-111 0 -185 45.5t-111.5 137t-37.5 227.5q0 62 10.5 125.5t30 123.5t46.5 111h127q-27 -53 -46 -112t-29.5 -121t-10.5 -126q0 -100 21.5 -170t67.5 -106t117 -36q60 0 94.5 21t34.5 56q0 33 -23.5 55t-84.5 22h-47v98h63q40 0 61 11.5t21 42.5q0 27 -22 40.5
t-67 13.5h-56v97h61q25 0 39 7.5t20 18t6 20.5q0 23 -11.5 36t-28.5 24q-15 10 -30.5 22.5t-25.5 33.5t-10 52h127q0 -21 15 -35.5t34 -27.5q23 -15 42.5 -37.5t19.5 -64.5q0 -39 -28 -61t-75 -31v-4q27 -2 54.5 -14.5t46.5 -34.5t19 -55q0 -37 -17.5 -59t-44.5 -32t-57 -15
v-4q38 -5 66.5 -21t45.5 -42t17 -65q0 -48 -32.5 -86t-90.5 -59.5t-136 -21.5z" />
    <glyph glyph-name="uni10F2" unicode="&#x10f2;" horiz-adv-x="603" 
d="M60 0v99q35 0 66.5 2.5t72.5 9.5v3q-50 24 -83 59.5t-49.5 77t-16.5 82.5t15.5 80t47 70.5t79 50t110.5 18.5t110 -18.5t78.5 -50t47 -70.5t15.5 -80t-16.5 -82.5t-49.5 -77t-84 -59.5v-3q42 -7 73.5 -9.5t66.5 -2.5v-99q-73 0 -132 13.5t-110 36.5q-52 -23 -110.5 -36.5
t-130.5 -13.5zM302 145q37 19 64.5 45t42.5 60.5t15 76.5q0 35 -14 63.5t-41 45.5t-67 17q-41 0 -68 -17t-41 -45.5t-14 -63.5q0 -42 15 -76.5t42.5 -60.5t65.5 -45z" />
    <glyph glyph-name="uni10F3" unicode="&#x10f3;" horiz-adv-x="597" 
d="M299 -250q-60 0 -107 16.5t-79.5 46.5t-50 70t-17.5 85q0 28 5 52t12 42h122q-5 -16 -8.5 -38t-3.5 -41q0 -34 13.5 -64.5t41.5 -50t72 -19.5q43 0 70 20t40 52.5t13 72.5q0 74 -37.5 113.5t-103.5 39.5h-70v85l161 209h-284v101h438v-84l-176 -219q51 -6 97 -34.5
t75.5 -80.5t29.5 -130q0 -74 -31 -129t-87.5 -85t-134.5 -30z" />
    <glyph glyph-name="uni10F4" unicode="&#x10f4;" horiz-adv-x="587" 
d="M290 -250q-71 0 -126.5 24t-87 70.5t-31.5 113.5q0 24 4.5 43.5t10.5 34.5h121q-4 -14 -6.5 -32t-2.5 -38q0 -37 13.5 -63t40.5 -40t65 -14q42 0 69 19.5t39.5 52t12.5 70.5q0 40 -14.5 71.5t-44.5 49.5t-74 18h-42v99h48q36 0 57 10.5t31 30t10 45.5t-13.5 44.5
t-37.5 33t-56 28.5q-41 20 -79 44t-61 59t-23 87q0 49 23.5 85t67 55t103.5 19q43 0 83.5 -11t76.5 -33l-41 -90q-29 17 -57 26t-56 9q-37 0 -55.5 -15t-18.5 -42q0 -26 14.5 -43t40.5 -30.5t59 -29.5q38 -17 75.5 -39t62 -55.5t24.5 -87.5q0 -66 -37.5 -100t-94.5 -47v-3
q39 -8 75 -31.5t60 -64.5t24 -103q0 -68 -30.5 -120t-87 -81t-134.5 -29z" />
    <glyph glyph-name="uni10F5" unicode="&#x10f5;" horiz-adv-x="659" 
d="M288 -10q-115 0 -176.5 46.5t-61.5 131.5q0 83 59 127.5t164 44.5h131v94h-143q-97 0 -149.5 42t-52.5 122q0 81 60.5 126.5t172.5 45.5q75 0 127 -23t79.5 -67t27.5 -108v-43h105v-95h-105v-94h105v-95h-105v-42q0 -104 -61 -158.5t-177 -54.5zM290 85q58 0 86 30t28 89
v41h-126q-48 0 -75 -19t-27 -58q0 -40 30 -61.5t84 -21.5zM273 529h131v40q0 54 -29.5 80t-83.5 26q-52 0 -79.5 -19t-27.5 -57q0 -36 23 -53t66 -17z" />
    <glyph glyph-name="uni10F6" unicode="&#x10f6;" horiz-adv-x="932" 
d="M376 -250q-23 0 -45 4.5t-36 12.5v96q11 -4 25 -7t28 -3q26 0 40 15.5t14 58.5v57q0 20 2.5 45.5t4.5 40.5h-5q-16 -25 -37.5 -43t-48.5 -27.5t-62 -9.5q-95 0 -150.5 73t-55.5 209q0 135 55 207.5t148 72.5q36 0 63.5 -9.5t48.5 -28t37 -43.5h5q-1 19 -3 37.5t-2 40.5
v48q0 66 19.5 103.5t54.5 53.5t81 16q27 0 49.5 -5.5t32.5 -11.5v-97q-8 4 -23.5 7.5t-31.5 3.5q-25 0 -40 -15.5t-15 -58.5v-44q0 -22 -1 -41t-4 -37h5q17 25 38 43.5t48.5 28t63.5 9.5q93 0 148 -72.5t55 -207.5q0 -136 -55.5 -209t-150.5 -73q-34 0 -61.5 9.5t-48.5 27.5
t-38 43h-6q3 -15 5 -40.5t2 -46.5v-56q0 -60 -17 -99t-51 -58.5t-85 -19.5zM291 94q62 0 90 42t28 134v19q0 85 -28 123t-89 38q-53 0 -82.5 -43.5t-29.5 -132.5q0 -88 29.5 -134t81.5 -46zM641 94q52 0 81.5 46t29.5 134q0 89 -29.5 132.5t-83.5 43.5q-59 0 -87.5 -38
t-28.5 -123v-19q0 -92 27.5 -134t90.5 -42z" />
    <glyph glyph-name="uni10F7" unicode="&#x10f7;" horiz-adv-x="577" 
d="M287 -250q-74 0 -128.5 26t-84 74.5t-29.5 115.5q0 74 28 123t75.5 83t105.5 62q50 25 79 44.5t41 41.5t12 50q0 39 -24 61t-72 22q-54 0 -76.5 -22.5t-22.5 -63.5q0 -6 1 -12.5t2 -13.5h-125q-2 9 -3.5 18t-1.5 17q0 53 26.5 93t76.5 61.5t121 21.5q74 0 124 -22.5
t76 -64t26 -97.5q0 -53 -21 -92.5t-64.5 -72.5t-112.5 -67q-44 -21 -75.5 -43.5t-48.5 -53t-17 -77.5q0 -52 31 -82t81 -30q54 0 85 29t31 86q0 19 -2.5 36t-7.5 29h128q5 -16 8 -33.5t3 -39.5q0 -71 -30.5 -116.5t-85.5 -68t-129 -22.5z" />
    <glyph glyph-name="uni10F8" unicode="&#x10f8;" horiz-adv-x="611" 
d="M312 -250q-78 0 -132.5 31t-83.5 89t-29 140v532h128v-150q0 -50 14 -84t42.5 -51t70.5 -17q35 0 59.5 15.5t37 46.5t12.5 76q0 49 -9.5 87t-24.5 77h124q17 -35 28.5 -79t11.5 -94q0 -76 -25.5 -128t-71.5 -78t-110 -26q-54 0 -94.5 22.5t-64.5 59.5h-7q3 -18 4.5 -35.5
t2 -34.5t0.5 -36v-102q0 -50 11 -86t37 -56t69 -20q40 0 66 18t38.5 46.5t12.5 61.5q0 22 -2.5 40t-7.5 37h120q9 -19 13.5 -39.5t4.5 -51.5q0 -45 -16.5 -83.5t-48.5 -67t-77.5 -44.5t-102.5 -16z" />
    <glyph glyph-name="uni10F9" unicode="&#x10f9;" horiz-adv-x="617" 
d="M310 552q56 0 103 -18.5t81.5 -53.5t53.5 -85.5t19 -114.5q0 -81 -28.5 -137.5t-80.5 -89t-123 -43.5q-56 -8 -79.5 -31t-23.5 -61q0 -33 20.5 -55t58.5 -22t57.5 20.5t19.5 55.5q0 8 -0.5 16t-2.5 16h119q4 -13 5.5 -25t1.5 -23q0 -45 -25 -79t-70 -53t-105 -19
q-62 0 -107.5 20.5t-70 56.5t-24.5 79q0 45 21.5 79.5t73.5 52.5v3q-52 18 -86.5 53t-51 82.5t-16.5 103.5q0 64 18 114.5t52 85.5t82 53.5t108 18.5zM308 453q-44 0 -72.5 -21.5t-42 -60t-13.5 -91.5q0 -52 13.5 -90t42 -59t73.5 -21q68 0 98 46t30 124q0 53 -13 91.5
t-41.5 60t-74.5 21.5z" />
    <glyph glyph-name="uni10FA" unicode="&#x10fa;" horiz-adv-x="500" 
d="M105 -118v113l86 33v3q-41 14 -73 46.5t-50 81.5t-18 113q0 98 35 160t95 91t136 29q45 0 86 -9t70 -24l-38 -99q-27 11 -58 19.5t-61 8.5q-44 0 -74.5 -20t-45.5 -59.5t-15 -99.5q0 -57 15.5 -96t45 -58.5t71.5 -19.5q43 0 79.5 10.5t68.5 27.5v-118z" />
    <glyph glyph-name="uni10FB" unicode="&#x10fb;" horiz-adv-x="549" 
d="M417 193q-33 0 -55.5 19t-22.5 58q0 41 22 59.5t56 18.5q35 0 56 -18.5t21 -59.5q0 -38 -21.5 -57.5t-55.5 -19.5zM139 -13q-35 0 -56.5 19.5t-21.5 57.5q0 40 21 59t57 19q33 0 54.5 -19t21.5 -59q0 -38 -21.5 -57.5t-54.5 -19.5zM139 398q-35 0 -56.5 19.5t-21.5 58.5
q0 41 21 59.5t57 18.5q34 0 55 -19t21 -59q0 -39 -21.5 -58.5t-54.5 -19.5z" />
    <glyph glyph-name="uni10FC" unicode="&#x10fc;" horiz-adv-x="365" 
d="M187 409q-74 0 -112.5 41t-38.5 117v159q0 45 17 71t45.5 37.5t63.5 11.5h149v-73h-140q-18 0 -28.5 -8.5t-10.5 -28.5v-13q0 -9 -1.5 -23t-3.5 -25h3q12 21 33.5 32.5t54.5 11.5q55 0 88 -38t33 -114q0 -74 -39.5 -116t-112.5 -42zM186 481q30 0 43 23t13 61
q0 40 -14 61t-41 21q-32 0 -45 -20.5t-13 -55.5v-13q0 -35 14 -56t43 -21z" />
    <glyph glyph-name="uni10FD" unicode="&#x10fd;" horiz-adv-x="577" 
d="M290 -10q-74 0 -129 22.5t-85.5 68t-30.5 116.5q0 22 3 39.5t8 33.5h128q-4 -12 -7 -29t-3 -36q0 -57 31.5 -86t83.5 -29q50 0 81 30t31 82q0 43 -17 68.5t-48.5 44t-74.5 40.5q-69 35 -113 67.5t-65.5 71.5t-21.5 91q0 57 26 98t76.5 64t123.5 23q71 0 121 -22
t76.5 -61.5t26.5 -92.5q0 -9 -1 -17.5t-3 -18.5h-125q2 7 2.5 14t0.5 12q0 42 -23 64t-76 22q-49 0 -73 -22t-24 -60q0 -29 12.5 -50t41 -40.5t78.5 -43.5q44 -21 82 -43t67 -50t45.5 -65t16.5 -90q0 -67 -30 -115.5t-84 -74.5t-128 -26z" />
    <glyph glyph-name="uni10FE" unicode="&#x10fe;" horiz-adv-x="603" 
d="M60 542q72 0 130.5 -13t110.5 -36q51 23 110 36t132 13v-98q-35 0 -66.5 -3t-73.5 -9v-4q51 -23 84 -58.5t49.5 -77t16.5 -82.5t-15.5 -80.5t-47 -71t-78.5 -50t-110 -18.5t-110.5 18.5t-79 50t-47 71t-15.5 80.5t16.5 82.5t49.5 77t83 58.5v4q-41 6 -72.5 9t-66.5 3v98z
M302 397q-38 -19 -65.5 -45t-42.5 -59.5t-15 -76.5q0 -35 14 -63.5t41 -46t68 -17.5q40 0 67 17.5t41 46t14 63.5q0 43 -15 76.5t-42.5 59.5t-64.5 45z" />
    <glyph glyph-name="uni10FF" unicode="&#x10ff;" horiz-adv-x="617" 
d="M567 272q0 -67 -18 -119.5t-51.5 -89t-82 -55t-108.5 -18.5q-56 0 -103 18.5t-81 55t-53.5 89t-19.5 119.5q0 91 31.5 153t89.5 94.5t139 32.5q76 0 133.5 -32.5t90.5 -94.5t33 -153zM180 272q0 -56 13.5 -97.5t42 -63.5t73.5 -22t73.5 22t41.5 63.5t13 97.5
q0 58 -13.5 98t-41.5 61.5t-74 21.5q-67 0 -97.5 -47.5t-30.5 -133.5z" />
    <glyph glyph-name="uni1C90" unicode="&#x1c90;" horiz-adv-x="616" 
d="M305 -9q-76 0 -133.5 28.5t-89.5 81.5t-32 125q0 28 3 56.5t19 69.5h130q-12 -36 -15.5 -65.5t-3.5 -51.5q0 -59 30.5 -98t91.5 -39q43 0 70 18.5t39.5 51.5t12.5 75q0 46 -12.5 83t-32 68t-41.5 59q-29 37 -55 74.5t-39.5 83t-5.5 103.5h129q-3 -40 8.5 -74t33 -64.5
t45.5 -63.5q25 -33 49 -71.5t39.5 -86.5t15.5 -110q0 -77 -31 -134t-88 -88t-137 -31z" />
    <glyph glyph-name="uni1C91" unicode="&#x1c91;" horiz-adv-x="637" 
d="M317 -9q-53 0 -100.5 17.5t-83.5 51.5t-57 84t-21 114q0 85 34.5 144t94 90t136.5 31q72 0 131.5 -31t95 -90.5t35.5 -143.5q0 -64 -19.5 -114t-55.5 -84t-84 -51.5t-106 -17.5zM319 98q40 0 68 19.5t43.5 55.5t15.5 85q0 50 -15.5 84.5t-44 53.5t-68.5 19
q-58 0 -92.5 -41.5t-34.5 -115.5q0 -49 15.5 -85t44.5 -55.5t68 -19.5zM385 495l-119 6q8 10 13 22.5t5 25.5q0 20 -12.5 32.5t-27.5 22.5q-14 10 -28 25t-21 36.5t-4 48.5h124q0 -20 11.5 -33t29.5 -26q23 -15 38.5 -36.5t15.5 -51.5q0 -21 -6 -38t-19 -34z" />
    <glyph glyph-name="uni1C92" unicode="&#x1c92;" horiz-adv-x="626" 
d="M312 -9q-53 0 -101 17t-84 49.5t-56.5 79.5t-20.5 106q0 77 31 129t86.5 81.5t127.5 36.5q53 5 76.5 23t23.5 50q0 29 -22 46.5t-60 17.5t-60.5 -18.5t-22.5 -50.5q0 -5 1 -11t2 -13h-127q-2 12 -3.5 22t-1.5 20q0 44 27 77t75 52t110 19q65 0 112.5 -19t73.5 -53.5
t26 -79.5q0 -38 -20 -69.5t-67 -48.5v-3q59 -20 98.5 -71.5t39.5 -136.5q0 -59 -19.5 -106t-55 -79.5t-84 -49.5t-105.5 -17zM314 98q38 0 66.5 19t44.5 51.5t16 74.5q0 45 -16 77t-45 49t-67 17q-39 0 -67.5 -17.5t-44.5 -49t-16 -76.5q0 -42 16 -74.5t45 -51.5t68 -19z
" />
    <glyph glyph-name="uni1C93" unicode="&#x1c93;" horiz-adv-x="945" 
d="M572 0q-5 24 -23.5 42t-46.5 29.5t-61.5 17.5t-66.5 6q-46 0 -91 -10t-80 -30l-45 85q19 11 45 20.5t60 11.5v4q-63 24 -109.5 67t-72.5 102t-26 130t25 127.5t75 89t122 32.5q43 0 77.5 -11.5t59 -34t37.5 -54.5h5q15 32 42.5 54t64 34t79.5 12q75 0 130.5 -30t86.5 -85
t31 -129q0 -56 -18.5 -100t-52.5 -75.5t-79.5 -48.5t-100.5 -17q-58 0 -104.5 16.5t-79.5 48t-50.5 75t-17.5 97.5v26q0 37 -11 63.5t-33 41t-53 14.5q-34 0 -56.5 -18.5t-34 -51.5t-11.5 -75q0 -70 23.5 -117.5t62.5 -79t88.5 -51t100.5 -32.5q42 -12 82 -26t73 -35.5
t54 -54.5t25 -80h-125zM637 340q41 0 67 18.5t38.5 50t12.5 72.5t-12.5 72.5t-38.5 49.5t-66 18t-66 -17.5t-38.5 -49.5t-12.5 -73q0 -40 12.5 -72t38.5 -50.5t65 -18.5z" />
    <glyph glyph-name="uni1C94" unicode="&#x1c94;" horiz-adv-x="633" 
d="M304 -9q-77 0 -134.5 28.5t-88.5 78t-31 115.5q0 25 3.5 47t9.5 41h129q-4 -17 -6.5 -37.5t-2.5 -39.5q0 -35 13.5 -63.5t40.5 -45.5t68 -17q45 0 72 16.5t39 47t12 71.5v272q0 54 -29.5 83t-78.5 29q-33 0 -58 -11.5t-38.5 -33.5t-13.5 -56q0 -15 2 -31t5 -33h-130
q-4 16 -7 34.5t-3 40.5q0 65 32 108.5t86.5 66t122.5 22.5q71 0 125.5 -26t84.5 -74t30 -115v-279q0 -75 -30 -129t-86.5 -82t-137.5 -28z" />
    <glyph glyph-name="uni1C95" unicode="&#x1c95;" horiz-adv-x="625" 
d="M313 -10q-82 0 -141 28t-90.5 75t-31.5 106q0 19 2.5 37t9.5 37h128q-4 -17 -6 -32t-2 -28q0 -54 33 -86.5t99 -32.5q44 0 72.5 16.5t42 44t13.5 59.5q0 37 -16 62t-45 38.5t-69 13.5h-43v103h48q56 0 81.5 29.5t25.5 68.5q0 28 -12.5 48t-36.5 31.5t-57 11.5
q-34 0 -58.5 -11t-37 -31t-12.5 -47q0 -12 1 -22.5t4 -23.5h-128q-5 14 -7 28t-2 31q0 53 31 93.5t85.5 63.5t124.5 23q72 0 125 -24.5t83 -66.5t30 -96q0 -62 -33 -101t-90 -52v-3q37 -7 69.5 -28t52.5 -57.5t20 -88.5q0 -63 -32 -112t-90.5 -77t-140.5 -28z" />
    <glyph glyph-name="uni1C96" unicode="&#x1c96;" horiz-adv-x="669" 
d="M355 -10q-57 0 -104 17.5t-81 50t-53.5 78t-19.5 102.5q0 47 14 88t42 69v3q-39 11 -67.5 33t-43.5 54t-15 71q0 42 22.5 80.5t67 63t108.5 24.5q62 0 106.5 -22t68 -58.5t23.5 -76.5q0 -22 -6.5 -43t-17.5 -36v-4h7t10 -1q58 -8 103 -39.5t70 -81.5t25 -116
q0 -59 -18.5 -107t-52.5 -81t-81.5 -50.5t-106.5 -17.5zM357 97q44 0 71 18.5t39.5 52.5t12.5 78q0 45 -12.5 77.5t-39.5 51t-72 18.5q-66 0 -95 -40.5t-29 -106.5q0 -44 12.5 -77.5t40 -52.5t72.5 -19zM225 470q38 0 56.5 23t18.5 56t-18 56t-57 23t-57.5 -23t-18.5 -56
q0 -30 18.5 -54.5t57.5 -24.5z" />
    <glyph glyph-name="uni1C97" unicode="&#x1c97;" horiz-adv-x="980" 
d="M689 724q64 0 116 -32t83.5 -102t31.5 -186q0 -89 -9.5 -158t-26.5 -128t-40 -118h-133q22 60 38.5 121.5t25.5 130.5t9 152q0 78 -13 125t-37.5 67t-57.5 20q-32 0 -53.5 -16t-32 -43t-10.5 -62q0 -24 2 -47.5t3.5 -46.5t1.5 -48q0 -120 -29 -201t-87.5 -121.5
t-147.5 -40.5t-147.5 41t-87 122.5t-28.5 203.5t29 203.5t87 122.5t145 41q43 0 79.5 -10.5t64.5 -33.5t45 -60h3q16 38 44.5 61t63 33t68.5 10zM323 98q47 0 74.5 27.5t40.5 85t13 146.5q0 92 -13 148.5t-41 83.5t-74 27t-74 -27.5t-40.5 -84.5t-12.5 -147q0 -91 13 -148
t41 -84t73 -27z" />
    <glyph glyph-name="uni1C98" unicode="&#x1c98;" horiz-adv-x="647" 
d="M117 0q-17 49 -30 104t-20 125t-7 163q0 118 35 191.5t94.5 107t133.5 33.5q75 0 134.5 -33.5t94.5 -107t35 -191.5q0 -93 -7.5 -163t-20 -125t-29.5 -104h-133q16 50 28 106.5t19 125.5t7 159q0 83 -15.5 132t-44 71t-68.5 22q-39 0 -67.5 -22t-44 -71t-15.5 -132
q0 -90 7 -159t19 -125.5t27 -106.5h-132z" />
    <glyph glyph-name="uni1C99" unicode="&#x1c99;" horiz-adv-x="610" 
d="M299 -10q-78 0 -135 28t-88.5 75t-31.5 106q0 19 3 37t9 37h128q-3 -17 -5 -32t-2 -28q0 -54 31.5 -86.5t90.5 -32.5q45 0 73 16t41.5 45t13.5 65q0 39 -14 68t-42 44.5t-70 15.5h-41v101h44q40 0 63 12.5t32.5 33t9.5 41.5q0 24 -10.5 43.5t-31 31.5t-52.5 12v102
q70 0 120.5 -22.5t78 -61t27.5 -86.5q0 -60 -32 -99t-82 -52v-4q33 -6 64 -28.5t50.5 -62.5t19.5 -97q0 -66 -32.5 -116t-91 -78t-138.5 -28z" />
    <glyph glyph-name="uni1C9A" unicode="&#x1c9a;" horiz-adv-x="1175" 
d="M715 0q-3 25 -19.5 44.5t-42 35t-58 25.5t-68 15t-70.5 5q-71 0 -125 -16t-96 -38l-50 83q16 9 33.5 17t37.5 14t40 8v3q-56 15 -101 40t-76.5 61.5t-48 84.5t-16.5 106q0 68 24.5 121t72 84t118.5 31q61 0 102 -27.5t58 -76.5h6q17 51 55.5 77.5t95.5 26.5
q58 0 96.5 -28t54.5 -76h5q18 49 58 76.5t99 27.5q71 0 119.5 -32.5t74 -89t25.5 -130.5q0 -62 -14 -116.5t-43 -109.5l-119 41q24 49 33.5 94.5t9.5 93.5q0 72 -25.5 107t-70.5 35q-28 0 -47.5 -16t-28.5 -44.5t-9 -65.5v-114h-128v121q0 34 -9.5 60.5t-29 42.5t-51.5 16
q-30 0 -50 -15t-30 -42t-10 -62v-121h-128v114q0 35 -8 63.5t-26.5 45.5t-49.5 17q-45 0 -71.5 -32.5t-26.5 -103.5q0 -60 22 -103.5t62.5 -73t98 -46.5t127.5 -25q69 -7 128.5 -23.5t105.5 -44.5t75 -69t35 -96h-126z" />
    <glyph glyph-name="uni1C9B" unicode="&#x1c9b;" horiz-adv-x="644" 
d="M318 -10q-81 0 -140 30.5t-91 88t-32 138.5q0 122 62 186.5t161 64.5q41 0 71 -9.5t53 -25t38 -35.5h6q-2 15 -4.5 33t-2.5 36v35q0 28 -13 48.5t-38.5 32t-63.5 11.5q-30 0 -55.5 -9t-40 -25.5t-14.5 -41.5v-4.5v-4.5h-130q-1 9 -1 13v9q0 50 34 86.5t88.5 56.5
t117.5 20q76 0 131 -25.5t85 -71t30 -105.5v-273q0 -124 -65 -191.5t-186 -67.5zM318 95q45 0 73 17.5t41.5 49t13.5 71.5v16q0 37 -10.5 70.5t-39 53.5t-83.5 20q-59 0 -91.5 -40.5t-32.5 -107.5t31.5 -108.5t97.5 -41.5z" />
    <glyph glyph-name="uni1C9C" unicode="&#x1c9c;" horiz-adv-x="644" 
d="M326 -10q-121 0 -186 67.5t-65 195.5v264q0 54 15.5 91.5t43.5 61t63.5 34t75.5 10.5h264v-107h-250q-39 0 -61 -18.5t-22 -61.5v-30q0 -16 -2 -34.5t-5 -31.5h5q17 22 40 38.5t53.5 26t69.5 9.5q67 0 117.5 -30.5t78 -87.5t27.5 -136q0 -83 -32 -141.5t-90.5 -89
t-139.5 -30.5zM327 95q45 0 73.5 19.5t42 54t13.5 79.5q0 46 -14.5 79.5t-42.5 52t-68 18.5q-49 0 -78 -20t-41.5 -54t-12.5 -74v-16q0 -40 13.5 -72t42 -49.5t72.5 -17.5z" />
    <glyph glyph-name="uni1C9D" unicode="&#x1c9d;" horiz-adv-x="922" 
d="M136 0q-18 44 -31.5 88.5t-23.5 92.5t-15.5 102.5t-5.5 120.5q0 116 32.5 186t86 102t114.5 32q33 0 65 -9.5t59.5 -33t42.5 -63.5h3q16 41 42.5 64t59.5 32.5t66 9.5q61 0 114 -32t85 -102t32 -186q0 -89 -9.5 -158t-26.5 -128t-40 -118h-133q22 60 38 121.5t25.5 130.5
t9.5 152q0 78 -14 125t-38 67t-54 20t-50.5 -17t-30.5 -50.5t-10 -82.5v-256h-136v256q0 49 -10 82.5t-30.5 50.5t-51.5 17q-29 0 -53 -20t-38 -66.5t-14 -125.5q0 -82 9 -151.5t25.5 -131t38.5 -121.5h-133z" />
    <glyph glyph-name="uni1C9E" unicode="&#x1c9e;" horiz-adv-x="622" 
d="M308 -10q-80 0 -138 28t-89 75t-31 106q0 19 2.5 37t9.5 37h128q-4 -17 -6 -32t-2 -28q0 -54 32 -86.5t94 -32.5q43 0 70.5 17t40.5 45t13 62q0 28 -9 50.5t-27 38t-44 23.5t-59 8h-44v102h59q36 0 58 8t32 21t10 30q0 21 -10 34.5t-27 22t-36 16.5q-28 12 -53 29.5
t-39 45t-12 67.5h134q1 -24 22 -39.5t55 -30.5q25 -11 48 -28t38.5 -43.5t15.5 -65.5q0 -33 -14.5 -56t-39.5 -38t-57 -23v-3q24 -5 47.5 -19t43 -36.5t31.5 -53.5t12 -71q0 -63 -32 -112t-89.5 -77t-137.5 -28z" />
    <glyph glyph-name="uni1C9F" unicode="&#x1c9f;" horiz-adv-x="667" 
d="M335 -10q-78 0 -135 28t-88 75t-31 106q0 19 2.5 37t9.5 37h128q-4 -17 -6 -32t-2 -28q0 -54 31.5 -86.5t90.5 -32.5q46 0 72.5 16.5t38.5 47.5t12 71v386q-36 -12 -71 -19t-70 -11v-2q27 -11 41.5 -37.5t14.5 -58.5q0 -37 -21 -67t-58 -48.5t-87 -18.5q-48 0 -84.5 17
t-57 46t-20.5 64q0 8 1 17t4 16h100q0 -5 -0.5 -8.5t-0.5 -7.5q0 -23 15.5 -38t41.5 -15q29 0 44.5 16.5t15.5 39.5q0 29 -15.5 45.5t-51.5 16.5v94q74 6 147 20.5t130 37.5h112v-485q0 -73 -29.5 -127t-86 -83t-137.5 -29z" />
    <glyph glyph-name="uni1CA0" unicode="&#x1ca0;" horiz-adv-x="875" 
d="M108 0q-20 53 -31.5 96.5t-16.5 89.5t-5 106q0 87 16.5 155t51.5 117.5t92.5 81.5t140.5 45q37 7 76 12.5t80.5 11t83.5 9.5l16 -109q-38 -4 -72.5 -8t-65 -8t-57 -7.5t-47.5 -6.5q-40 -7 -81 -19.5t-73.5 -37t-49.5 -65.5h3q17 20 36.5 30.5t41 14.5t42.5 4
q53 0 91.5 -27t55.5 -77h3q18 50 59.5 77t106.5 27q71 0 118.5 -33t72 -90.5t24.5 -130.5q0 -47 -6.5 -89.5t-18.5 -83.5t-30 -85h-132q26 63 40 124.5t14 132.5q0 45 -10 79.5t-32 54t-57 19.5q-28 0 -48.5 -15t-30.5 -43t-10 -66v-130h-125v130q0 41 -10 69t-30 41.5
t-49 13.5q-49 0 -73.5 -37.5t-24.5 -117.5q0 -69 13.5 -130.5t39.5 -124.5h-132z" />
    <glyph glyph-name="uni1CA1" unicode="&#x1ca1;" horiz-adv-x="646" 
d="M333 -10q-126 0 -192 68t-66 192v464h130v-473q0 -67 31.5 -105.5t96.5 -38.5q42 0 69.5 17t41 45.5t13.5 60.5q0 45 -15 73.5t-35 55.5q-23 32 -40 70t-12 94h131q-1 -40 14 -68.5t37 -59.5q22 -30 38 -67t16 -93q0 -70 -32 -123t-89.5 -82.5t-136.5 -29.5z" />
    <glyph glyph-name="uni1CA2" unicode="&#x1ca2;" horiz-adv-x="820" 
d="M410 -10q-84 0 -150 25.5t-112 73t-69.5 114t-23.5 149.5q0 147 76 239t216 109q-1 11 -2 20.5t-1 20.5v13h132v-13q0 -11 -0.5 -20.5t-2.5 -19.5q140 -17 216 -109t76 -241q0 -80 -23.5 -146t-68.5 -114t-111.5 -74.5t-151.5 -26.5zM409 99q72 0 120.5 29t73.5 85.5
t25 138.5q0 110 -41 171t-120 76q3 -14 4.5 -35t1.5 -51v-173h-127v173q0 29 1.5 48.5t4.5 36.5q-81 -15 -121 -78t-40 -168q0 -82 26 -138.5t74.5 -85.5t117.5 -29z" />
    <glyph glyph-name="uni1CA3" unicode="&#x1ca3;" horiz-adv-x="644" 
d="M316 -9q-78 0 -135 28.5t-88.5 78t-31.5 115.5q0 25 3.5 47t10.5 41h128q-4 -17 -6 -37.5t-2 -39.5q0 -35 13.5 -63.5t40.5 -45.5t68 -17q45 0 72 16.5t39 47t12 71.5v302q0 28 -8 46.5t-23.5 28.5t-38.5 10q-33 0 -52 -20.5t-19 -62.5v-104h-125v104q0 38 -18.5 56.5
t-52.5 18.5h-63v107h64q45 0 81 -18t53 -64h4q12 30 33.5 49t50 29t61.5 10q58 0 99 -22.5t62.5 -62.5t21.5 -93v-318q0 -75 -30 -128.5t-86.5 -81.5t-137.5 -28z" />
    <glyph glyph-name="uni1CA4" unicode="&#x1ca4;" horiz-adv-x="936" 
d="M561 -9q-92 0 -159.5 20t-105 59.5t-37.5 93.5q0 10 1 19t3 17h127q0 -4 -0.5 -9t-0.5 -9q0 -31 22 -50.5t61 -29t92 -9.5q55 0 90.5 15.5t53.5 41t18 54.5q0 25 -11.5 45.5t-34 33t-58.5 12.5h-19v101h36q33 0 57.5 15t37 41t12.5 59t-9.5 57.5t-29.5 38.5t-52 14
q-30 0 -52 -13.5t-33.5 -38.5t-11.5 -59v-30q0 -51 -17.5 -93t-50.5 -72.5t-79.5 -47t-104.5 -16.5q-55 0 -100.5 16.5t-79.5 47.5t-52.5 74t-18.5 95q0 73 31 126.5t87 83.5t131 30q42 0 78.5 -11.5t64.5 -33.5t42 -53h4q13 32 38 54t60 33t77 11q68 0 115.5 -26.5
t72 -70.5t24.5 -97q0 -82 -36 -124t-89 -56v-4q34 -9 58 -29.5t36.5 -50t12.5 -66.5q0 -59 -35 -106.5t-102.5 -75t-163.5 -27.5zM308 353q40 0 65.5 17.5t38 48t12.5 66.5q0 40 -12.5 70.5t-38.5 48t-66 17.5q-41 0 -66.5 -18t-38.5 -48t-13 -70q0 -37 13 -67t39 -47.5
t67 -17.5z" />
    <glyph glyph-name="uni1CA5" unicode="&#x1ca5;" horiz-adv-x="631" 
d="M304 -10q-77 0 -134.5 28t-88.5 75t-31 106q0 19 2.5 37t9.5 37h128q-4 -17 -6 -32t-2 -28q0 -54 31.5 -86.5t90.5 -32.5q45 0 72 18t39 51t12 75v126q0 41 -10.5 75t-35.5 55t-70 21q-30 0 -53 -11t-36 -32.5t-13 -52.5q0 -10 1 -20t2 -19h-129q-2 11 -4 24t-2 29
q0 58 28 99t73 63t95 22q38 0 67.5 -9t51 -25t36.5 -36h4q-2 15 -4 39t-2 46v82h130v-478q0 -78 -29.5 -132.5t-85.5 -84t-137 -29.5z" />
    <glyph glyph-name="uni1CA6" unicode="&#x1ca6;" horiz-adv-x="878" 
d="M528 0q-5 37 -32.5 60.5t-67 35.5t-82.5 12q-46 0 -87 -10t-76 -29l-45 84q19 11 45.5 20.5t61.5 12.5v3q-61 24 -103 64.5t-64.5 95.5t-22.5 123q0 73 25 129.5t73.5 88.5t119.5 32q63 0 104.5 -25.5t58.5 -71.5h5q19 48 59.5 72.5t100.5 24.5q72 0 121 -32t75 -88.5
t26 -130.5q0 -62 -15.5 -116.5t-47.5 -110.5l-112 42q23 45 32.5 90.5t9.5 92.5q0 44 -11.5 78.5t-34 54t-58.5 19.5q-29 0 -48 -13.5t-28 -39t-9 -60.5v-137h-125v137q0 34 -8.5 59.5t-27.5 39.5t-49 14q-49 0 -76 -36t-27 -113q0 -67 20.5 -111.5t56 -73t81.5 -46.5
t97 -32q55 -15 101 -42t75.5 -68.5t33.5 -98.5h-125z" />
    <glyph glyph-name="uni1CA7" unicode="&#x1ca7;" horiz-adv-x="637" 
d="M310 -10q-78 0 -135 28t-88.5 75t-31.5 106q0 19 3 37t9 37h128q-3 -17 -5 -32t-2 -28q0 -54 31.5 -86.5t90.5 -32.5q45 0 72 17.5t39.5 49t12.5 71.5v90q0 13 0.5 26.5t1.5 27.5t2 29h-3q-25 -33 -68 -54t-99 -21q-64 0 -112 26.5t-74 77.5t-26 124q0 46 9.5 85.5
t23.5 70.5h131q-14 -36 -22 -70.5t-8 -80.5q0 -39 13.5 -67.5t38.5 -44t59 -15.5q43 0 72.5 17t45 49t15.5 80v132h128v-482q0 -76 -29 -130.5t-85.5 -83t-137.5 -28.5z" />
    <glyph glyph-name="uni1CA8" unicode="&#x1ca8;" horiz-adv-x="645" 
d="M319 -10q-81 0 -140 30.5t-91 88t-32 138.5q0 120 62 183.5t162 63.5q40 0 70 -9.5t53 -25t39 -34.5h5q-2 14 -4.5 32.5t-2.5 35.5v67q0 21 -8 36.5t-22.5 23.5t-34.5 8q-27 0 -43.5 -16.5t-16.5 -45.5v-31h-127v24q0 32 -19.5 47.5t-44.5 15.5q-16 0 -31.5 -3.5
t-29.5 -8.5l-33 93q23 10 50 15.5t53 5.5q35 0 68.5 -16.5t51.5 -55.5h3q19 40 57.5 56t82.5 16q46 0 86 -18.5t64 -56t24 -95.5v-305q0 -124 -65 -191.5t-186 -67.5zM319 95q46 0 74 17.5t41.5 49t13.5 71.5v14q0 36 -10.5 69t-39 53.5t-83.5 20.5q-59 0 -91.5 -40
t-32.5 -105q0 -67 31 -108.5t97 -41.5z" />
    <glyph glyph-name="uni1CA9" unicode="&#x1ca9;" horiz-adv-x="635" 
d="M75 0v522q0 62 25.5 107t74 70t116.5 25q93 0 149 -40t56 -108q0 -32 -12.5 -58.5t-46.5 -48.5v-3q70 -19 106.5 -77t36.5 -146q0 -44 -5.5 -89t-15 -85t-21.5 -69h-128q11 26 19 63t13 82.5t5 93.5q0 66 -30 108.5t-86 42.5q-38 0 -67 -17t-44.5 -50t-15.5 -83v-240
h-129zM198 413h5q13 20 33 36t46 27q24 12 43 23.5t30.5 27.5t11.5 37q0 29 -21.5 45.5t-57.5 16.5q-38 0 -61.5 -23t-23.5 -64v-61q0 -9 -0.5 -19.5t-1.5 -22t-3 -23.5z" />
    <glyph glyph-name="uni1CAA" unicode="&#x1caa;" horiz-adv-x="721" 
d="M378 -9q-78 0 -138.5 23.5t-101 70.5t-62 119.5t-21.5 170.5q0 63 10 122.5t27.5 114.5t40.5 102h130q-22 -50 -38 -103.5t-25 -112t-9 -123.5q0 -92 19.5 -153.5t60.5 -92t108 -30.5q78 0 118.5 32t40.5 92q0 33 -16 59.5t-47.5 42t-80.5 15.5h-39l1 105h65q34 0 57 7.5
t35 21.5t12 32q0 24 -15.5 41t-35.5 32q-17 14 -33.5 31t-26.5 42t-9 62h131q0 -26 16 -43t36 -32q25 -20 47.5 -48t22.5 -73q0 -35 -15 -60.5t-41 -40.5t-63 -21v-3q37 -7 66.5 -28.5t47.5 -59t18 -93.5q0 -68 -36.5 -117.5t-102.5 -76.5t-154 -27z" />
    <glyph glyph-name="uni1CAB" unicode="&#x1cab;" horiz-adv-x="645" 
d="M317 -10q-79 0 -138 30.5t-91.5 90t-32.5 145.5q0 88 29 147t79 89.5t115 30.5q40 0 71 -10t54.5 -27t38.5 -39h6q-2 16 -4.5 46t-2.5 52v169h129v-460q0 -129 -66 -196.5t-187 -67.5zM317 97q44 0 73 18t43.5 50.5t14.5 75.5v16q0 40 -10.5 75.5t-39.5 57.5t-85 22
q-38 0 -66 -19t-43 -54.5t-15 -85.5q0 -70 31.5 -113t96.5 -43z" />
    <glyph glyph-name="uni1CAC" unicode="&#x1cac;" horiz-adv-x="645" 
d="M326 -10q-121 0 -186 67.5t-65 191.5v305q0 58 24 95.5t63.5 56t85.5 18.5q45 0 83 -16t58 -56h3q17 39 51 55.5t68 16.5q26 0 53.5 -5.5t50.5 -15.5l-33 -93q-15 5 -30 8.5t-31 3.5q-26 0 -45.5 -15.5t-19.5 -47.5v-24h-127v31q0 29 -16 45.5t-44 16.5q-19 0 -33.5 -8
t-23 -23.5t-8.5 -36.5v-67q0 -17 -1.5 -35.5t-4.5 -32.5h5q16 19 38.5 34.5t53.5 25t70 9.5q101 0 162 -63.5t61 -183.5q0 -81 -32 -138.5t-90.5 -88t-139.5 -30.5zM327 95q66 0 97.5 41.5t31.5 108.5q0 65 -32 105t-92 40q-53 0 -81.5 -20.5t-40 -53.5t-11.5 -69v-14
q0 -40 13.5 -71.5t42 -49t72.5 -17.5z" />
    <glyph glyph-name="uni1CAD" unicode="&#x1cad;" horiz-adv-x="641" 
d="M333 -10q-76 0 -132.5 25.5t-88.5 71t-32 104.5q0 8 1 17.5t4 23.5h129q-2 -10 -2.5 -16t-0.5 -11q0 -50 32 -80.5t90 -30.5q43 0 69.5 16.5t38.5 44t12 59.5q0 21 -4.5 38.5t-12.5 32t-17.5 28.5t-19.5 29t-18 32h-3q-19 -26 -45 -41.5t-55.5 -22t-60.5 -6.5
q-42 0 -80 18t-62.5 52t-24.5 82q0 47 23.5 80.5t63.5 52t90 18.5h101v107h130v-107h92v-100h-90v-18q3 -25 16.5 -48t32 -46.5t36.5 -50t29.5 -59t11.5 -72.5q0 -66 -30 -116t-86.5 -78.5t-136.5 -28.5zM248 401q39 0 60.5 19.5t21.5 48.5v41h-81q-37 0 -58 -14.5
t-21 -39.5q0 -27 22 -41t56 -14z" />
    <glyph glyph-name="uni1CAE" unicode="&#x1cae;" horiz-adv-x="645" 
d="M328 -10q-121 0 -187 67.5t-66 196.5v460h129v-170q0 -22 -2 -52t-5 -46h5q17 21 39.5 38.5t53.5 28t69 10.5q67 0 117.5 -30.5t79 -89.5t28.5 -147q0 -86 -32.5 -145.5t-91 -90t-137.5 -30.5zM329 97q65 0 96.5 43t31.5 113q0 50 -15 85.5t-42.5 54.5t-66.5 19
q-56 0 -85 -22t-39.5 -57.5t-10.5 -75.5v-16q0 -43 14 -75.5t43.5 -50.5t73.5 -18z" />
    <glyph glyph-name="uni1CAF" unicode="&#x1caf;" horiz-adv-x="611" 
d="M304 -10q-77 0 -134.5 28t-88.5 75t-31 106q0 19 2.5 37t9.5 37h128q-4 -17 -6 -32t-2 -28q0 -54 31.5 -86.5t90.5 -32.5q38 0 65.5 12.5t43 34t15.5 49.5t-12 50t-31.5 41t-44.5 37q-31 23 -53.5 50.5t-35 59t-12.5 65.5v30l-179 26v102l179 -27v90h130v-112l181 -27
v-102l-182 27v-11q0 -22 12.5 -42t34 -40t50.5 -43q26 -19 47.5 -43.5t35 -55.5t13.5 -71q0 -60 -31.5 -106t-89 -72t-136.5 -26z" />
    <glyph glyph-name="uni1CB0" unicode="&#x1cb0;" horiz-adv-x="611" 
d="M301 -10q-80 0 -137 24.5t-86.5 63.5t-29.5 83q0 10 1 20t3 20h126q-1 -4 -1.5 -10t-0.5 -11q0 -22 12.5 -42.5t40 -33t72.5 -12.5q63 0 91.5 19.5t28.5 45.5q0 29 -24.5 48.5t-87.5 19.5h-50v99h73q35 0 56.5 10t21.5 37q0 25 -22 35.5t-56 10.5h-73v99h70q36 0 49 11
t13 25q0 18 -19 26.5t-51 18.5q-24 8 -48 22t-39 36.5t-14 58.5h131q3 -21 24 -32.5t55 -23.5q25 -9 47 -22t36 -32.5t14 -47.5q0 -22 -9 -39.5t-28.5 -29t-52.5 -16.5v-3q28 -1 52.5 -13t40 -32.5t15.5 -51.5q0 -48 -30.5 -68.5t-76.5 -28.5v-3q35 -6 61.5 -22.5
t41.5 -41.5t15 -59q0 -50 -33.5 -85t-90.5 -54t-131 -19z" />
    <glyph glyph-name="uni1CB1" unicode="&#x1cb1;" horiz-adv-x="728" 
d="M406 -10q-113 0 -191.5 42t-119 128t-40.5 217q0 58 10.5 116.5t29 115t44.5 105.5h130q-24 -52 -42.5 -106.5t-28.5 -112t-10 -118.5q0 -93 23.5 -156.5t72 -95t123.5 -31.5q63 0 97 18t34 48q0 27 -24 46t-79 19h-59v99h69q24 0 42 3.5t29.5 14t11.5 29.5q0 24 -22 35
t-67 11h-63v99h68q38 0 51 10.5t13 25.5q0 18 -13.5 30t-30.5 22q-15 11 -30 25t-24 35t-6 50h130q1 -13 8.5 -24.5t18.5 -21t21 -16.5q23 -16 42.5 -37t19.5 -58q0 -35 -18.5 -56t-68.5 -31v-2q28 -1 51.5 -13.5t38.5 -33.5t15 -50q0 -45 -28 -68.5t-76 -30.5v-3
q37 -5 62 -19.5t38.5 -39.5t13.5 -61q0 -45 -33.5 -81.5t-93 -57t-139.5 -20.5z" />
    <glyph glyph-name="uni1CB2" unicode="&#x1cb2;" horiz-adv-x="637" 
d="M85 0v108q30 2 61 7t67 16v2q-50 38 -85.5 87.5t-54 106.5t-18.5 120q0 91 35.5 153t95 93t133.5 31t133.5 -31t94.5 -93t35 -153q0 -63 -18 -120t-53 -106t-86 -88v-2q35 -11 66 -16t61 -7l1 -108q-65 2 -124 17.5t-110 39.5q-52 -24 -110.5 -39.5t-123.5 -17.5z
M319 181q38 29 66 68t44.5 89t16.5 109q0 82 -34 125.5t-93 43.5t-93.5 -43.5t-34.5 -125.5q0 -59 16.5 -109t45.5 -89t66 -68z" />
    <glyph glyph-name="uni1CB3" unicode="&#x1cb3;" horiz-adv-x="625" 
d="M313 -10q-82 0 -141 28t-90.5 75t-31.5 106q0 19 2.5 37t9.5 37h128q-4 -17 -6 -32t-2 -28q0 -54 33 -86.5t99 -32.5q44 0 72.5 17t42 45t13.5 62q0 42 -17 70.5t-48.5 44t-77.5 15.5h-76v89l165 173h-300v104h463v-89l-184 -185q53 -6 100.5 -33t78 -74.5t30.5 -117.5
q0 -67 -32 -118t-90.5 -79t-140.5 -28z" />
    <glyph glyph-name="uni1CB4" unicode="&#x1cb4;" horiz-adv-x="607" 
d="M303 -10q-80 0 -137 24.5t-86.5 63.5t-29.5 83q0 10 1 20t3 20h126q-1 -4 -1.5 -10t-0.5 -10q0 -23 12.5 -43.5t40 -33t72.5 -12.5q63 0 91.5 19.5t28.5 45.5q0 29 -24.5 48.5t-87.5 19.5h-46v99h69q35 0 56.5 9.5t21.5 33.5q0 17 -14 27.5t-36.5 18t-49.5 14.5
q-31 9 -63 20t-60 28.5t-45 44.5t-17 68q0 40 24.5 71t70.5 48t108 17q45 0 87.5 -10.5t80.5 -34.5l-43 -88q-29 15 -59.5 24t-66.5 9t-56.5 -10t-20.5 -27t11.5 -26.5t35.5 -17t59 -17.5q32 -8 65.5 -19t61.5 -27.5t45 -42t17 -63.5q0 -43 -30 -67t-77 -33v-3
q35 -6 61.5 -22.5t41.5 -41.5t15 -59q0 -50 -33.5 -85t-90.5 -54t-131 -19z" />
    <glyph glyph-name="uni1CB5" unicode="&#x1cb5;" horiz-adv-x="697" 
d="M305 -10q-120 0 -185 45t-65 125q0 52 28.5 88.5t81 55.5t125.5 19h134v80h-145q-102 0 -158.5 40.5t-56.5 116.5t65.5 120t179.5 44q77 0 132 -21.5t84 -63t29 -103.5v-36h108v-97h-108v-80h108v-96h-108v-37q0 -64 -28.5 -109t-84 -68t-136.5 -23zM308 88
q44 0 69.5 13.5t36 36.5t10.5 51v38h-128q-31 0 -55.5 -7t-38 -21.5t-13.5 -38.5q0 -35 32 -53.5t87 -18.5zM291 500h133v34q0 43 -27.5 67.5t-88.5 24.5q-53 0 -82 -16.5t-29 -49.5q0 -21 11 -34t32 -19.5t51 -6.5z" />
    <glyph glyph-name="uni1CB6" unicode="&#x1cb6;" horiz-adv-x="857" 
d="M491 724v-88q115 -1 183 -37.5t98 -96.5t30 -132q0 -51 -15.5 -98.5t-51.5 -86t-95.5 -61.5t-148.5 -24v-110h-126v110q-89 1 -149 24t-95 61.5t-50.5 86.5t-15.5 98q0 52 16 99.5t51.5 84.5t95.5 59t147 23v88h126zM365 533q-69 -1 -109 -22.5t-56.5 -57.5t-16.5 -82
q0 -50 17.5 -87.5t57.5 -59t107 -23.5v332zM491 533v-332q68 2 108 24t57.5 59.5t17.5 86.5q0 47 -17 83t-56.5 57t-109.5 22z" />
    <glyph glyph-name="uni1CB7" unicode="&#x1cb7;" horiz-adv-x="605" 
d="M302 -9q-75 0 -131.5 24.5t-88.5 70t-32 106.5q0 51 17 86.5t47 61t67 44t76 34.5q47 19 80 35.5t51 36t18 48.5q0 41 -27.5 62.5t-73.5 21.5q-55 0 -79.5 -23t-24.5 -58q0 -5 0.5 -11t1.5 -11h-129l-2 16t-1 15q0 50 27.5 89.5t79.5 62t125 22.5q71 0 124 -23t82 -65
t29 -101q0 -45 -15.5 -77.5t-44 -56.5t-66 -44t-81.5 -38q-43 -18 -76.5 -35.5t-52 -39.5t-18.5 -53q0 -46 32.5 -72.5t86.5 -26.5q37 0 64 12t41.5 35t14.5 55q0 10 -0.5 18.5t-2.5 16.5h130q2 -11 3.5 -22t1.5 -22q0 -65 -31.5 -108t-88.5 -64.5t-133 -21.5z" />
    <glyph glyph-name="uni1CB8" unicode="&#x1cb8;" horiz-adv-x="637" 
d="M327 -10q-81 0 -137.5 28.5t-85.5 83t-29 130.5v482h128v-132q0 -48 15.5 -80t45 -49t72.5 -17q35 0 59.5 15.5t38 44t13.5 67.5q0 46 -8.5 80.5t-21.5 70.5h130q15 -31 24.5 -70.5t9.5 -85.5q0 -73 -26.5 -124t-74 -77.5t-111.5 -26.5q-56 0 -99.5 21t-67.5 54h-3
q2 -15 2.5 -29t1 -27.5t0.5 -26.5v-90q0 -40 12 -71.5t39.5 -49t72.5 -17.5q59 0 90.5 32.5t31.5 86.5q0 13 -1.5 28t-5.5 32h127q7 -19 9.5 -37t2.5 -37q0 -59 -31 -106t-88 -75t-135 -28z" />
    <glyph glyph-name="uni1CB9" unicode="&#x1cb9;" horiz-adv-x="626" 
d="M314 723q54 0 101.5 -17t83.5 -49.5t56.5 -79t20.5 -106.5q0 -77 -31 -129t-86 -81t-127 -37q-54 -5 -77.5 -23t-23.5 -50q0 -29 22 -46.5t60 -17.5q39 0 61 18.5t22 50.5q0 5 -0.5 11.5t-2.5 12.5h127q2 -12 3.5 -22t1.5 -20q0 -44 -27 -77t-75 -52t-110 -19
q-64 0 -112 19t-74 53.5t-26 79.5q0 39 20 70t67 48v3q-59 20 -98.5 72t-39.5 136q0 60 19.5 106.5t55 79t84 49.5t105.5 17zM312 616q-37 0 -66 -18.5t-45 -51.5t-16 -75q0 -44 16 -76.5t45 -49.5t67 -17q39 0 67.5 17.5t44.5 49.5t16 76q0 43 -16 75t-44.5 51t-68.5 19z
" />
    <glyph glyph-name="uni1CBA" unicode="&#x1cba;" horiz-adv-x="549" 
d="M114 -9v123l122 49v3q-50 12 -91.5 46t-65.5 89t-24 127q0 68 20.5 122.5t57.5 93.5t89 59.5t115 20.5q50 0 97.5 -12t84.5 -33l-47 -103q-33 17 -63 27t-66 10t-64 -13t-47.5 -37.5t-30 -60t-10.5 -80.5q0 -60 18.5 -102.5t53 -64t82.5 -21.5q43 0 76 9.5t74 28.5v-123z
" />
    <glyph glyph-name="uni1CBD" unicode="&#x1cbd;" horiz-adv-x="605" 
d="M303 -9q-76 0 -133 21.5t-88.5 64.5t-31.5 108q0 11 1.5 22t3.5 22h130q-1 -8 -2 -16.5t-1 -18.5q0 -32 14.5 -55t42 -35t63.5 -12q54 0 86.5 26.5t32.5 72.5q0 31 -19.5 51.5t-52.5 37t-75 33.5q-44 18 -81.5 38t-66 45t-44 58.5t-15.5 80.5q0 59 29 101t82 65t124 23
q74 0 125.5 -22.5t79 -62t27.5 -89.5q0 -7 -0.5 -15t-2.5 -16h-129q1 5 1.5 11t0.5 11q0 35 -24.5 58t-79.5 23q-45 0 -73 -21.5t-28 -62.5q0 -30 18 -51.5t51 -39t80 -36.5q39 -15 76 -33t67 -42.5t47 -58t17 -81.5q0 -64 -32 -110t-88 -70.5t-132 -24.5z" />
    <glyph glyph-name="uni1CBE" unicode="&#x1cbe;" horiz-adv-x="637" 
d="M85 714q65 -2 123.5 -17.5t110.5 -39.5q51 24 110 39.5t124 17.5l-1 -108q-30 -1 -61 -6.5t-66 -16.5v-2q51 -38 86 -87t53 -106.5t18 -120.5q0 -91 -35 -153t-94.5 -93t-133.5 -31t-133.5 31t-95 93t-35.5 153q0 63 18.5 120.5t54 106.5t85.5 87v2q-36 11 -67 16.5
t-61 6.5v108zM319 533q-37 -28 -66 -67.5t-45.5 -89t-16.5 -109.5q0 -81 34.5 -125t93.5 -44t93 44t34 125q0 60 -16.5 109.5t-44.5 89t-66 67.5z" />
    <glyph glyph-name="uni1CBF" unicode="&#x1cbf;" horiz-adv-x="667" 
d="M333 -10q-135 0 -204 93t-69 274q0 122 31 203.5t92 122.5t150 41q137 0 205.5 -93t68.5 -274q0 -122 -31 -203.5t-91.5 -122.5t-151.5 -41zM333 98q72 0 105 63t33 196q0 90 -15 147t-45 84.5t-78 27.5q-71 0 -104 -63t-33 -196q0 -89 15 -146.5t45.5 -85t76.5 -27.5z
" />
    <glyph glyph-name="Wgrave" unicode="&#x1e80;" horiz-adv-x="971" 
d="M958 714l-185 -714h-143l-112 408q-5 17 -10 38.5t-10 44t-9 41.5t-5 30q-2 -11 -5 -30t-8 -41.5t-10 -44.5t-10 -40l-110 -406h-143l-185 714h129l99 -406q4 -20 9 -43t10 -47t9 -46.5t6 -41.5q4 24 8.5 52t10.5 57t12.5 56t12.5 49l102 370h126l104 -372
q6 -22 13 -49.5t13 -56.5t10.5 -56.5t7.5 -49.5q3 25 9 56.5t13 63.5t13 58l99 406h129zM486 938q13 -22 32.5 -49.5t40 -53t35.5 -44.5v-13h-85q-18 14 -42 33.5t-48 41t-45 41.5t-33 34v10h145z" />
    <glyph glyph-name="wgrave" unicode="&#x1e81;" horiz-adv-x="833" 
d="M451 280q-7 27 -14 56t-12 54.5t-8 40.5h-3q-2 -15 -7.5 -41t-12.5 -55.5t-15 -57.5l-81 -276h-138l-149 542h128l63 -258q7 -27 13.5 -57.5t11.5 -59.5t6 -51h4q2 15 6 36t8.5 43.5t9.5 42.5t9 32l78 272h140l75 -273q5 -22 12 -49t12.5 -54.5t7.5 -49.5h4q2 21 7 50
t11.5 60.5t13.5 57.5l65 258h126l-150 -542h-142zM417 766q13 -22 32.5 -49.5t40 -53t35.5 -44.5v-13h-85q-18 14 -42 33.5t-48 41t-45 41.5t-33 34v10h145z" />
    <glyph glyph-name="Wacute" unicode="&#x1e82;" horiz-adv-x="971" 
d="M958 714l-185 -714h-143l-112 408q-5 17 -10 38.5t-10 44t-9 41.5t-5 30q-2 -11 -5 -30t-8 -41.5t-10 -44.5t-10 -40l-110 -406h-143l-185 714h129l99 -406q4 -20 9 -43t10 -47t9 -46.5t6 -41.5q4 24 8.5 52t10.5 57t12.5 56t12.5 49l102 370h126l104 -372
q6 -22 13 -49.5t13 -56.5t10.5 -56.5t7.5 -49.5q3 25 9 56.5t13 63.5t13 58l99 406h129zM668 928q-12 -14 -33 -34t-45.5 -41.5t-48 -41t-42.5 -33.5h-84v13q16 19 36 44.5t39.5 53t32.5 49.5h145v-10z" />
    <glyph glyph-name="wacute" unicode="&#x1e83;" horiz-adv-x="833" 
d="M451 280q-7 27 -14 56t-12 54.5t-8 40.5h-3q-2 -15 -7.5 -41t-12.5 -55.5t-15 -57.5l-81 -276h-138l-149 542h128l63 -258q7 -27 13.5 -57.5t11.5 -59.5t6 -51h4q2 15 6 36t8.5 43.5t9.5 42.5t9 32l78 272h140l75 -273q5 -22 12 -49t12.5 -54.5t7.5 -49.5h4q2 21 7 50
t11.5 60.5t13.5 57.5l65 258h126l-150 -542h-142zM599 756q-12 -14 -33 -34t-45.5 -41.5t-48 -41t-42.5 -33.5h-84v13q16 19 36 44.5t39.5 53t32.5 49.5h145v-10z" />
    <glyph glyph-name="Wdieresis" unicode="&#x1e84;" horiz-adv-x="971" 
d="M958 714l-185 -714h-143l-112 408q-5 17 -10 38.5t-10 44t-9 41.5t-5 30q-2 -11 -5 -30t-8 -41.5t-10 -44.5t-10 -40l-110 -406h-143l-185 714h129l99 -406q4 -20 9 -43t10 -47t9 -46.5t6 -41.5q4 24 8.5 52t10.5 57t12.5 56t12.5 49l102 370h126l104 -372
q6 -22 13 -49.5t13 -56.5t10.5 -56.5t7.5 -49.5q3 25 9 56.5t13 63.5t13 58l99 406h129zM323 856q0 32 17.5 46t42.5 14t43.5 -14t18.5 -46q0 -30 -18.5 -44.5t-43.5 -14.5t-42.5 14.5t-17.5 44.5zM528 856q0 32 17.5 46t43.5 14q24 0 42.5 -14t18.5 -46q0 -30 -18.5 -44.5
t-42.5 -14.5q-26 0 -43.5 14.5t-17.5 44.5z" />
    <glyph glyph-name="wdieresis" unicode="&#x1e85;" horiz-adv-x="833" 
d="M451 280q-7 27 -14 56t-12 54.5t-8 40.5h-3q-2 -15 -7.5 -41t-12.5 -55.5t-15 -57.5l-81 -276h-138l-149 542h128l63 -258q7 -27 13.5 -57.5t11.5 -59.5t6 -51h4q2 15 6 36t8.5 43.5t9.5 42.5t9 32l78 272h140l75 -273q5 -22 12 -49t12.5 -54.5t7.5 -49.5h4q2 21 7 50
t11.5 60.5t13.5 57.5l65 258h126l-150 -542h-142zM254 684q0 32 17.5 46t42.5 14t43.5 -14t18.5 -46q0 -30 -18.5 -44.5t-43.5 -14.5t-42.5 14.5t-17.5 44.5zM459 684q0 32 17.5 46t43.5 14q24 0 42.5 -14t18.5 -46q0 -30 -18.5 -44.5t-42.5 -14.5q-26 0 -43.5 14.5
t-17.5 44.5z" />
    <glyph glyph-name="uni1E9E" unicode="&#x1e9e;" horiz-adv-x="743" 
d="M372 724q76 0 130.5 -22.5t89.5 -64t48 -98.5l-122 -125q58 -7 101 -32t67.5 -67.5t24.5 -103.5q0 -66 -28 -115.5t-84.5 -77.5t-145.5 -28q-53 0 -98 8.5t-86 29.5v111q40 -23 85 -34.5t84 -11.5q77 0 110 32t33 87q0 53 -37.5 81.5t-119.5 28.5h-50v91l129 133
q-11 25 -30 40t-44.5 22t-59.5 7q-54 0 -88 -19.5t-50 -57t-16 -92.5v-446h-128v456q0 83 33.5 143.5t97.5 92.5t154 32z" />
    <glyph glyph-name="Ygrave" unicode="&#x1ef2;" horiz-adv-x="603" 
d="M302 396l162 318h139l-237 -436v-278h-129v273l-237 441h141zM302 938q13 -22 32.5 -49.5t40 -53t35.5 -44.5v-13h-85q-18 14 -42 33.5t-48 41t-45 41.5t-33 34v10h145z" />
    <glyph glyph-name="ygrave" unicode="&#x1ef3;" horiz-adv-x="548" 
d="M0 542h135l108 -309q7 -19 13 -38.5t10.5 -38.5t7.5 -36h4q4 23 13.5 53.5t19.5 59.5l104 309h133l-226 -601q-22 -57 -50.5 -97.5t-69.5 -62t-101 -21.5q-25 0 -43.5 2.5t-31.5 5.5v100q11 -2 26.5 -4t32.5 -2q31 0 52.5 12.5t36.5 33.5t25 48l18 46zM274 766
q13 -22 32.5 -49.5t40 -53t35.5 -44.5v-13h-85q-18 14 -42 33.5t-48 41t-45 41.5t-33 34v10h145z" />
    <glyph glyph-name="uni2010" unicode="&#x2010;" horiz-adv-x="320" 
d="M33 215v106h255v-106h-255z" />
    <glyph glyph-name="endash" unicode="&#x2013;" horiz-adv-x="500" 
d="M38 219v99h424v-99h-424z" />
    <glyph glyph-name="emdash" unicode="&#x2014;" horiz-adv-x="1000" 
d="M38 219v99h923v-99h-923z" />
    <glyph glyph-name="quoteleft" unicode="&#x2018;" horiz-adv-x="204" 
d="M11 464q9 36 23 80.5t30.5 89t32.5 80.5h92q-9 -41 -18.5 -87.5t-17.5 -91.5t-13 -82h-122z" />
    <glyph glyph-name="quoteright" unicode="&#x2019;" horiz-adv-x="204" 
d="M192 703q-9 -36 -23 -80.5t-30 -88.5t-33 -81h-92q7 31 14.5 65t14 68.5t12 67t9.5 60.5h121z" />
    <glyph glyph-name="quotesinglbase" unicode="&#x201a;" horiz-adv-x="272" 
d="M208 116q-9 -36 -23 -80.5t-30 -88.5t-33 -81h-92q7 31 14.5 65t14 68.5t12 67t9.5 60.5h121z" />
    <glyph glyph-name="quotedblleft" unicode="&#x201c;" horiz-adv-x="412" 
d="M398 714q-9 -41 -19 -87.5t-17.5 -91.5t-12.5 -82h-123l-7 12q9 35 23 79t31 88.5t33 81.5h92zM189 714q-9 -41 -19 -87.5t-18 -91.5t-13 -82h-121l-7 11q9 36 23 80t30.5 88.5t32.5 81.5h92z" />
    <glyph glyph-name="quotedblright" unicode="&#x201d;" horiz-adv-x="412" 
d="M401 703q-9 -36 -23 -80.5t-30.5 -88.5t-32.5 -81h-93q10 41 19.5 87.5t18 91.5t12.5 82h122zM192 703q-9 -36 -23 -80.5t-30.5 -88.5t-32.5 -81h-92q7 31 14 65t13.5 68.5t12 67t9.5 60.5h122z" />
    <glyph glyph-name="quotedblbase" unicode="&#x201e;" horiz-adv-x="470" 
d="M417 116q-9 -36 -23 -80.5t-30.5 -88.5t-32.5 -81h-93q10 41 19.5 87.5t18 91.5t12.5 82h122zM208 116q-9 -36 -23 -80.5t-30.5 -88.5t-32.5 -81h-92q7 31 14 65t13.5 68.5t12 67t9.5 60.5h122z" />
    <glyph glyph-name="bullet" unicode="&#x2022;" horiz-adv-x="382" 
d="M61 365q0 52 17.5 84t47 46t65.5 14t65.5 -14t47 -46t17.5 -84q0 -51 -17.5 -83t-47 -46.5t-65.5 -14.5t-65.5 14.5t-47 46.5t-17.5 83z" />
    <glyph glyph-name="ellipsis" unicode="&#x2026;" horiz-adv-x="820" 
d="M61 64q0 43 22.5 60.5t54.5 17.5t54.5 -17.5t22.5 -60.5q0 -41 -22.5 -59t-54.5 -18t-54.5 18t-22.5 59zM333 64q0 43 22.5 60.5t54.5 17.5t54.5 -17.5t22.5 -60.5q0 -41 -22.5 -59t-54.5 -18t-54.5 18t-22.5 59zM605 64q0 43 22.5 60.5t54.5 17.5t54.5 -17.5t22.5 -60.5
q0 -41 -22.5 -59t-54.5 -18t-54.5 18t-22.5 59z" />
    <glyph glyph-name="guilsinglleft" unicode="&#x2039;" horiz-adv-x="344" 
d="M38 276l177 215l91 -50l-137 -171l137 -170l-91 -50l-177 213v13z" />
    <glyph glyph-name="guilsinglright" unicode="&#x203a;" horiz-adv-x="344" 
d="M129 491l177 -215v-13l-177 -213l-91 50l138 170l-138 171z" />
    <glyph glyph-name="Euro" unicode="&#x20ac;" horiz-adv-x="577" 
d="M390 723q47 0 91.5 -10.5t83.5 -31.5l-45 -100q-28 14 -61.5 24.5t-68.5 10.5q-34 0 -61 -10t-47.5 -29.5t-34 -48.5t-20.5 -67h214v-79h-221q-1 -7 -1 -14.5v-16.5v-16.5t1 -17.5h190v-78h-181q10 -45 31.5 -76.5t56.5 -48t82 -16.5q39 0 75.5 9t66.5 22v-109
q-29 -13 -66 -21.5t-84 -8.5q-80 0 -139 29t-96 85t-53 135h-78v78h68q-1 9 -1 16.5v17.5q0 9 0.5 18t0.5 13h-68v79h76q14 81 50.5 139.5t96.5 90.5t142 32z" />
    <glyph glyph-name="uni20BE" unicode="&#x20be;" horiz-adv-x="782" 
d="M102 0v90l97 10v4q-48 29 -79 71.5t-45.5 94t-14.5 108.5q0 96 38.5 169.5t113.5 116t183 42.5q109 0 183 -44t111.5 -124t37.5 -189h-131q0 84 -20 142t-64 88.5t-117 30.5q-72 0 -117 -29t-66 -83.5t-21 -130.5q0 -79 28 -138t79 -91t120 -32h266v-106h-582zM291 350
v420h71v-420h-71zM427 350v420h71v-420h-71z" />
    <glyph glyph-name="uni2116" unicode="&#x2116;" horiz-adv-x="1049" 
d="M85 0v714h146l267 -529h7q-1 25 -3 59t-3 70t-1 64v336h114v-714h-143l-272 533h-6q2 -26 4 -63t3.5 -73t1.5 -64v-333h-115zM696 0v84h292v-84h-292zM841 140q-46 0 -82 20.5t-56.5 59.5t-20.5 95q0 84 43.5 129t118.5 45q45 0 81 -20.5t57 -59t21 -94.5
q0 -84 -44 -129.5t-118 -45.5zM843 214q36 0 52.5 25t16.5 75q0 51 -16.5 75.5t-52.5 24.5q-37 0 -54 -24.5t-17 -75.5q0 -50 17 -75t54 -25z" />
    <glyph glyph-name="trademark" unicode="&#x2122;" horiz-adv-x="772" 
d="M321 362v352h112l83 -257l88 257h108v-352h-76v201q0 8 1 29t2 33h-4l-90 -263h-64l-86 263h-4q2 -16 2.5 -34t0.5 -25v-204h-73zM112 362v286h-95v66h265v-66h-95v-286h-75z" />
    <glyph glyph-name="minus" unicode="&#x2212;" horiz-adv-x="320" 
d="M33 215v106h255v-106h-255z" />
    <glyph glyph-name="uni2D00" unicode="&#x2d00;" horiz-adv-x="712" 
d="M364 0q-69 0 -115 17.5t-69 57t-23 103.5v197q0 39 -16.5 53t-46.5 14h-78v100h149q37 0 65 -16t44 -57h6q18 28 43.5 46.5t57.5 27.5t68 9q92 0 143 -47t51 -152v-106h-127v80q0 62 -24 92.5t-76 30.5q-50 0 -78.5 -21t-40.5 -60t-12 -93v-88q0 -46 23.5 -66.5
t77.5 -20.5h224v-101h-246z" />
    <glyph glyph-name="uni2D01" unicode="&#x2d01;" horiz-adv-x="669" 
d="M349 -250q-48 0 -88.5 3.5t-76 11.5t-68.5 19v110q47 -19 101 -30.5t117 -11.5q61 0 101 11.5t60.5 33.5t20.5 54q0 26 -6.5 43.5t-16.5 31.5q-11 17 -19.5 34t-11.5 36h-5q-19 -39 -48.5 -62t-65 -33.5t-74.5 -10.5q-60 0 -104 20.5t-67 64.5t-23 113v354h127v-328
q0 -61 24 -91t75 -30q72 0 102.5 45t30.5 140v264h127v-361q0 -33 10 -57t25 -45q19 -26 32.5 -56t13.5 -79q0 -64 -35.5 -107.5t-101 -65t-156.5 -21.5z" />
    <glyph glyph-name="uni2D02" unicode="&#x2d02;" horiz-adv-x="673" 
d="M351 -250q-48 0 -88 3.5t-75.5 11.5t-69.5 19v110q48 -19 102 -30.5t116 -11.5q61 0 101.5 11.5t60.5 34.5t20 57q0 27 -10 47.5t-25 40.5q-17 24 -31.5 55.5t-14.5 76.5v152q0 62 -24 92.5t-76 30.5q-76 0 -104 -48t-28 -138v-264h-127v542h99l17 -73h6q18 28 44 46.5
t57.5 27.5t67.5 9q92 0 143 -47t51 -152v-166q0 -38 11.5 -63t29.5 -50q17 -23 29.5 -53t12.5 -77q0 -64 -36 -107.5t-102 -65t-157 -21.5z" />
    <glyph glyph-name="uni2D03" unicode="&#x2d03;" horiz-adv-x="616" 
d="M306 -10q-77 0 -135 30.5t-90 88.5t-32 139q0 52 14 94t40 76t64.5 58.5t89.5 41.5q-16 26 -23.5 58t-7.5 66v19h-153v99h465v-99h-189v-18q0 -30 6.5 -53t23.5 -43t47 -43q49 -36 80 -73.5t46 -81.5t15 -102q0 -82 -32 -139.5t-91 -87.5t-138 -30zM307 89q62 0 96 38.5
t34 122.5q0 38 -10 67t-28 52.5t-45 44.5q-12 10 -22.5 19.5t-16.5 14.5q-33 -12 -58.5 -29.5t-42 -41t-25.5 -54.5t-9 -71q0 -79 34.5 -121t92.5 -42z" />
    <glyph glyph-name="uni2D04" unicode="&#x2d04;" 
d="M369 552q92 0 143.5 -47t51.5 -152v-593h-127v567q0 62 -24 92.5t-76 30.5q-76 0 -104 -48t-28 -138v-264h-127v542h99l17 -73h6q18 28 44 46.5t57.5 27.5t67.5 9z" />
    <glyph glyph-name="uni2D05" unicode="&#x2d05;" horiz-adv-x="959" 
d="M699 552q92 0 139 -47t47 -152v-353h-126v328q0 63 -23 92.5t-70 29.5q-66 0 -93.5 -43.5t-27.5 -124.5v-522h-127v568q0 42 -10 68.5t-30.5 40t-51.5 13.5q-47 0 -73 -22t-37 -63t-11 -101v-264h-127v542h99l18 -71h5q16 26 40 44.5t55 27.5t66 9q62 0 102.5 -21
t62.5 -64h5q27 43 71.5 64t96.5 21z" />
    <glyph glyph-name="uni2D06" unicode="&#x2d06;" horiz-adv-x="703" 
d="M443 552q97 0 154 -73t57 -207q0 -90 -28 -153t-83.5 -96t-137.5 -33q-121 0 -184.5 72t-63.5 212v318q0 38 -16.5 52.5t-46.5 14.5h-78v101h133q50 0 79.5 -17.5t42.5 -47.5t13 -65v-50q0 -27 -2 -54t-4 -55h6q25 38 64 59.5t95 21.5zM405 89q42 0 68 21.5t38.5 63
t12.5 98.5q0 89 -29.5 133.5t-87.5 44.5q-42 0 -69.5 -16.5t-40.5 -52t-13 -92.5v-20q0 -90 28.5 -135t92.5 -45z" />
    <glyph glyph-name="uni2D07" unicode="&#x2d07;" horiz-adv-x="956" 
d="M260 -10q-58 0 -99.5 20.5t-63.5 64.5t-22 113v354h98l19 -71h5q16 25 39 43t54 28t68 10q62 0 102.5 -21.5t61.5 -63.5h6q26 41 69.5 63t98.5 22q92 0 139 -47t47 -152v-353h-127v328q0 64 -23 93t-70 29q-63 0 -92 -42.5t-29 -125.5v-282h-97l-18 70h-7
q-15 -26 -39 -44t-54 -27t-66 -9zM294 93q65 0 93 43.5t28 129.5v62q0 42 -10 68.5t-30.5 40t-52.5 13.5q-42 0 -68.5 -18t-39 -56.5t-12.5 -99.5v-62q0 -61 22.5 -91t69.5 -30z" />
    <glyph glyph-name="uni2D08" unicode="&#x2d08;" horiz-adv-x="460" 
d="M259 0v351q0 46 -22.5 69t-71.5 23h-149v99h164q75 0 120 -21t65.5 -62.5t20.5 -105.5v-353h-127z" />
    <glyph glyph-name="uni2D09" unicode="&#x2d09;" horiz-adv-x="641" 
d="M441 -240v202q0 26 1.5 53.5t4.5 54.5h-6q-25 -37 -64 -58.5t-95 -21.5q-98 0 -152.5 73t-54.5 208v489h126v-180q0 -27 -1.5 -54t-4.5 -55h6q25 38 64 59.5t95 21.5q97 0 152 -73.5t55 -207.5v-511h-126zM318 92q42 0 69.5 16.5t40.5 52.5t13 92v19q0 59 -13 98.5
t-39.5 59.5t-64.5 20q-42 0 -69.5 -16.5t-40.5 -52t-13 -92.5v-18q0 -89 30 -134t87 -45z" />
    <glyph glyph-name="uni2D0A" unicode="&#x2d0a;" horiz-adv-x="959" 
d="M604 -10q-58 0 -99.5 20.5t-64 64.5t-22.5 113v140q0 42 -10 68.5t-30.5 40t-51.5 13.5q-43 0 -70 -20t-39 -61t-12 -105v-264h-127v542h99l18 -71h5q16 25 39 43t54.5 28t67.5 10q63 0 103 -21.5t62 -63.5h5q26 41 69.5 63t98.5 22q92 0 139 -47t47 -152v-353h-98
l-17 70h-7q-16 -27 -40.5 -44.5t-54 -26.5t-64.5 -9zM637 93q65 0 93 43t28 130v62q0 64 -22.5 93t-69.5 29q-64 0 -92.5 -42t-28.5 -122v-72q0 -61 22 -91t70 -30z" />
    <glyph glyph-name="uni2D0B" unicode="&#x2d0b;" horiz-adv-x="621" 
d="M299 -10q-80 0 -136 32.5t-85 95t-29 152.5q0 136 62 204t190 68h119v39q0 29 -9.5 46.5t-29.5 25.5t-50 8h-217v99h232q69 0 113.5 -19t66 -58t21.5 -101v-319q0 -131 -64 -202t-184 -71zM299 88q61 0 91 42.5t30 133.5v179h-108q-52 0 -81 -18t-40.5 -57t-11.5 -102
q0 -93 31.5 -135.5t88.5 -42.5z" />
    <glyph glyph-name="uni2D0C" unicode="&#x2d0c;" horiz-adv-x="634" 
d="M75 0v551q0 71 21.5 117.5t71.5 69t132 22.5h239v-101h-233q-61 0 -82.5 -24.5t-21.5 -77.5v-17q0 -20 -2 -38.5t-4 -33.5h7q16 27 40.5 45t55 27t65.5 9q61 0 105 -20t67.5 -63.5t23.5 -114.5v-351h-127v325q0 61 -24 91.5t-75 30.5q-47 0 -76 -19.5t-42.5 -60
t-13.5 -106.5v-261h-127z" />
    <glyph glyph-name="uni2D0D" unicode="&#x2d0d;" horiz-adv-x="960" 
d="M261 -10q-92 0 -139 47.5t-47 151.5v353h126v-328q0 -63 23 -92t70 -29q64 0 92.5 41.5t28.5 126.5v281h127v-328q0 -41 9.5 -68t30.5 -40t52 -13q44 0 70.5 20t38.5 61t12 104v264h127v-542h-99l-19 71h-5q-15 -25 -38.5 -43.5t-54.5 -28t-68 -9.5q-62 0 -102.5 21.5
t-61.5 63.5h-5q-26 -41 -69.5 -63t-98.5 -22z" />
    <glyph glyph-name="uni2D0E" unicode="&#x2d0e;" horiz-adv-x="721" 
d="M516 542h127v-542h-99l-17 70h-7q-17 -26 -42.5 -44t-57.5 -27t-69 -9q-60 0 -104 20.5t-67 64.5t-23 113v186q0 39 -16.5 53t-46.5 14h-78v101h132q50 0 80 -17.5t43.5 -49.5t13.5 -74v-187q0 -61 23.5 -91t74.5 -30q72 0 102.5 45t30.5 140v264z" />
    <glyph glyph-name="uni2D0F" unicode="&#x2d0f;" horiz-adv-x="721" 
d="M516 -240v205q0 32 2.5 55.5t7.5 49.5h-7q-16 -25 -41.5 -43t-57.5 -27.5t-69 -9.5q-60 0 -104 20.5t-67 64.5t-23 113v186q0 39 -16.5 53t-46.5 14h-78v101h132q50 0 80 -17.5t43.5 -49.5t13.5 -74v-187q0 -61 23.5 -91t74.5 -30q72 0 102.5 45t30.5 140v264h128v-782
h-128z" />
    <glyph glyph-name="uni2D10" unicode="&#x2d10;" horiz-adv-x="958" 
d="M261 -10q-58 0 -100 20.5t-64 64.5t-22 113v354h127v-328q0 -60 23 -90.5t70 -30.5q64 0 92.5 45t28.5 140v482h127v-179q0 -36 -2 -63.5t-4 -46.5h7q16 28 39.5 45.5t53.5 26.5t64 9q56 0 97 -20.5t64 -64.5t23 -114v-353h-128v327q0 62 -22.5 92.5t-70.5 30.5
q-63 0 -92 -46t-29 -139v-265h-99l-18 70h-6q-15 -26 -39.5 -44t-55 -27t-64.5 -9z" />
    <glyph glyph-name="uni2D11" unicode="&#x2d11;" horiz-adv-x="639" 
d="M269 -10q-60 0 -104 20.5t-67 64.5t-23 113v572h127v-546q0 -61 24 -91t75 -30q48 0 77.5 19.5t42.5 60.5t13 105v264h127v-542h-100l-17 70h-6q-17 -26 -42.5 -44t-57.5 -27t-69 -9z" />
    <glyph glyph-name="uni2D12" unicode="&#x2d12;" horiz-adv-x="625" 
d="M363 552q98 0 155.5 -74.5t57.5 -207.5q0 -134 -57 -207t-156 -73q-55 0 -94 21.5t-64 59.5h-5q2 -14 3 -34.5t1 -33.5v-26q0 -59 35.5 -92t100.5 -33q60 0 109 11t91 31v-111q-41 -17 -90 -25t-111 -8q-89 0 -147 26.5t-86 78.5t-28 129v558h106l13 -69h4
q27 38 67.5 58.5t94.5 20.5zM328 450q-46 0 -74.5 -19t-42 -58.5t-13.5 -100.5v-22q0 -41 7.5 -71t22.5 -49.5t39.5 -29t58.5 -9.5q60 0 89.5 44.5t29.5 133.5q0 58 -13 98.5t-39.5 61.5t-64.5 21z" />
    <glyph glyph-name="uni2D13" unicode="&#x2d13;" horiz-adv-x="960" 
d="M755 -240v205q0 17 1 32t2.5 33t4.5 41h-5q-16 -25 -39 -43.5t-53.5 -28t-67.5 -9.5q-62 0 -102.5 21.5t-61.5 63.5h-5q-26 -41 -69.5 -63t-98.5 -22q-92 0 -139 47.5t-47 151.5v353h126v-328q0 -63 23 -92t70 -29q64 0 92.5 41.5t28.5 126.5v281h127v-328q0 -41 9.5 -68
t30.5 -40t52 -13q44 0 70.5 20t38.5 61t12 104v482h127v-1000h-127z" />
    <glyph glyph-name="uni2D14" unicode="&#x2d14;" horiz-adv-x="930" 
d="M402 -240v211q0 24 2 53.5t5 45.5h-6q-16 -25 -37.5 -43t-48.5 -27.5t-62 -9.5q-95 0 -150.5 73t-55.5 209q0 135 55 207.5t148 72.5q36 0 63.5 -9.5t48.5 -28t38 -43.5h5l23 71h70l24 -71h5q16 25 37 43.5t49 28t63 9.5q94 0 148.5 -72.5t54.5 -207.5q0 -136 -55.5 -209
t-150.5 -73q-34 0 -61 9.5t-48.5 27.5t-38.5 43h-5q2 -16 4.5 -45.5t2.5 -53.5v-211h-127zM290 94q63 0 90.5 42.5t27.5 136.5v16q0 85 -28 123t-88 38q-54 0 -83.5 -43.5t-29.5 -132.5q0 -88 29.5 -134t81.5 -46zM640 94q52 0 81.5 46t29.5 134q0 89 -29.5 132.5
t-83.5 43.5q-59 0 -87.5 -38t-28.5 -123v-16q0 -94 28 -136.5t90 -42.5z" />
    <glyph glyph-name="uni2D15" unicode="&#x2d15;" horiz-adv-x="501" 
d="M187 -240v682h-171v100h171v218h127v-218h171v-100h-171v-682h-127z" />
    <glyph glyph-name="uni2D16" unicode="&#x2d16;" 
d="M369 552q92 0 143.5 -47t51.5 -152v-353h-127v327q0 62 -24.5 92.5t-75.5 30.5q-76 0 -104 -48t-28 -138v-264h-127v542h98l18 -73h6q18 28 44 46.5t57.5 27.5t67.5 9z" />
    <glyph glyph-name="uni2D17" unicode="&#x2d17;" horiz-adv-x="639" 
d="M434 -240v205q0 31 2 54.5t7 50.5h-7q-16 -25 -41 -43.5t-57 -27.5t-69 -9q-60 0 -104 20.5t-67 64.5t-23 113v354h127v-328q0 -61 24 -91t75 -30q72 0 102.5 45t30.5 140v264h127v-782h-127z" />
    <glyph glyph-name="uni2D18" unicode="&#x2d18;" horiz-adv-x="639" 
d="M304 -250q-60 0 -110.5 8.5t-94.5 25.5v110q44 -21 93.5 -31.5t108.5 -10.5q66 0 100 32t34 92v24q0 15 1 32.5t4 36.5h-4q-16 -25 -41 -43t-57 -27t-69 -9q-60 0 -104 20.5t-67 64.5t-23 113v354h127v-328q0 -61 24 -91t75 -30q72 0 102.5 45t30.5 140v264h127v-549
q0 -125 -63 -184t-194 -59z" />
    <glyph glyph-name="uni2D19" unicode="&#x2d19;" horiz-adv-x="637" 
d="M78 -240v1000h127v-179q0 -37 -2 -64.5t-4 -45.5h7q17 27 41 45t54.5 27t65.5 9q61 0 105 -21t67.5 -64.5t23.5 -113.5v-353h-127v327q0 62 -24 92.5t-75 30.5q-47 0 -76 -20t-42.5 -61t-13.5 -105v-504h-127z" />
    <glyph glyph-name="uni2D1A" unicode="&#x2d1a;" horiz-adv-x="637" 
d="M325 -250q-124 0 -185.5 58.5t-61.5 178.5v555h99l17 -73h6q18 27 43 45.5t57 28t69 9.5q94 0 144 -48t50 -151v-353h-126v327q0 62 -24 92.5t-76 30.5q-72 0 -102 -45t-30 -141v-283q0 -65 32.5 -97t97.5 -32q60 0 109 11t88 29v-109q-42 -16 -93 -24.5t-114 -8.5z" />
    <glyph glyph-name="uni2D1B" unicode="&#x2d1b;" horiz-adv-x="943" 
d="M252 -10q-93 0 -148 72.5t-55 207.5q0 136 55.5 209t150.5 73q35 0 62 -9t48.5 -27t37.5 -43h6q-3 16 -5 45.5t-2 52.5v189h127v-179q0 -37 -2 -64.5t-4 -45.5h7q17 26 39.5 44t50.5 27.5t61 9.5q58 0 100.5 -21t65 -64.5t22.5 -113.5v-353h-127v327q0 62 -22.5 92.5
t-70.5 30.5q-63 0 -91.5 -45t-28.5 -141v-264h-99l-23 71h-5q-17 -25 -38 -43t-48.5 -28t-63.5 -10zM292 93q60 0 88 38t28 122v16q0 94 -27.5 137t-90.5 43q-52 0 -81.5 -46t-29.5 -135q0 -88 29.5 -131.5t83.5 -43.5z" />
    <glyph glyph-name="uni2D1C" unicode="&#x2d1c;" horiz-adv-x="959" 
d="M78 -240v782h99l18 -71h5q16 25 39 43t54.5 28t67.5 10q63 0 103 -21.5t62 -63.5h5q26 41 69.5 63t98.5 22q92 0 139 -47t47 -152v-353h-126v328q0 64 -23.5 93t-69.5 29q-64 0 -92.5 -42.5t-28.5 -125.5v-282h-127v328q0 42 -10 68.5t-30.5 40t-51.5 13.5q-43 0 -70 -20
t-39 -61t-12 -105v-504h-127z" />
    <glyph glyph-name="uni2D1D" unicode="&#x2d1d;" horiz-adv-x="633" 
d="M293 -250q-65 0 -117.5 8.5t-96.5 25.5v110q43 -20 93.5 -31t109.5 -11q83 0 118 23.5t35 57.5q0 27 -13.5 42.5t-38 22t-58.5 6.5h-247v538h99l17 -73h6q18 28 44 46.5t57.5 27.5t67.5 9q92 0 143.5 -47t51.5 -152v-106h-127v80q0 62 -24 92.5t-76 30.5q-50 0 -79 -21
t-41 -60t-12 -93v-172h142q63 0 112 -18t76 -55t27 -96q0 -53 -29 -95t-88.5 -66t-151.5 -24z" />
    <glyph glyph-name="uni2D1E" unicode="&#x2d1e;" horiz-adv-x="637" 
d="M324 -250q-124 0 -185 58.5t-61 178.5v555h127v-268q0 -95 30 -138t102 -43q52 0 75.5 30.5t23.5 91.5v327h127v-348q0 -71 -23 -116t-65.5 -66.5t-105.5 -21.5q-35 0 -67 9t-57 27.5t-42 44.5h-6q4 -24 5 -47.5t1 -46.5q0 -64 33.5 -94.5t100.5 -30.5q56 0 106 11t92 31
v-110q-44 -17 -96 -25.5t-115 -8.5z" />
    <glyph glyph-name="uni2D1F" unicode="&#x2d1f;" horiz-adv-x="588" 
d="M-60 -240l309 470l-152 214h-77v98h532v-87l-155 -222l168 -233h-142l-98 148l-245 -388h-140zM323 308l93 139h-188z" />
    <glyph glyph-name="uni2D20" unicode="&#x2d20;" horiz-adv-x="964" 
d="M605 -10q-58 0 -100 20.5t-64 64.5t-22 113v139q0 62 -22.5 92.5t-71.5 30.5q-43 0 -69.5 -20t-38.5 -61t-12 -105v-264h-127v542h99l14 -79h5q16 28 39.5 48t54.5 30.5t69 10.5q89 0 138 -48t49 -151v-139q0 -61 22.5 -91t69.5 -30q65 0 93 45t28 140v264h127v-542h-99
l-17 70h-7q-16 -26 -39.5 -44t-53 -27t-65.5 -9z" />
    <glyph glyph-name="uni2D21" unicode="&#x2d21;" horiz-adv-x="588" 
d="M78 -240v1000h127v-279h4q13 24 32 39.5t45 23.5t58 8q62 0 97 -33t35 -91q0 -38 12.5 -53t43.5 -15h40v-100h-81q-47 0 -78.5 15.5t-46.5 42t-15 58.5q0 37 -14 55.5t-45 18.5q-28 0 -47.5 -16t-29.5 -47t-10 -76v-551h-127z" />
    <glyph glyph-name="uni2D22" unicode="&#x2d22;" horiz-adv-x="613" 
d="M298 -10q-76 0 -132 27.5t-86.5 75t-30.5 105.5q0 15 2.5 30t6.5 30h124q-3 -12 -4.5 -23.5t-1.5 -22.5q0 -55 33.5 -88.5t88.5 -33.5q44 0 74.5 21t46 61.5t15.5 97.5q0 84 -39 128.5t-125 44.5h-202v99h208q95 0 159 -29.5t96.5 -89.5t32.5 -151q0 -87 -30.5 -150.5
t-90 -97.5t-145.5 -34z" />
    <glyph glyph-name="uni2D23" unicode="&#x2d23;" horiz-adv-x="639" 
d="M434 -240v205q0 31 2 54.5t7 50.5h-7q-16 -25 -41 -43.5t-57 -27.5t-69 -9q-60 0 -104 20.5t-67 64.5t-23 113v354h127v-328q0 -61 24 -91t75 -30q72 0 102.5 45t30.5 140v482h127v-1000h-127z" />
    <glyph glyph-name="uni2D24" unicode="&#x2d24;" horiz-adv-x="627" 
d="M250 -240v236q-87 14 -131 69.5t-44 150.5v326h127v-329q0 -59 28.5 -89.5t84.5 -30.5q53 0 81.5 30.5t28.5 89.5v329h128v-328q0 -92 -46 -147.5t-130 -70.5v-236h-127z" />
    <glyph glyph-name="uni2D25" unicode="&#x2d25;" horiz-adv-x="943" 
d="M681 548q58 0 100.5 -20.5t65 -64t22.5 -114.5v-349h-127v324q0 61 -22.5 91.5t-70.5 30.5q-63 0 -91.5 -45t-28.5 -141v-260h-99l-23 71h-5q-17 -25 -38 -43t-48.5 -28t-63.5 -10q-93 0 -148 72.5t-55 207.5q0 136 55.5 209t150.5 73q35 0 62 -9t48.5 -27t37.5 -43h6
q-3 16 -5 41.5t-2 43.5v20q0 86 49.5 134t156.5 48h237v-100h-219q-52 0 -74.5 -23t-22.5 -70v-24q0 -20 -1.5 -39t-4.5 -37h7q17 26 39.5 44t50.5 27.5t61 9.5zM408 253v16q0 94 -27.5 137t-90.5 43q-52 0 -81.5 -46t-29.5 -135q0 -88 29.5 -131.5t83.5 -43.5q60 0 88 38
t28 122z" />
    <glyph glyph-name="uni2D27" unicode="&#x2d27;" horiz-adv-x="555" 
d="M276 -250q-69 0 -121 26t-81.5 74.5t-29.5 115.5q0 56 16.5 96.5t44 71t63.5 55t75 45.5q45 25 72 45t38.5 41.5t11.5 49.5q0 39 -22 61t-64 22q-45 0 -67 -22.5t-22 -63.5q0 -6 1 -12.5t2 -13.5h-125q-2 9 -3 18t-1 17q0 53 25.5 93t74 61.5t114.5 21.5q68 0 116 -22.5
t74 -64t26 -97.5q0 -53 -21 -91.5t-63 -71.5t-105 -69q-37 -22 -67 -44t-47 -52.5t-17 -77.5q0 -52 30 -82t73 -30q45 0 75 29t30 86q0 19 -2.5 36t-7.5 29h128q5 -16 8 -33.5t3 -39.5q0 -71 -30 -116.5t-83 -68t-122 -22.5z" />
    <glyph glyph-name="uni2D2D" unicode="&#x2d2d;" horiz-adv-x="484" 
d="M450 0h-417v77l266 368h-250v97h393v-85l-259 -359h267v-98z" />
    <glyph glyph-name="caroncommaaccent" horiz-adv-x="489" 
d="M323 750q-8 -20 -20 -45.5t-26.5 -52.5t-31.5 -52h-73v13q5 14 9.5 33t9 39t7.5 39.5t5 35.5h120v-10z" />
    <glyph glyph-name="commaaccentrotate" horiz-adv-x="489" 
d="M320 753q-7 -18 -14 -44.5t-12.5 -53.5t-8.5 -49h-120v10q9 20 21 45.5t27.5 52.5t32.5 52h74v-13z" />
    </font>
</defs>
</svg>
